<?xml version="1.0" encoding="UTF-8" standalone="no"?><!-- Generator: Adobe Illustrator 18.0.0, SVG Export Plug-In . SVG Version: 6.00 Build 0)  --><svg xmlns="http://www.w3.org/2000/svg" xmlns:xlink="http://www.w3.org/1999/xlink" contentScriptType="text/ecmascript" zoomAndPan="magnify" contentStyleType="text/css" id="图层_1" mapName="中国" mapType="国家地图" enable-background="new 0 0 1000 750" version="1.1" xml:space="preserve" preserveAspectRatio="xMidYMid meet" viewBox="0 0 1000 750" x="0px" y="0px">
<path fill="#E3E3E4" stroke-linejoin="round" id="path0" d="M403.5,240  c0,0,0.7-0.5-1.2-3.3c-1.8-2.8-3.2-3.3-5.5-5.5c-2.3-2.2-2.5-4.3-2.9-7.2c-0.5-2.8-1.7-7.8-2.5-9.3c-0.8-1.3-3.2,0-3.8-1.7  c-0.5-1.5,0.7-2.7,1.5-2.9c0.7-0.2,2-1.2,0.8-1.8c-1.2-0.7-4.8-0.3-6-0.5c-1.2-0.3-7.2-4.8-8.5-6c-1.3-1.3-7.7-6.5-11-8.4  c-3.5-1.8-8.5-2.7-16.2-4c-1.3-0.2-3.8-0.5-5.8-1.5c-1.8-1-4.2-1.2-7.2-2c-2.8-0.7-5.8-1.3-7.2-1.8c-0.5-0.2-1.3-0.8-2.2-1  c-1-0.2-2.9,0.2-3.7-0.3c-0.7-0.5-1.5-1.5-1.7-2.2c-0.2-0.7-0.5-0.8-0.5-1.7c0-0.8-0.5-2.3-0.5-3.2c0-0.8,0.2-2,0.3-2.5  c0.2-0.5,1-2.2,1.3-2.3c0.3-0.2,4.3-3.2,5-4.7c0.5-1.3,0.3-3.3,0.5-4.8c0-1.5,0.2-3.5,0.3-4.2c0.2-0.7,1.3-1.7,1.7-2.2  c0.5-0.7,1.3-1.2,1.3-2.2c0-1.2-0.8-1.8-1-2.8c-0.3-1-1-2.2-1.3-2.8c-0.3-0.7-1.7-1.5-2.3-2.3c-0.7-0.8-1-1.8-1.3-2.7  c-0.2-1-0.8-3.8-0.8-4.7c0-1-0.2-2.9-0.3-3.7c-0.2-0.7-0.7-1.5-1.8-2.9c-1.2-1.5-3.3-3.2-3.8-4.3c-0.5-1.2-0.7-1.5-1.5-1.3  c-0.8,0.2-2.2,0.8-2.5,0.3c-0.3-0.5-0.7-1-0.7-1.7c-0.2-0.7-0.3-1.5-0.7-1.8c-0.3-0.3-2.7,0.2-3.5,0.2c-0.7,0-3.8-0.2-4.5-0.7  c-0.7-0.5-2.2-1.3-2.8-2.3c-0.7-1-2-2.8-2.5-3.7c-0.3-0.8-0.5-2.8-0.7-3.5c-0.2-0.7-0.7-1.2-1.3-1.5c-0.6-0.3-3.2,0.5-3.7,0.2  c-0.5-0.3-1.7-0.8-2-1.3c-0.3-0.5-1-1-1-1.3s0.7-0.8,0.7-1.5c0-0.7-0.3-2-0.7-2.3c-0.5-0.3-1-0.7-1-1.7c0.2-1,0.8-1.8,1.2-2.5  c0.2-0.7,0.8-2.7,0.8-2.9s-3.5-0.7-4.3-1c-0.8-0.3-5.7-0.5-6.8-0.7c-1.2-0.2-4.5,0.2-5.3,1c-0.8,0.7-1.3,2.3-1.3,3.3  c0,1-0.2,3.5-0.5,4.2c-0.3,0.7-2.7,2-3.3,2.2c-0.7,0.3-3.5,0.8-4.5,0.7c-1-0.2-2.3,0.3-3.3-0.2c-1-0.3-2-0.8-2.8-0.7  c-0.8,0-2,1.3-2.8,1.8c-0.7,0.5-2,1.5-2.3,2.2c-0.5,0.5-1.5,1.3-2,2.3c-0.5,1.2-1,5.3-1,5.3s0.3,5.7,0.5,6.3  c0.2,0.7,0.5,2.5,0.2,3.3c-0.2,0.8-1.3,2.7-1.8,2.9c-0.3,0.2-2.2,1.3-2.9,1.8c-0.8,0.5-2.3,0.8-3.5,0.8s-2.7,1.3-3.2,1.3  c-0.4,0-2.7-0.2-3.2-0.5c-0.5-0.2-1.7-1.2-1.7-1.2s-1.3-0.8-1.5-1.2c-0.2-0.3-2.5-1-3.2-1.2c-0.7-0.2-3.5-0.7-4.3-0.8  c-0.8,0-2.3,0-2.9-0.2c-0.7-0.2-3.3-1.3-4-1.8c-0.5-0.5-4.5-2.7-5-3.5s-2.3-1.7-2.7-1.8c-0.4-0.1-1.8,0.7-2,1.2  c-0.2,0.7-2.2,3.5-2.7,4.3c-0.5,0.8-2.7,4.5-2.9,5.3c-0.3,0.8-1.2,4-2.5,4.8c-1.3,1-2.8,3.3-3.2,3.8c-0.4,0.5-3.8,4.2-4.3,4.8  c-0.5,0.6-2.3,3.3-2.2,4.2c0.2,0.8,1.5,4.2,1.8,4.7c0.3,0.5,1.5,2.9,1,3.5c-0.7,0.7-1.7,1.3-2.3,1.3s-3.5-1-3.8-1.3  c-0.3-0.3-2.7-2.5-2.8-2.7c-0.2-0.2-1.7-1-2.7-1.3c-1-0.3-2.9-0.2-4,0c-1,0.3-4.5,0.5-5.2,0.7c-0.7,0.2-7-0.2-8,0  c-1,0.2-2.3,0-4.2-0.3c-1.8-0.2-3.8-0.7-4.7-0.7c-0.8,0.2-2.3,0.2-3.5,0.5c-1.3,0.3-2.9,1.3-3.3,1.8c-0.3,0.7,0.5,2,2.9,2  c2.5,0.2,3.8,1.7,3.8,2.2c0.2,0.7,0.3,2.3,0,3.3c-0.2,0.8,0,2.7-0.5,3.8c-0.5,1.2-1,4-1.3,4.7c-0.3,0.7-0.2,2.9,0,3.8  c0.3,0.8,0.7,5,0.8,6c0.2,1,0.3,5,0.2,5.8c-0.3,0.8-0.2,3.5-0.3,4.2c-0.2,0.7,0.3,2.7-0.3,2.9c-0.7,0.5-1.5,0-2.8-0.2  c-1.3,0-2.8-0.3-3.2,0.5c-0.3,0.8,1.2,2.7,1,3.2c-0.2,0.3-0.7,0.7-1.5,0.7c-0.8,0-4.5,0.7-4.8,1c-0.3,0.3-1.2,3.7-1.3,4.8  c-0.2,1.2,0,4.5-0.5,5.2s-5.7,2.2-6.2,2.3c-0.5,0.2-4.3,1.7-5.2,2c-0.7,0.3-6.3,1-7.5,1.5c-1.2,0.5-6.7,2-7.5,2.3  c-1,0.3-5.5,1.2-6.5,1.2c-1,0-6.2-0.3-6.3-0.3c-0.1,0-1.2,1-1.7,1.7s-2.2,1.3-3.3,1.3c-1.2,0-3.7,1.2-4.8,1.5  c-1.2,0.3-4.3-0.2-4.8-0.5c-0.5-0.3-0.7-1-2.7-1.3c-2-0.3-2.5-0.7-3.3-1c-1-0.3-2.5-0.3-2.9,0c-0.3,0.3-2,1-2.7,1.5  c-0.7,0.7-2.2,2-2.7,2.5c-0.5,0.7-2.2,1.8-2.7,2.7c-0.3,1-1.3,2.3-2,2.8c-0.7,0.7-1.2,0.8-2,0.5c-0.7-0.3-3.5-2-5.5-1.5  s-3.7,0.7-4.2,0.7c-0.5,0-2.3-0.3-2.3-1.2c0-1-0.5-1.3,0.2-2.2c0.7-0.8,1.8-2,2.2-2.5c0.3-0.5-0.7-1-0.7-1.8c0-0.8-0.7-0.7-1.3-0.7  c-0.7,0-2,1.2-2.8,1.5c-0.7,0.3-3.3,0.5-3.8,0.5c-0.5,0-3.2-0.5-3.7-0.7c-0.5-0.2-1.8-1.2-2-0.8c-0.2,0.5-0.5,2-1.2,2.3  c-0.7,0.3-2.5,0.2-3.7,0.5c-1.2,0.2-2.3,0.8-2.9,1c-0.7,0.2-3.2,0.2-3.7,0c-0.3,0-3.2-0.7-3.7-0.5c-0.5,0.2-2.7,2-3.2,2.5  c-0.3,0.5-1.8,1.5-2.3,2s-1.2,1-0.7,2c0.5,0.8,0.7,2.8,0,3.5c-0.8,0.7-3.5,1.5-4.7,1.7c-1.2,0.2-3.2-0.3-3.7,0  c-0.5,0.3-0.5,2.3,0.2,3.5c0.7,1.1,2,3.3,2.5,4.3s0.2,1.7-0.2,2.2c-0.3,0.3-1.7,1-2.7,1.2c-1,0.2-2.8,0.7-2.9,1.7  c0,0.8,0.8,2.9,1.5,3.5c0.7,0.5,1.5,1.5,2.2,2.2c0.5,0.7,1.3,0.7,2.5,0.3c1.2-0.3,2.3-1,3.3-1c0.9,0,2.7,0.5,4.7,2  c2,1.5,3.3,2.5,4,3.2c0.7,0.7,1.3,1.2,1,2c-0.3,0.7-1.5,2.2-1.8,2.5c-0.3,0.3-0.7,1.7-0.7,2.8c0.2,1.2,0.3,2.3,0,3.5  c-0.3,1-0.8,2.8-1.3,3.8c-0.5,1-1.7,4.3-1.3,5c0.3,0.7,1.2,2.2,1.7,2.9c0.5,0.8,0.7,1.8,0.2,2.5c-0.5,0.7-2.5,1.5-3.7,1.3  c-1-0.2-3.2-1.2-4.3-1.5c-1.3-0.3-3.8-0.7-4-0.2c-0.2,0.5,0.5,3.2,1.2,3.7s2.9,1.3,3.7,1.5s1.3,0.5,2.3,0.8c1.2,0.5,4.3,0.7,4.5,1.3  c0.3,0.5,1.5,2.7,1.5,2.9s0.2,0.7,0.3,1.7c0.2,1,0.7,4,1.3,4.3c0.7,0.2,1.5-2.3,2.5-2.2c1,0.2,2,0.8,2.3,1.5c0.3,0.7,2,3.2,2,3.8  c0.2,0.7,0.2,2.2-0.2,2.8c-0.3,0.7-1.8,4-2.7,4.3c-0.8,0.3-1.7,0.8-1.7,1.7c0,1,0.7,1.5,1.7,1.8c0.8,0.3,1.7,1.3,1.3,2  c-0.3,0.7-1.2,2.5-0.3,2.7c0.8,0.3,1.3,0,2.5,0c1.2,0,2.5-0.2,2.9,0.2c0.5,0.3,1.5,1,1.5,1.8c0.2,0.8,1.2,2.9,1.7,3.5  c0.5,0.7,3.5,3.8,5.5,4.2c2,0.5,4.8,2.7,5.5,2.9c0.7,0.3,4.5,0.8,5.3,0.8c0.8,0,5.2,0.2,5.5,0.7c0.3,0.5,0.3,1.5,0,1.8  c-0.3,0.3-2.5,0.5-2.7,1.3c-0.2,0.7,0.5,4.8,0.8,5.8c0.3,1,0.7,2.5,0.5,3.3c-0.2,1-0.8,4-0.5,4.8c0.3,1,5.8,4.8,6.5,5.5  c0.7,0.8,3.3,2,3.3,2.9c0,0.3,0.7,1,0.7,1.3s0.2,0.7,1.2,0.5c0.8-0.2,3.5-0.3,5.2,0c0.3,0,2.3,0,2.8,0c0.5,0.2,3.3,1,4,1.2  c0.8,0.2,0.7,1.3,3.3-1.2c0.3-0.3,2-4.2,2.2-5c0.2-0.7,1-1.5,1.3-1.8c0.5-0.3,5.2-2.8,5.5-3.5c0.3-0.5,3.7-3.2,4.3-3.5  c0.7-0.3,3.5-0.5,4-0.2c0.5,0.3,2.7,2.2,3.2,2.2c0.4,0,2.9,0.5,3.8,0.3c0.8-0.2,6,0.7,6.8,1c0.8,0.3,1.8,1.5,2.5,2  c0.5,0.5,1.5,2.2,3.5,1.8c2.2-0.3,2.8-0.5,3.7-0.8s5-1.5,5.5-2c0.5-0.3,2.7-1,2.9-1.5c0.2-0.5,0.8-1.5,2-1.7c1-0.2,3.8,0.7,4.2,0.8  c0.5,0.2,4.3,1,4.5,1.5c0.2,0.5,1,1.2,1,1.7s-0.2,2.5,0.2,2.9c0.5,0.5,5,2.8,5.5,3.2c1.8,1,6.7,1.5,7.5,1.2c0.8-0.3,1.5-0.3,2.2-0.2  c0.7,0,4.3,1,4.8,1c0.5,0,1.8,0.2,2.5-0.2c0.7-0.3,2.8-1.3,3.7-1.5c0.9-0.2,2.8,0,3.3,0c0.5,0,5-0.3,5.5-0.7  c0.5-0.2,2.3-0.2,3.2-0.3c0.8-0.2,2.9-0.8,3.8-0.5s3.5,1.2,3.8,1.3c0.3,0.2,3.5,0.5,4,0.5c0.3,0,2.8-0.8,3.5-1  c0.7-0.2,2.2-0.7,2.5-1.2c0.3-0.5,1.7-2,2-2.5c0.3-0.5,2.2-2,2.7-2.2s4.5-1,5.2-0.8c0.7,0,6.2-0.2,7,0s4-0.2,5-0.5  c1-0.3,3.3-1,3.8-0.7s3.7,1.5,4.5,1.5c0.8,0.2,3.8,0.5,4.8,0.5c1,0,6,0.2,6.8,0.2c1,0,3.2,0.5,3.8,0.8c0.7,0.3,3.8,2.3,4.2,2.7  c0.3,0.2,5.7,2.8,7.2,2.9c1.3,0.2,4.3,2,4.8,2.3c0.5,0.3,5.5,2,6.5,1.3c1-0.7,3.5-0.8,4-0.8c0.5,0,2.5,1,3.3,1.5  c0.7,0.5,2.8,1.5,3.7,1.7s4.3,1.3,4.8,1.5c0.5,0.2,3.2,0.7,4.3,0s1.3-1.7,1.5-2.2c0-0.5,0-4-0.2-4.5c-0.2-0.7-1-1.7-2-2.5  c-1-0.8-2.7-2.2-2.9-3.5c-0.3-1.3,0.3-2,0.7-2.5c0.3-0.5,3.8-1.3,4.7-1.7c0.8-0.3,4.5-0.8,5.2-2.3c0.7-1.5,0.3-2.9,0-4.2  s-1.5-4-2-4.5c-0.5-0.7-2-1.7-3.7-3.2c-1.7-1.5-3.3-2.2-4.3-2.9c-0.8-1-1.2-3.8-0.8-4.5c0.3-0.8,1-2.9,1-3.3s0.3-2.8,0-3.5  c-0.2-0.7-0.2-1.5-1.3-0.8c-1.5,0-2.8,0.8-3.3,0.7c-0.5-0.2-0.7-1.2-0.7-2.3c0-1.1-0.2-2,0.5-2.2c0.5-0.2,0-0.5,1.7-0.5  c1.5,0,2.9,0.3,3.7,0c0.5-0.2,1.2-0.8,1.3-1.3c0.2-0.3,1-1,1.7-1.2c0.7-0.2,2.3-0.2,2.8-0.2c0.5,0,3.2,0.5,4.5,0.3  c1.3-0.2,3.3-0.2,4.7-0.5c1.5-0.3,6.2-1.3,7.5-1.5c1.3-0.2,7.3-0.7,8-0.8c0.7-0.2,3.2-1,3.8-1c0.7-0.2,1.8-0.7,1.3-1.7  c-0.2-0.7,0.7-2.7,0.8-2.9c0.2-0.3,4.8-5.5,5.3-6.5c0.3-1,1.5-4.3,1.7-5.3c0.2-1,2-4.8,2.3-5.5c0.5-0.7,1.5-2.5,1.7-3.2  c0.2-0.7,1-2.8,1.2-3.3c0-0.5,1.7-2.2,2-2.3c0.5,0,3.5-0.2,4.5,0c0.8,0.2,3.3,0.5,4.2,0.3c1.2,0,3.2,0.2,4.8-1.3  c1.3-1.5,1.3-4,1.7-4.5c0.3-0.5,2.3-2.8,2.8-3.3c0.5-0.5,5.2-4.3,5.7-4.7c0.5-0.3,3.7-2.3,4.3-2.5c0.7-0.2,3.2,0.8,3.8,0.3  c1.8-0.5,1.2-1,2-1.3s2.9-2.5,3.5-2.5s1.5,0.2,2,0.8c0.5,0.7,1.5,2.3,1.7,2.3s1.3-1.8,2-2.7c0.5-0.8,1.2-1.3,2.2-1.7  c1-0.3,4-0.5,4.8-0.8c0.8-0.3,4.8-0.8,5.2-1.5c0.4-0.7,0.8-1.8,0.8-2.5c0.2-0.7,0.3-1.2,0.8-1.5c0.5-0.5,0.8,0.2,0.7-1.2  c-0.2-1.2-0.3-1.5-0.7-2.2c-0.3-0.7-1.5-1.8-1.7-2.7c0-0.8-0.2-2.2,0.2-2.7c0.3-0.5,1.7-1,2.3-1.2c0.7-0.2,2.2-0.8,2.3-1  c0.2-0.2,1.2-1.8,1.2-1.8L403.5,240z" stroke="#FFFFFF" name="新疆维吾尔自治区" stroke-miterlimit="10"/>
<path fill="#E3E3E4" stroke-linejoin="round" id="path1" d="M481.7,436.1  c0,0-0.3-1.7-0.8-2.5c-0.5-0.8-2-2-2.9-1.5c-0.5-0.3-0.5-0.2-1,1c-0.5,1-1.5,1.3-2.2,1.2c-0.7-0.2-1.7,0-1.8-1c-0.2-1,0-2-0.5-3.3  c-0.5-1.5-2.2-2.7-3.2-3.5c-1-0.8-3.2-2.7-3.5-3.8c-0.3-1.2-0.7-2.3-0.5-3.2c0.2-0.7,0.7-0.5,1.5-0.7c0.8-0.2,2.7-0.7,4.8,0  c2,0.5,3.7,2,5.2,2.3c0.7,0.2,2.8,1,4.7,1.3c2.3,0.7,5.8,0.3,7.8-0.7s3.7-2.3,4.4-3.3c0.8-0.5-0.2-1.8-0.5-2.2  c-0.5-0.3-0.8-1-2.3-1.3c-2.9-0.6-4.4-2.1-4.2-3.6c0.2-1.5,0.4-2.7,1.3-3.5c0.8-0.7,2.2-1.9,2.9-2.1c0.7-0.3,3.6-2.3,3.9-3  c0.3-0.7,0.2-1.8,0-2.5c-0.2-0.7-1.2-1.8-1.1-2.3c0.2-0.5,0.5-1.1,1.5-1.7c1-0.5,4.5-1.3,5.7-2c1.2-0.5,2.2-0.8,2.3-2  c0.2-1.2,0-2.7,0.5-3.8c0.3-1.3,1.3-1.8,1.8-2.3c0.5-0.5,1.7-3.2,1.7-4.2s-1-2.2-1.5-2.5c-0.5-0.5-2-1.8-2-2.9  c-0.2-1.2-0.5-2-0.7-2.5c-0.3-0.5,0-1.7,0.2-2.5c0.3-1.3,0-1.5-0.3-2.2c-0.3-0.7-1.2-2.8-1.8-4.2c-0.6-1.4-4.5-7.8-5-8.3  c-0.5-0.5-2.7-2.3-2.9-2.9c-0.3-0.8-0.7-2.2-1.2-3.2c-0.5-1-1.5-1-1.8-0.8c-0.3,0.2-2,2-2.5,2.3c-0.5,0.3-2-0.7-2.9-1.5  c-1-1-5.2-4-6.2-4.7c-1-0.7-2.9-2.3-4.2-2.8c-1.2-0.5-2.8-1-4-1.8c-1.2-1-3.5-2.8-4.7-3.8c-1.2-0.8-3.7-3.7-4.7-3.8  c-1-0.3-2.3-1.3-2.9-1c-0.7,0.3-0.5,1.2-0.3,2.2s-0.7,1.3-1.3,1c-0.5-0.3-2.3-1.5-3.7-2.5c-1.3-1-2.8-1.8-3.7-3.3  c-1-1.5-4.2-4-4.7-5.2c-0.5-1.2-2.9-2.9-4.3-4c-1.5-1-2.3-1-3.3-1c-1,0-2,1.3-2.7,1.5c-0.7,0.2-1.8-0.3-2.2-0.7  c-0.2-0.5-1.3-1.2-2-0.7c-0.7,0.5-2.2,2.2-2.7,2.5c-0.5,0.3-1.2,1.5-2.3,1.5c-1.2-0.2-2.9-0.5-4.2-1.8c-1.3-1.3-1.8-1.8-3.5-2.9  c-1.5-1.2-4.7-2.9-5-3.3c-0.5-0.2-3.3-1-4.2-0.8c-0.8,0.2-1.3,0.7-1.5,1.5c-0.2,0.8-0.2,4.2-0.2,4.8c0,0.6,0.7,3.3,0.3,4.5  c-0.3,1.2-0.3,2.5-0.8,2.7s-2.2-1-2.9-1c-0.8,0-1-0.5-1.5,0.8c-1.8,2.5-1.2,5-1.7,5.7c-0.5,0.7-1.5,0.7-2,0.3  c-0.5-0.2-1.3-1.5-2.5-0.5c-0.3,0.3-2.3,1.5-2.9,1.2c-0.7-0.2-3.3-1.5-3.8-2c-0.7-0.5-2.5-2-2.8-2.2c-0.2-0.2-2.3-1-3.7,0.3  c-0.8,0.2-3.8,0.7-4.5,0.5c-0.7-0.2-2.5-1.5-2.9-1.8c-0.7-0.3-2.2-1.5-2.9-1.7c-1.2-0.2-1.8,0-2.9,0.3s-1.5,0.3-2.8,0  c-1.2-0.5-2-1.2-2.3-2c-0.3-0.8-0.7-1.2-0.8-2.3c0-1.2-0.3-2.3-0.8-2.9c-0.5-0.8-2.8-1.2-3.7-1.2c-0.8,0-2.5-0.2-4-0.5  c-1.4-0.3-1.8,0-2.3-0.7c-0.7-0.5-0.7-1-0.5-1c0.2-0.2,0.5,0,0.7-0.5c0.2-0.5,0.2-1-0.3-1.3c-0.5-0.3-0.3-0.2-1.5-0.7  c-1.2-0.3-2.2,0-3.5-0.3s-2.9-0.2-3.3-1c-0.5-1-0.8-1.3-1-2c-0.2-0.7-0.8-2.5-1.8-2.8c-1-0.2-2.9-0.3-3.5-0.3c-0.5,0-4.2,0-5.5,0.2  s-2.3,0.3-2.5,0.5c-0.3,0.3-1.2,0.8-1.8,1.2c-0.8,0.3-3.8,0.8-4.3,1c-0.5,0.2-2.9-0.1-3.4,0c-0.5,0.1-8.2,1-8.9,1.5  c-0.8,0.3-4.5,0.7-5.7,0.8c-1.3,0.2-3.8,0-4.2,0c-0.3,0-4,0-4.3,0.2c-0.3,0.2-1,1.3-1.3,1.7c-0.5,0.3-3.3,0.8-3.8,0.7  c-0.7,0-2.5,0.3-2.8,0.3s-0.8,1.3-0.7,2.5c0.2,1.2,0.8,2.7,1.7,2.3c0.9-0.4,1-0.7,2.3-0.8c1.3-0.3,1.5,0.8,1.5,1.3  c0,0.5,0.2,2.8-0.3,4c-0.5,1-1.3,2.5-1.3,3.3c0,0.8,0.8,4,2.3,5s4.3,3.2,5,3.8c0.7,0.5,2.2,2.5,2.3,3.2c0.2,0.5,1.3,3.2,1.8,4.2  c0.5,0.8,0.5,2.5-0.3,3.2c-0.8,0.7-2,1.3-2.8,1.8c-1,0.3-2.8,1-3.5,0.8c-0.7-0.3-1.7-0.2-2.3,0.7c-0.6,0.9-1.7,1.8-1.5,2.9  c0.2,1.2,1.7,2.5,2.2,2.9c0.5,0.5,2.8,2,2.8,2.8c0,0.8,0.3,2.2,0.2,3.7c-0.3,1.5-0.5,2.8-0.8,3.2c-0.5,0.3-2.3,0.3-3.3,0.5  c-1,0.2-2.7-0.8-3.3-1.2c-0.7-0.3-3.7-1.2-4.5-1.5c-0.3-0.2-2.8-1.3-3.5-1.7c-0.7-0.3-2-1-3.3-0.7c-1.3,0.3-2.3,0.7-2.9,0.7  c-0.7,0-2.2,0-2.9,0.3c-0.8,0.2-2.5,1.2-3.5,1.2c-0.9,0-2.9,0.7-2.3,1.7c0.5,1,2.7,1.7,3.3,2c0.7,0.2,3.7,1,3.3,1.7  c-0.3,0.7-1,1.5-1.5,2.2c-0.3,0.8-0.7,3.3-1,4c-0.3,0.8-1.7,1.3-2.2,1.8s-2.8,1.5-3.3,2.2c-0.5,0.7,0.3,2.3,0.5,2.9  c0.2,0.5,0.8,2.8,0.7,3.5c-0.2,0.5,1,1.7,1.8,2c0.8,0.3,2.3,0.7,2.2,0.8c-0.2,0.3-0.7,1.2-0.8,1.8c-0.2,0.7-1.3,2.5-1,2.9s0,1.2,0,2  c0,0.8-0.2,2.7,0.5,3.2c0.7,0.5,1.3,1.2,1,1.7c-0.2,0.5-0.8,1-1.2,1.5c-0.3,0.5-3.2,1.5-3.5,1.7c-0.3,0.2-1.7,1.3-1.7,1.8  c0,0.3,2.3,2.8,2.8,2.9c0.7,0.2,1.7,1,1.8,1.7c0.2,0.7-0.3,2.7,0,3.2c0.3,0.3,2.2,4.2,2.7,4.7c0.5,0.5,2.8,3.7,3.3,4.2  c0.4,0.5,4.8,3.3,5.5,3.3c0.5,0,2.5,0.5,2.8,0.5c0.5-0.3,1.7-1.3,2-1.3s3.8,0,4.3,0c0.5,0,1.5,0.2,2.2-0.2c0.7-0.3,2.3,0.2,2.5,0.5  c0.2,0.2,0.2,1.5,0.5,2c0.3,0.5,1.5,1.8,2,2.5s4.3,3.8,4.8,4.2c0.5,0.3,2.2,1.3,2.7,1.3c0.5,0.2,1.2,0.7,1.7,0.8  c0.7,0.2,1.8,0.7,2.3,1.2c0.5,0.5,4,1,4.5,1c0.5-0.2,1.3-0.3,2.3,0c1,0.3,2.5,0.3,2.9,0.7c0.5,0.2,2.3,1,2.8,1  c0.3,0,2.2,0.7,2.8,1.2c0.6,0.5,1.8,1.3,2.5,1.3c0.5,0,2.7,1.3,3.2,1.3c0.5,0,3.5,1,3.7,0.8c0.2,0,1.3,0.5,2,1.2  c0.7,0.5,2.8,2,3.3,2.2c0.5,0.3,3.5-0.2,3.5-0.3c0-0.2,4.2-1.3,4.8-1.5c0.7-0.2,2.5-1.7,3.3-2c0.8-0.3,2.8,0.8,2.8,0.8  c0,0.2,1.7,2.5,1.8,3.2c0.2,0.7,2.2,3.8,2.3,4c0.2,0.2,1.2,1.3,4,1.3c0.5,0,3.2,0.5,3.2,0.7s0.2,2.2,0,3.3s0.3,1.3,0.3,2.3  s0.3,1.7,0.3,1.8c0.2,0.2,2.5,1.7,2.9,1.8c0.5,0.1,5,1.5,5.5,1.8c0.5,0.2,4,1.7,4.3,1.7c0.3,0.2,1.7-0.5,1.8-1  c0.1-0.5,0.2-1.8,0.5-2.7c0.3-0.8,0-0.7,0.3-0.5c0.3,0.2,2,0.8,2.5,1.3c0.5,0.7,3.3,2.3,4,2.7c0.7,0.3,2.5,1,2.9,1  c0.3,0,0.7-1.5,0.7-1.8s-0.5-1.8-0.5-2.9c0-1,0.5-1.3,0.7-1.7c0.2-0.3,0.7-0.7,0.8-0.7c0.1,0,4.5-0.3,5-0.5c0.5-0.3,0.8-1,1.5-1.5  c0.5-0.5,1.7-0.3,2.5-1.2c0.7-0.7,2.3-3.7,2.3-4.3c0.2-0.8,0.7-0.7,1.2-0.7c0.3-0.2,0.7-1,2-0.8s5.7,1.5,6.5,2.2  c0.8,0.5,4.8,2.5,5,2.5c0.3,0-2-2.5-2.7-2.8c-0.2-0.2-6.7-3.2-7.2-3.3c-0.5-0.2-3.3-2.5-3.5-3.3c-0.2-0.7-0.3-1.5-0.8-2.5  c-0.5-1-1-2.5-1-2.5s0.7-0.3,1.3-0.7c0.5-0.3,2.7-2.2,3.2-3.3c0.5-1.3,2-1.8,2.8-2.7c0.8-0.8,1.3-1.7,1.3-1.7s-1.8-1-2.2-1.3  c-0.3-0.3-2.9-2.7-2.9-3.2c0-0.5-0.5-2.8-0.5-3.2s-1.3-0.7-1.3-1.3c0-0.7,1.3-1.5,1.8-1.5c0.5,0,2.7-0.7,3.2-0.8  c0.5-0.1,1.8-1.7,2-2.7s0.3-1.5,1-1.5c0.7-0.2,2,0,2.5-0.5c0.5-0.3,2.7,0.2,2.9,0.3c0.2,0.2,1.2,1.3,1.5,1.8  c0.3,0.7,2.8,0.7,3.2,0.7c0.3,0,1.5,0.2,1.8,0.8c0.3,0.7,0.8,2,1,3.2c0.3,1,1,3.7,1,3.8c0.2,0.2,1.8,3.7,2.3,4  c0.3,0.3,0.7,1.3,0.7,2.2s0.2,2.3,0.3,2.9c0.2,0.5,1.2,1.7,1.7,2c0.5,0.3,4.8,3.3,5.3,3.7c0.5,0.4,2.2,2.9,2.5,3.3s1.3,0.8,2.3,1.5  c0.8,0.7,3.2,1.5,3.7,2c0.5,0.3,2.2,1.8,2.3,1.3c0-0.5,0.8-2.9,1.2-3.7s0.7-1.2,1.3-1.3c0.8-0.2,2.7,0.5,2.8,1.2  c0.3,0.7,0,2.8,0.2,3.3c0.2,0.5,1.3,0.7,1.8,0.3c0.3-0.3,1.2-0.7,1.8-0.7c0.6,0,2.8,0,3.2,0.3c0.3,0.3,1,1,0.8,2.2  c-0.2,1.2-0.8,2.9-0.5,3.3c0.3,0.3,2,0.2,2.5-0.2c0.5-0.3,1.2-2,1.5-2.8c0.3-0.8,1.2-1.2,1.8-1.2c0.6,0,3.2,0,4.2,0s2.9,0.3,3.5-0.2  c0.3-0.5,0.7-2.3,0.3-2.9c-0.2-0.7-0.7-4.2-0.7-4.7s0.2-2.9,0.3-3.7c0.2-0.7,1-0.8,1.3-0.5c0.2,0.3,2.8,1.5,3.7,1.7  c0.8,0.2,1.8,0.3,2.5,0.5c0.7,0.3,2.2,0.8,2,0.5c0-0.5-0.5-1.8-0.5-2.7c0-0.7,1-2.7,1.3-3.3C482,435.8,481.7,436.1,481.7,436.1z" stroke="#FFFFFF" name="青海省" stroke-miterlimit="10"/>
<path fill="#E3E3E4" stroke-linejoin="round" id="path2" d="M273.3,363.8  c-0.3,0.3-4.1,1.8-5.9,2.1s-0.8,2-0.3,2.3c0.5,0.3,2,0.8,2.8,1s2.3,0.5,2.8,1.3c0.5,0.8-0.7,1.2-1.5,2.7c-0.8,1.5-0.7,2.3-1,3.8  c-0.2,1.5-2.8,2.3-4,2.8c-1.2,0.7-1.7,0.7-1.5,2.7c0.2,2,0.8,1,0.8,2.5c0,1.5,1.5,3.7,2.5,4.2c1,0.5,1.7,0.5,1.8,1.2  c0.2,0.7,0,1-0.7,2.3c-0.7,1.3-1,4.8-1,5.8s1.7,3.2,1.8,3.8c0.3,0.7-2.3,2.5-3.5,2.8c-1.2,0.5-2,0.7-2.9,1.8  c-0.8,1.2,3.3,3.5,4.2,4.2c0.8,0.8,0.7,2.2,0.7,3.5c0,1.3,1.7,2.7,2.5,4.3c0.8,1.7,3.2,4.2,3.7,4.7c0.5,0.5,4.2,2.9,6.2,3.7  c2.2,0.7,2.2-0.5,3.3-0.8c1.2-0.5,4.5-0.2,7.5-0.2c2.9-0.2,1.8,0.8,2.5,2c0.5,1.2,3.3,3.7,4.5,4.8s3.8,2.8,4.7,3.2  c0.8,0.3,4,1.8,5.2,2.5c1,0.7,4,0.5,5.7,0.5c1.7-0.2,2.5,1,3.2,1.3c0.8,0.2,2.2,0.2,4.2,0.8c2,0.7,2.7,1.7,3.7,2s2,0.8,2.7,1  c0.7,0.3,2.7,1,3.7,1c1,0,2.5,0.5,3.5,1.7c1,1.2,2,1.5,3.8,1.8c1.7,0.3,5.8-1.3,6.8-1.8s4.8-1.5,5.5-1.7c0.7-0.2,1.2,1.3,1.8,2.2  c0.7,1,3.2,4.5,3.8,5.8c0.6,1.3,1.7,0.8,3.8,1c2,0.2,2.2,0.3,2.9,1c0.7,0.7,0.5,5,0.3,6.2c0,1,1.3,1.8,3.3,2.9c2,1,5,1.5,6.2,2.3  c1,0.8,4.5,0.8,5.2,0.5c0.7-0.3,0-2.5,0.5-3.3c0.5-0.8,1.8-0.2,2.5,0.5c0.7,0.5,5.3,4,7.2,4.8c1.7,0.8,1-2.2,0.8-4.8  c-0.2-2.7,1-2.3,1.8-2.8c1-0.5,4.5-0.3,5-0.7c0.5-0.3,3.7-2.3,4.5-3.7c1-1.5,0.8-2.9,1.7-3.5c0.8-0.5,6.3-0.5,7.6,0.3  c1.3,0.8,2.9,1.9,4.5,2.4c1.3,0.3,2.5,1.6,3.3,2.9c0.8,1.3,1.3,2.8,1.5,4.5c0.2,1.8,2,4.2,2.5,4.7c0.5,0.5,4.8,4.2,5.3,6.5  c-0.3,1.7-2.5,2.2-3.2,2.2c-0.7-0.2-2.3-0.5-2.3,1c-0.2,1.5,2,4.5,2.5,6.2c0.5,1.7,2.5,2.9,2.3,3.2s0,3.7,0,5.3  c0,1.6,0.3,5.2,1.2,7.3c0.5,3.2,0.2,5-0.7,6.3c-0.9,1.3-0.5,2.3-0.5,4.5c0,2,1,4.8,1,6.3c0,1.7-1.8,1.7-2.3,2.7  c-0.3,0.7-0.7,2.8-0.8,4.2c-0.2,1.5-0.3,2.7-0.5,3.2c-0.3,1.2-1.2,2-2.2-0.2c-0.2-0.7-1.7-2-2.3-2c-0.7-0.2-1.5,0.3-1.5,1.7  c0,1.4-0.2,3.5,0,5.5c0.3,1.8,1.7,4.2,1.5,5.2c0,1,0.2,2-0.5,2.5c-0.7,0.5-2.8,0.7-3.7,0.8c-0.8,0.1-3.2-2-4.5-3.2s-2.2-0.7-3.7,0.5  c-1.4,1.2-2.2,1-2.2,1s0,0.8,0-0.2c0-1-0.3-1.8-0.8-2.7c-0.3-0.8-1.3-0.3-2.2,0c-0.7,0.3-1.2-0.8-1.3-1.5c-0.2-0.7-1.5-2.2-2-2.2  c-0.5-0.2-2,0-2.3,1c-0.3,1.2-2,2.7-2.5,2.8c-0.3,0.2-1.8,1-2.5,1.8c-0.7,0.8,1.2,2.3,1.3,2.7c0.2,0.5-0.3,2.3-1.2,2.7  c-0.8,0.3-1.8,0.3-2.8,1.2c-1,0.8-2.3,0.8-3.3,0.5c-1-0.3-5-2.8-5.8-3.7c-0.8-0.8-7.3-3.5-9.2-5c-2-1.5-7.8-1.8-9.7-2  c-1.9-0.2-6,2-6.8,2.9c-0.8,1-4.8,2.9-5.8,3.7s-5.3,2.5-6.7,3.3c-1.3,1-6,1.5-7.2,1.5c-1,0-4,0.5-5.2,1c-1.2,0.5-3.7,2-4.7,2.9  c-1,1-2.3,4.3-2.3,5.2c-0.2,0.8-0.8,1-1.7,1.2c-0.7,0.2-3.3,0.2-4.5,0.8c-1.2,0.7-6.2,0.2-7.3,0c-1.2-0.2-7-0.3-8.3-0.3  s-9.7-0.7-10.7-0.8c-1-0.2-4.5-1.8-4.7-2.3c-0.2-0.5-0.3-3.5-0.2-4.5c0-1,2.3-2.2,2.8-2.5c0.5-0.3,0-1.5-0.3-4  c-0.3-2.3-3.8-2-5.7-1.8c-1.9,0.2-3.2-0.7-3.2-1.2c-0.2-0.5-0.2-4.7,0-5.8c0.2-1.2-2.2-2.7-3.2-2.9c-1-0.3-3.3,0-4.7,0.5  c-1.3,0.5-2.9-0.7-3.5-1c-0.5-0.3-4.8-2.7-5.8-2.9c-1-0.3-5.2-1.7-6-2c-0.8-0.3-2.3-2.8-2.9-3.2c-0.7-0.4-2.5,0.7-3.7,0.8  c-1.2,0.2-7.2-0.8-7.8-1s-6.5,5.3-7.5,6.3c-1,1.2-2,1.2-2.9,2c-1,0.8-0.3,3.7-0.3,4.8c0,1.2-2.2,2.9-2.5,3.3c-0.5,0.2-3.8,0.2-4.2-1  c-0.5-1.3-1.2-3.7-1.3-5.3s2-4.2,2.9-6.5c0.9-2.3-0.5-3.7-1.2-4.2c-0.7-0.5-4,0-6.7,0.3c-2.7,0.5-2.5,0.7-3.5,1  c-1,0.2-3.3-0.5-5.3-0.3c-2,0.2-3.3,0.3-5.5,0c-2.2-0.3-5.7-0.2-6.8,0c-1.2,0.2-8.7-5-10-6c-1.2-1-0.5-1.8-1.3-2  c-1.3-0.2-4.5,0.8-5.3,1.7c-0.8,0.7-1.5,1.2-2.3,1.2c-1,0-2.3-4.2-2.9-5c-0.6-0.8-1.2,0-1.5,1.8c-0.5,1.8-1.7,2-2,1.7  c-0.3-0.5-2.3-5.2-2.5-6.2c-0.3-1-0.3-2.3-1-2.7c-0.7-0.5-0.8,0-1.7,0.2c-0.8,0-3.5-0.7-4.5-0.7s-3.8-0.5-4.7-0.8  c-0.7-0.5-0.2-2.3,0-3.3c0.3-1,0.8-2,0.7-2.5c-0.2-0.7-2-1.7-2.7-1.8s-3.5,0.5-3.8,0.7c-0.3,0.2-2.3-1.8-2.9-2.2  c-0.7-0.4-3.8-3.8-4.5-4.3c-0.7-0.3-1.7-2-1.8-2.7c-0.3-0.5-0.3-2.8-0.2-3.7c0.2-0.8-0.2-2.5-0.5-2.9c-0.3-0.5-2.9-1.5-4.8-1.2  c-2,0.3-4.8,0.5-5.8,0.8c-1,0.2-1.7-2-2-2.7c-0.3-0.8-1-4.3-1.2-4.8c-0.2-0.5-2.9-2.3-3.8-2.9c-0.8-0.7-4.7-1.8-5-2  c-0.3-0.3-2.5-3.3-3.2-4.5s-2.2-2.7-2.7-2.9c-0.3-0.3-3.5-2.8-3.5-3.5c0-0.7-1.5-4.5-2.2-5.7c-0.7-1.2-4.3-2.2-5-2.5  c-0.7-0.3-5.7-0.8-5.8-0.7c-0.3,0.2-2.5,2-3.5,4.3c-1,2.3-2.5,1.3-3.2,0.8c-0.7-0.5-3.7-5.3-4-6s-5-3.8-6-4.8  c-1.2-1-7.3-5.3-7.7-5.8c-0.5-0.5-3.3-5-3.3-5.5c0-0.5-2.8-2.7-3.5-3.5c-0.8-0.8-3.3-0.8-4.2-0.3c-0.8,0.5-2.3,1-2.9,0.7  c-0.7-0.3-1.8-1.7-2.3-2.5c-0.5-0.8-1-3.5-1.5-4.5c-0.5-1-2-3.5-2.3-4.8c-0.3-1.3,0.5-1.3,0.8-2c0.5-0.7,0.8-2.3,0.7-2.8  c-0.2-0.5-1-1.7-0.8-2c0.2-0.3,2.2-2,2.5-2.5c0.5-0.5,0.2-2-0.5-2.2c-0.5-0.2-1.5-2.9-2.2-4.2s0.2-2.7,0.5-4.3  c0.3-1.7,1.3-2.2,1.7-2.8c0.3-0.7,3.2-1.7,3.8-1.7c0.7,0,2.3-0.2,2.5,0c0.2,0.2-0.7,0.8-1.3,1.5c-0.7,0.8-0.2,1,0.3,2.2  c0.5,1.2,0.8,2,1.5,2.9c0.7,1.2,2.2,1.2,3.3,1c1.2,0,2.7-2,3.2-2.5s1-2.5,1.3-3.8c0.3-1.3,0.2-3.8,0.5-5.3c0.3-1.5,0-3.2,0-3.8  c0-0.6-1.7-3.3-2.3-4.2c-0.5-0.8-2.8-5.2-2.5-5.8c0.3-0.7,1-2.3,1.3-2.7c0.3-0.3,1.7-0.8,1.8-1.3c0.2-0.7-1.7-3.5-2.3-4.7  c-0.7-1.2,0-2.2,1-2.5c1-0.3,5.2-1,5.8-1.3c0.7-0.2,1.8-1.5,1.8-1.5s2.8-0.3,4.2-0.3c1.3,0,3.2,0.3,5,0.5c1.7,0.2,3.7,1,4.3,1.3  c0.7,0.2,2.3-0.8,2.7-1.2c0.3-0.3,1.2-2.2,1.5-2.9c0.3-0.8,1-2.5,1.5-3.3c0.5-0.8,2.8-1.8,3.2-2.2c0.5-0.3,3.2-2.3,3.8-2.9  c0.7-0.7,2.3-2.2,3.5-2.7c1.2-0.7,4.2-0.5,4.7,0c0.5,0.5,2.3,2,3.7,2.5c1.8-0.2,4-0.3,4.7-0.5c0.7,0,5,1.3,5.7,1.8  c0.7,0.3,2,2.2,2.7,2.7c0.7,0.5,1.5,1,2.5,1c1,0,2.7-0.7,2.9-0.8c0.3-0.2,3.2-1.5,4.5-1.7c1.3-0.2,1.5-0.2,2.2-0.3  c0.7-0.2,1.8-1,2.5-1.7c0.7-0.8,1.3-1.5,1.7-1.5c0.3-0.2,3.5,0.5,4.2,0.8c0.7,0.3,3.5,0.7,4,1s1.3,1,1.5,1.8c0.2,1,0.2,1.2,0.3,2.5  c0.2,1.3,1.7,1.3,2.5,2c0.8,0.7,3.2,1.7,4,2.2c0.8,0.3,4,1,5.2,0.8c1.2-0.2,2.8-0.7,3.3-0.5c1.3,0.5,3.7,0.8,5,1.2  c1.2,0.2,4.7-1.3,5.7-1.8c1.2-0.5,3.3-0.2,4.5-0.3c1.2-0.2,4.5-0.2,5.5-0.3c1-0.2,4.8-1,5.3-1.2s2.7,1,2.7,1s2.5,0.8,2.8,1.2  c1-0.2,3.5-0.2,4.5-0.5c1.2-0.3,3.7-1,4.2-1.7c0.5-0.7,2.9-3.7,3.5-4.2c0.5-0.5,2.8-1.3,4.2-1.5c1.3-0.2,4.8-0.2,5.8-0.2  c1.2,0,5.8,0,7.2-0.3c1.3-0.3,4.2-1.3,4.8-1.3s2,1,2.7,1.3c0.7,0.3,6.3,1.3,7.5,1.3s6.2,0.2,7.3,0.2s3.3,0.7,4.5,1.7  c1.3,1,3.8,2.2,5,2.8c1.2,0.7,4,1.5,5,1.8c1,0.3,7.3,3.3,7.3,3.3L273.3,363.8z" stroke="#FFFFFF" name="西藏自治区" stroke-miterlimit="10"/>
<path fill="#E3E3E4" stroke-linejoin="round" id="path3" d="M533.3,615.9  c-0.5,0.3,0,1.9,0.4,3c0.3,1.3,1.7,3.5,2.2,4.3c0.5,0.7,1.3,1.2,1.8,0.8c0.5-0.3,0.5-1.5,1-1.8c0.5-1,2.3-0.5,2.8-0.3  c0.5,0.2,4.8,1.5,5.8,2c0.8,0.5,1.5,1.2,1.7,1.7c0.2,0.5,0,2.8,0.3,4c0.5,1.2,0.3,0.3,2.3,0.5s1.7,0,2.9,0.2  c1.2,0.2,1.8,0.2,3.2,0.2c1.4,0,1.7-0.3,2.5-0.2c0.7,0,2.7,0.2,3.7,0.2c1,0,3.3,0.2,3.7,0.3c0.3,0.2,1.5,0.8,1.5,2.7  c0.3,0.8,0.2,2,0.3,2.7c0,0.7-0.3,3.3-0.7,4.2c0,0.5-0.7,1-0.8,1.3c-0.2,0.3-2.2-0.2-2.5-0.2c-0.3,0-2.2,0-2.5,0.2  c-0.3,0.3-1.5,1-2,1.3c-0.3,0.3-2.9,0.7-3.5,0.8c-0.5,0.1-2.5,1.5-2.7,1.5s-1.3,0.7-1.3,0.7s-1.7-1.2-2.2-1.3c-0.5-0.1-2-0.3-2.7,0  s-3.7,1.7-4.8,2c-1.2,0.3-2.7,1.3-3.2,1.8c-0.5,0.5-0.3,2.2-0.3,2.3c0,0.2,1.2,1.2,0.8,1.7c-0.4,0.5-3.8,1.3-4.7,1.5  c-0.8,0.2-4.7,1.8-5.2,2.7c-0.5,0.7-2-0.5-2.2-0.7c-0.2-0.2-1.7-1.5-2-1.7c-0.3-0.2-2.5,0.7-2.9,1.8c-0.5,1.3-0.3,4.2-0.8,4.5  c-0.3,0.3-2-1-2.8-1.2c-0.8-0.2-2.2-1.5-2.7-1.7c-0.5-0.3-1.7-1-2-1.7c-0.3-0.7-2.2,0.2-2.3,0.5c-0.2,0.3-1.5,0.2-2,0  c-0.7-0.2-0.8-1-1.2-1.7c-0.3-0.5-1.2-0.2-2,0.2c-0.8,0.3-1.5,0.2-2,1c-0.3,0.8-1.2,2.3-1.5,2.8s-2,0.5-2.7,0.7  c-0.7,0.2-2.8-1-3.2-1.5c-0.3-0.7-3.5-2.2-3.8-2.5c-0.3-0.3-3.7-1.3-4.3-1.3c-0.6,0-1.8,2-2.3,2.3c-0.5,0.3-2.7,2.8-3.2,3.5  c-0.5,0.7-1.5,0.7-2,0.8c-0.5,0.2-2.7-0.2-4.2,0.2c-1.5,0.4-3.2-0.7-4.2-1.3c-1-0.7-1.8-0.5-2.3-0.5c-0.5,0-1.3,1.2-1.7,2  c-0.3,0.8-0.5,2.9-0.3,4.5c0.3,1.5,2,3.3,2.3,4.3c0.3,1,1.5,2.5,1.8,3.8c0.3,1.3-0.3,2.7-0.7,3.8c-0.3,1.2-0.2,2.5-0.2,3.5  c-0.2,0.8,0.7,3.2,0.8,3.7c0.2,0.5-1.5,0.7-2,0.7c-0.5,0-2.9-1.5-5-1.5s-2.7-0.3-3.5-0.3c-1,0-2.7-2.2-2.9-2.8  c-0.2-0.7-0.2-2.8,0-3.2c0.2-0.3,0.5-2.5,0.5-2.8c0-0.3-1-0.7-1.5-1.3c-0.5-0.5-1.2-0.2-2,0.3c-0.8,0.5-2.7,0.5-3.5,0.8  c-0.8,0.5-2,0.7-2.7,1.3c-0.7,0.5-1.3,0.8-2,1.3c-0.7,0.5-1.7,0.5-2.2,0.2c-0.5-0.2-3.2-1-4.2-1c-0.8,0-1.7-0.2-2.5-0.7  c-0.8-0.5-1-1.5-1.7-2c-0.7-0.5-2.2-0.8-2.7-1.5c-0.3-0.5-0.7-2-0.7-2s0-1.3,0.2-2c0-0.7,0-1.5,0-1.8c0-0.3-0.5-1-1.3-1.3  c-0.8-0.2-0.8,0.3-1.3,0.5c-0.5,0.3-2,0-2.5-0.2c-0.5-0.2-3.5-0.7-4.8-1c-1.3-0.3-2.8-0.5-4-0.7s-1.3-1.5-1.2-2.2  c0.2-0.5,1-2.5,1.2-2.8s1.7-2.8,2.2-3.8c0.5-0.8,1.3-4.2,1.5-4.7c0.2-0.3,2-1.5,2.9-2.2c1.2-0.7,1-1.5,0.7-2.2s-2.5-1.2-3.7-1.5  c-1.2-0.3-4.2-0.5-5.5-0.3c-1.3,0-2.9-0.5-3.5-0.8c-0.5-0.2-0.3-1.5-0.2-1.7c0-0.2,0.8-2.5,0.8-3.2c0-0.7-1.2-1.7-1.7-2  c-0.5-0.3-0.2-2,0.2-2.9c0.3-1-1-1.8-1.3-2.3c-0.3-0.5-1.8-2.3-1.7-2.9c0.2-0.5,0.7-1.5,2.2-2c1.5-0.5,2-1.2,2.2-1.5  c0.2-0.3-1-0.7-2-0.8c-0.8-0.2-2.5-0.2-3.5-0.2c-1.2,0-2.3-0.7-3.2-0.8c-0.8-0.2-2.8,0-3.7,0.5c-0.8,0.5-4,1.3-5.2,1.5  c-1.2,0.3-3.3,0.2-3.7,0.3c-0.5,0.2-2.5,1-2.8,1.3c-0.3,0.3-3.2-0.2-3.7-0.3c-0.5-0.1-0.7-1-0.8-1.3c-0.2-0.3,0.3-2,0.8-2.2  c0.3-0.2,1.7-0.8,2.7-1s1.5-1,1.8-1.7c0.2-0.7-1.3-2.5-1.8-2.8c-0.3-0.3-1.7-2.2-1.7-2.3c0-0.1,0.5-1.7,0.7-1.8  c0.2-0.3,0.5-1.7,0.8-2.5s0.5-1.2,1.5-1.5c1-0.2,2.7-0.2,2.9-0.8c0.3-0.7-1.3-2-1.5-2.8c-0.2-0.8-0.3-3.3,0-4c0.3-0.7,0.8-2,1.5-1.8  s2.7,0.7,3.7,0.2c1-0.5,2.8-2.8,3.3-3.7c0.5-0.8,0.2-1.8,1.5-2.3c1.2-0.5,1.8,0.8,3.2,0.3c1.3-0.5,2.5-1.2,2.7-1.5  c0.2-0.3,0.7-2,1.2-2.3c0.5-0.5,1-0.7,2.2-0.7s2.8,0.3,3.2-0.2c0.3-0.5-0.8-1.7-1.2-1.8c-0.3-0.2-1.3-0.7-1.7-1.5  c-0.3-0.8,0.2-2,0.3-2.3c0.2-0.3,2-0.7,2.3-1.5c0.3-0.8-0.2-3.2,0-3.8c0-0.7,0.7-2.7,1-3.5c0.3-0.8,0.3-2.5,0.5-3.3  c0.2-0.8-0.3-5.2-0.3-5.8c0-0.7-0.3-3.2-0.2-3.8c0.2-0.8-0.3-4-0.3-4.2c0-0.2-0.3-2.2-0.5-2.8c-0.2-0.5-1.3-1.5-1.7-1.7  c-0.3-0.2-1.5-0.2-2-0.2c-0.5,0.2-1,1-1.3,1.5c-0.3,0.5-1.5-0.3-1.8-0.7c-0.5-0.3-1-2.2-1.2-2.7c-0.2-0.5-1.2-3.9-1-4.7  c0.3-0.8,0.2-1.7-0.2-2.2c-0.2-0.5-1.3-0.7-1.2-1.2c0-0.5,0.8-1,0-1.8c-0.8-0.8-2-1.7-1.8-2c0.2-0.3,1.3-0.8,1.8-1.3  c0.5-0.5,1.5-1.3,2-1.3c0.5,0,1.5,0.5,1.8,0.8c0.5,0.3,2,1,2.2,1.5c0.3,0.5,1,1.2,1.5,1.3c0.5,0.2,2.3-0.3,2.7-0.5  c0.4-0.2,2-0.5,2.2-0.7c0.3-0.2,0.2-1.8,0-2.7c-0.2-0.8-0.7-2.7-1-3.2c-0.3-0.4-0.8-2.8-0.8-3.3c0-0.3,0.3-2.8,0.5-3.5  c0.3-0.7,0.7-1.7,1.3-1.7c0.5,0,2-0.7,2.8,2.3c0.3,0.5,0.8,1.3,1,1c1.3-0.8,1-2,1.2-2.3c0.2-0.5,0.2-2.9,0.3-3.8  c0.2-0.8,0.2-1.7,0.3-2c0.2-0.3,2.1-1.4,2.4-1.8c0.3-0.3,1.5-0.5,1.7-0.3c0.2,0.2,0.2,2.9,0.2,3.5s-0.3,2.7-0.3,3.5  c0,0.7-0.5,2-0.7,2.7c0,0.7,0.3,0.7,0.3,1.3c0,0.5,0.2,2.5,0.5,4c0.3,1.3,0.7,1.8,0.8,2.2c0.2,0.3,0.5,2.7,0.8,3.2  c0.3,0.5,0.8,1,1.2,1.5c0.4,0.5,1.7,1,1.7,0.8c0.2-0.7,0-2.3,0-2.8c0-0.5-0.2-1.7,0-2.5s1.5-0.7,2-1.2c0.5-0.5,1.3-0.8,1.7-1.3  c0.3-0.5,1.3-1.8,1.5-2.2c0.2-0.4,1.5,0.8,2.2,1.7c0.7,0.9,0.8,1.8,1.8,2.9c1,1.2,1.2-0.2,2.3,1c2.3,1.3,2,3.8,2.2,4.2  c0.2,0.5,0.3,2.7,0,2.9c-0.2,1.3-0.2,2.8-0.2,3.7c0,0.9,0.3,2,0.5,2.7c0.2,0.8,1,1.8,1.5,2.2c0.5,0.3,2.7,0.7,2.9,0.7  c0.5-0.2,2.7-1.2,3.2-1.5c0.7-0.5,2.2-0.7,2.7-0.5c0.5,0.2,2.5,2.8,2.9,3.7c0.5,0.7,1,2.3,1.3,3.7s1.2,2.3,1.5,3.2  c0.5,0.8,0.3,1.3,0.7,1.8c0.3,0.3,1.2,2,1.2,2.7c0.8,0.5,1.7,2.7,2,3.2c0.3,0.4,0.8,0.8,1.8,1.7c1,0.8,1,1.5,1.2,2  c0.2,0.5,0.7,0.5,1.3,1.2c0.7,0.5,0.8,1,0.8,2.2c0,1.2,0,1,0.3,2c0.3,1.2,1,1.8,1.3,2.3c0.3,0.5,0.8,1.3,0.5,2.5s0.3,0.8,0.5,1.3  s-0.2,0.3,0.8,0.7c0.8,0.3,1,0.8,1.3,1.5c0.2,0.8,1,1,1.8,1.2c0.8,0.2,2.5-0.3,3.3-0.5c0.8-0.2,2.9-0.5,3.7-0.8  c0.7-0.2,2.2-0.2,2.8-0.3c0.5-0.3,2.7-1.3,3.3-1.5c0.8-0.2,1.3,0.2,2,0.8c0.7,0.5,2.2,1.3,2.5,1.3s1.3-1.2,1.7-1.7  c0.7-0.8,1.3-2.8,1.7-3.5c0.5-1,1.2-2.9,1-3.7c0-0.7-0.5-2.5-1.2-2.9c-0.7-0.5-1.5-3.7-1.5-4.5s-0.2-3.5,0-4.2  c0.2-0.7,0.8-3.2,1-3.5c0.2-0.3,0.7-1.3,1.5-2c0.8-0.7,2.7-0.5,3.2-1c0.3-0.5,1.2-2,1.5-2.5c0.3-0.5,2.3-2.5,3.2-3.2  c0.8-0.7,0.8-2,1-2.2s1-0.5,1.2-1s0.7-2.7,1-3.2c0.2-0.5,0.7-1.7,1.2-1.8c0.5-0.2,2-0.2,2.7,0.3c0.7,0.3,0.7,0.2,1.2,0.2  c0.5,0,2.8-0.7,3.2-1.2c0.3-0.5,1.3-2,1-2.3c-0.3-0.3-1-3.2-1.2-3.8c-0.3-0.7,0.8,0.5,1.3,0.5c0.7,0,3.3-0.5,3.8-0.3  c0.5,0,4.2-0.5,4.7-0.5c0.5,0,0.5,1.7,0.5,2.2c0.2,0.5,0.7,2.2,0.8,2.7c0.3,1,0.8,2.3,0.7,3.2c-0.2,1-1.8,2-2.5,2.7  c-0.7,0.7,0.5,1,0.5,1.3c1.8,0.8,1.8,1.7,3.7,2c1.7,0.3,4,0,4.7-0.8c0.8-0.8,3.5-2.2,5-2.9c1.3-0.8,1.5-1,2.2-0.8  c0.5,0.2,1.8,2.7,2,4c0.2,1.3,1,4,1,4c0,0.3,0,0.5,0.2,0.7s-0.7,2-0.7,2.5s-0.5,2.3-0.5,2.8c-0.2,0.5-1,1-1.5,1.2  c-0.5,0.2-1.8-0.8-2.7-0.8c-0.8,0-2.9,1-3.7,1.3c-0.7,0.3-2.3,0.3-2.9,0.7c-0.7,0.5-2.8,0.8-4.5-1.8c-0.5-0.5-2.5-1.2-2.8-0.2  c-0.7-0.2-1.7,1.3-2,1.7c-0.5,0.3-2,0.5-2.5,0.3s-2-2-2.3-2.5c-0.3-0.3-2.3,1.5-2.9,2.2c-0.8,1-1.8,1.7-2.3,2.5  c-0.5,0.8-1.3,2-1.8,2.5c-0.5,0.5,0.2,0.7,0.8,1c0.7,0.3,1.3,0.7,1.5,1.2c0,0.5-1,1.7-1.5,2.3c-0.5,0.5,0,0.7,0,1.2s0.3,0.5,0.8,1  c0.7,0.5,0.5,1,0.7,1.3c0.2,0.3,0.8,2,1,2.3c0.2,0.3,0.8,0.5,2,0.7c1.2,0.2,1.5-0.7,2.3-1.2c0.7-0.5,1.5-0.8,2.8-1  c1.2-0.2,2.5-0.8,2.7-1c0.2,0,1.2-1.7,1.5-1.8c0.3-0.1,0.8,0.8,1,1.5c0.2,0.7,0.2,1,0.8,1.8c0.7,0.2,1.2,1,1.5,1.2  c0.3,0.2,1,2.3,1,3.2c0,0.9-0.7,2.8-0.8,3.2c-0.2,0.3-0.3,0.5-1.2,1.3c-0.8,0.8-0.5,0.7-0.7,1c0,0.5-0.3,2.3-0.5,2.9  s-1.2,1.8-1.5,2.3c-0.3,0.5-1.3,2.2-1.3,2.8c0,0.5,0.7,1,1.3,1.3c0.7,0.3,1.5,1.2,1.7,1.8c0.2,0.7,0.7,1.3,1.2,1.3  c0.5,0.2,2.3,1.2,2.5,1.3c0.2,0.3,1.3,1.7,1.8,2.7c1.7,0,1.5,1.5,1.8,1.8c-0.2,1-1.2,1-1.8,1.3c-0.7,0.3-0.7,0.8-0.7,1.8  c-0.2,1,1,1.3,0.5,2.5c0,0-1.5,1.5-1.7,1.8c-0.2,0.3-1.3,1.2-1.3,1.2L533.3,615.9z" stroke="#FFFFFF" name="云南省" stroke-miterlimit="10"/>
<path fill="#E3E3E4" stroke-linejoin="round" id="path4" d="M426.2,487.1  c-0.5-0.2-1.7-1.2-1.8-1.3c-0.2-0.2-1-1-1.3-2c-0.3-1-0.5-2.2-0.8-3.5c-0.3-1.3-0.5-2.9-0.2-3.2s2-0.3,2.5-0.2  c0.5,0.1,2.2-0.8,2.2-1.5c0-0.7-0.8-2.5-1.2-2.7c-0.3-0.2-2.5-3.2-2.8-3.8c-0.3-0.5-1.5,0-2-1.5c-0.5-1.5-0.7-2-0.8-2.9  c-0.1-1-2-3.8-2.2-4.7c-0.2-0.8-0.7-2.2-1.2-2.8c-0.5-0.7-2-1.8-2.8-2.3c-0.8-0.5-1.5-1-2.5-1.5c-1.2-0.5-3.2-1.3-3.7-1.7  c-0.5-0.3-3.2-1.8-3.3-2.3c-0.3-0.5-1-1-1-2.5c-0.3-0.7-1.3-2.2-1.3-2.3c0-0.5-0.7-1-0.2-1.3c0.5-0.3,2.2-0.8,2.9-1.8  c0.8-0.8,1.2-2.8,1.7-2.9c0.5-0.2,1.5-1,1.8-1.2s1.5-2.1,1.5-2.3c0-0.2-0.7-0.8-1.7-1s-2.2-2.4-2.7-3c-0.5-0.7-1-1.8-1-2.7  c0-0.7,0-1.1-0.4-1.5c-0.5-0.5-1.2-0.8-1-1.3c0.2-0.7,1-1.2,1.5-1.3c0.7-0.2,1.5-0.2,2.3-0.3c1-0.2,2-0.8,2.2-1.2  c0.2-0.5,0.8-0.7,0.8-1.5s-0.7-0.5,0.3-1.3s1.7-0.8,2.3-0.8c0.7-0.2,2.9-1,4,0.2c0.8,1.2,2,2,2.5,2.2c0.3,0.2,1.7,0.3,2.3,0.3  c0.6,0,1.3,0.3,1.5,0.7c0.2,0.2,1.2,1.2,1.2,2s-0.2,1.5,0.2,2.2c0.2,0.7,2,4.3,2.2,4.8c0.3,0.5,1.5,2,1.5,2.8  c0.2,0.7,0.3,2.8,0.2,3.2c0,0.3,1.2,2.2,2,2.7c0.7,0.5,2.5,1.5,3.7,2c1.1,0.5,3,2.9,4.2,4.4c1.2,1.5,2.8,2.8,3.2,2.9  c0.3,0.2,2.3,0.8,2.9,1.3c0.8,0.5,2,1.9,2.1,1.6c0.2-0.3,0.6-1.1,0.6-2.1s0.3-1.7,1-2.2c0.7-0.5,1.2-0.8,1.7-0.5  c0.5,0.3,1.8,0.3,2,1c0.2,0.5-0.1,1.9,0.1,2.5c-0.1,1.4,1.1,1.3,1.6,1.1c0.5,0,0.4,0,1.1-0.3c0.8-0.3,2.2-0.5,2.9-0.2  c0.7,0.3,2.2,1.2,2.2,1.7c0,0.5-1.2,3.6-0.7,3.9c0.5,0.3,2.2,0.2,2.6-0.2c0.3-0.3,0.8-1.2,1.2-1.8c0.3-0.8,0.7-2,1-2.2  c0.3-0.2,2.2-0.3,2.5-0.3s2.8-0.2,3.2,0c0.3,0,2.6,0.1,2.8-0.2c0.3-0.3,0.8-0.8,0.7-1.5c-0.2-0.7-0.7-3.2-0.8-3.7  c0-0.5-0.5-4.3-0.5-5c0-0.7,0.5-1.7,1-1.8c0.5,0,2.3,0.5,2.7,0.7c0.3,0.2,2.7,0.7,2.9,1c0.5,0.2,2.5,1.2,2.7,1.2  c0.3,0,0.5-0.2,0.3-0.8c0-0.5-0.3-1.2-0.3-2c0-1-0.5-0.5,0.2-1.7s0.8-1.3,1.2-1.7c0.2-0.5,1.3-1.8,1.5-2c0.2,0,2.3-0.3,2.7-0.2  c0.2,0.2,0.5,1.5,0.3,2.5c-0.2,0.8-1,2.2-1.2,2.8s-0.7,1.8-0.3,2.2c0.3,0.3,0.8,0.5,1.5,0c0.7-0.5,0.8-0.2,1.7-0.7  c0.8-0.5,0.8-1,1.3-1.2c0.5-0.2,0.8,0.8,1.3,1c0.5,0,1.2-0.2,1.5-0.5c0.3-0.3,0.5-0.2,0.8-0.7c0.3-0.5,0.8-0.7,1-1.5  c0.2-0.7,1.3-4.3,1.3-4.8c0-0.5-1.2-1.8-1.5-2.7c-0.3-0.7-0.5-1.8-0.5-2.5c0-0.7,1.2-0.5,1.3-1.2c0.2-0.7,0.2-0.8,0.5-1.7  c0.3-0.7,0.3-1.2,0.5-1.5s0.3-0.5,0.8-0.7c0.5-0.2,1.8-0.2,2.2-1c0.3-0.8,0.8-1,1.2-1.5c0.2-0.7-0.2-0.5,0.3-0.8  c0.5-0.3-0.3-0.2,1.5-0.3c2-0.2,2.2-0.2,3.7,0.2c1.3,0.3,2.2-0.7,2.8,0.8c0.7,1.3,0.2,2.2,0.3,2.7c0,0.3,0.3,2.2,0.3,2.3  c0,0.2,0.5,3.8,1,4.2c0.5,0.3,2.5,0.5,2.8,0.5c0.5-0.2,1.5-0.7,1.7-0.5c0.3,0,1.5,0.5,1.7,1c0.2,0.3,1.7,1.8,2,1.8  c0.3,0,2.7-0.3,2.9-0.5c0.3-0.2,1.8-1.5,3.3,0c0.3,0.7,1.7,2.5,1.8,2.8c0.1,0.3,0.8,1.5,1.5,1.8c0.7,0.5,2.5,1.5,2.8,1.8  c0.3,0.3,1.3,1.2,0.5,3.2c0,1,0.2,2.2,0.2,2.8c0,0.6-0.7,1.7-0.7,2.3c-0.2,0.8,0,1.7,0.5,2.2c0.5,0.5,2.2,1.7,2.8,2.3  c0.7,0.7,5.2,2,5.8,2.2c0.7,0.2,2.7,0.5,4,0.3c1.3,0,2.9-0.5,3.8-0.8s2.5-1,3.5-1.2c1-0.3,2.9,0,4-0.2c1-0.2,4.2-0.7,4.8-1  c0.7-0.3,0.7-0.8,1.7-0.3c1,0.5,2,1.5,2.5,1.8c0.5,0.5,1.3,0.8,2.5,1c1.2,0,4.7-0.8,4.8-1s3.7-0.8,4.3-0.7c0.7,0.3,2,0.2,3.2,0.7  c1.2,0.5,2.7,0.7,2.5,1.2c-0.2,0.5-0.3,0.8-0.2,1.7c0.3,0.7,1.3,1.3,2,1.2c0.7-0.2,2,0,2.8-0.3c0.7-0.3,1.2-0.5,1.7-0.2  c0.5,0.2,2.2,2.2,2.3,2.5c0.3,0.3,2,2,2.7,2.5c0.5,0.3,4,1.7,4.7,1.5c0.7-0.2,2.3-0.7,3.2-1c0.7-0.3,2.7-1,3.2-0.7  c0.5,0.5,2.3,0,2.5,1c0.3,1,0.2,2.5-0.2,3.2c-0.5,0.7-1.3,0.5-2,0.8c-0.5,0.5-0.8,1.3-0.2,1.8c0.7,0.5,3.7,2.2,4.2,2.9  c0.5,0.8,0.8,2,0.7,2.2c-0.2,0.2-1.2,0.5-1.8,1c-0.7,0.5-2.2,1.8-2.5,2.5c-0.3,0.7-2.7,3.2-2.7,3.7c-0.2,0.5-1,1.5-1,2  c0,0.5-0.5,2.8-0.8,3.5c-0.2,0.7-0.8,3.2-1.7,3.8c-0.8,0.7-1.8,1-2.3,1c-0.5,0-3.3-0.5-4.3-0.2c-1,0.3-0.8,0-1.5,0.7  c-0.3,0.5-1,1.3-1,2c0,0.7,0.7,1.5,0.3,2.2c-0.3,0.7-2.2,2.5-2.3,3.2c-0.2,0.5-1.2,3.7-1.7,4.3c-0.5,0.7-2,2.7-2.7,2.9  c-0.7,0.3-2.9,1.5-3.7,1.7c-0.8,0-2.3,1-3.2-0.2c-1.2-0.5-2.3-2.5-2.5-3.3c-0.2-0.7-0.5-0.8-1-1.7c-0.3-0.8-1.5-0.5-2.5-0.3  c-1,0.2-1.7,1-2.5,1c-0.3,0-1-0.3-2-0.7c-1-0.5-3.2-1.5-4.3-1.8c-1.2-0.5-2.5-1.2-2.9-0.8c-0.5,0.4-2.5,2.3-2.8,2.9  c-0.3,0.5-1.3,0.8-1.8,1.5c-0.5,0.7-1.8,0.3-0.3,1.3c1.5,1,2.9,1.8,2.9,2c0,0.2,0.5,2,0.2,2.7c-0.3,0.7-1.2,1.2-1.7,1.8  c-0.7,0.5-1.5,2.2-1.8,2.5c-0.3,0.3-1.5,0.5-2.5,1c-1,0.5-1.5,1-1.8,1.3c-0.3,0.3,0.5,1.5,1,1.7c0.5,0.3,1.3,2.7,1.5,2.9  c0.2,0.3,0.2,1.7,0.8,1.7c0.7,0.2,1,0.2,1.5-0.3c0.5-0.5,1-1.3,1.7-0.5c0.7,0.8,1.3,0.8,1.5,2c0.2,1.2,1.7,3.5,2,4  c0.3,0.5,1,1.5,1.3,1.7c0.3,0.2,1.2-0.2,1.7-0.3c0.5,0,2,0.8,2.5,1c0.5,0.2,1-0.5,1.5,0.3c0.5,0.7,1.5,1.7,1.7,2.2  c0.2,0.5,1,2.8,1.3,3.3c0.3,0.5,1,1.8,0.5,1.8c-0.3,0.2-2.8,0.5-3.8-0.2c-1-0.5-2.7-1.8-3.7-2c-1-0.2-2.7,0.3-3.2,0.7  c-0.5,0.3-2.2,0.7-2.7,0.7c-0.5,0-1.8,0.8-1.8,1.5c0,0.7,0.2,1.3,0.7,2c0.5,0.7,2.9,2.5,3.3,2.7c0.5,0.2,1,1.2,1.7,1.3  c0.7,0.2,0.7,0,1.7,0.2c1,0.2,2.5,1.2,3.2,2.3c0.7,1.2,1,2,1.5,2.7c0.5,0.7,1.7,1.8,1.3,2.5c-0.3,0.5-3.5,1.7-4.5,1.8  c-1,0.1-5,0.7-5.8,1.2c-0.7,0.5-2.2,1.2-3.2,1c-1-0.2-1.5-0.5-2.5-0.7c-1-0.2-1.5,0-2-0.2s-1.3-1-1.5-2.2c-0.2-1.2-0.7-3.8-1.2-5  c-0.5-1.2-1-1.8-2-1.3c-1,0.5-4.5,3.2-5.7,3.7c-1.2,0.5-3.2,1.7-4.8,1.2c-1.7-0.5-2.5-0.7-3.2-1.3c-0.7-0.7-1.8-1.5-1.5-2.2  c0.2-0.7,1.8-1.7,2.3-2.3c0.5-0.7,0.3-1,0.2-1.7c-0.2-0.7-1.5-4.3-1.7-5.2c0-0.8,0.2-1.3-0.5-1.5c-0.5-0.2-2.8,0-4.2,0.3  c-1.3,0.3-2.7,0.2-3.3,0c-0.3,0.3-0.8,0.3-2-0.3c0.5,0.8,0.2,1.8,0.8,2.8c0.7,1,1,2.3,0.3,2.8c-0.5,0.5-3.2,2-3.7,2  s-1.5,0.2-2.8-0.3c-1.5-0.2-1.2-0.7-2-0.3c-0.8,1-0.7,1.5-1,2.5c-0.3,1-1,2.9-1.7,3.5c-0.7,0.5-0.3,1-1,2c-0.7,1-1.7,1.7-2.5,2.3  c-0.8,0.8-1.3,2-2,2.7c-0.7,0.7-0.2,0.8-1.5,1.3s-2,0.5-2,0.5s-0.8,1-1.3,1.5c-0.3,0.5-1.2,5.7-1.3,6.5c-0.2,0.8,0.2,3.8,0.7,4.8  c0.5,1,2,3.5,2,4.2c0.2,0.7-0.8,3.8-1.3,5.2c-0.5,1.3-1.2,2.2-1.8,2.8c-0.5,0.8-0.2,1.7-1.5,1.5c-1.3-0.2-0.7-0.2-2-1  s-1.3-1.3-2-1.2c-0.7,0.2-0.5-0.2-1.8,0.3c-1.3,0.7-1.7,1.3-2.9,1.3c-0.5,0-2.7,0.3-4,0.7c-1.3,0.4-2.9,1-4.8,0.8  c-2-0.3-1.7-0.7-2.5-1.8c-0.8-1.1-1.2-0.8-1.5-1.5c-0.3-0.7-0.7-2-0.7-2.7s-0.7-1.8-1.3-2.7c-0.7-0.8-0.8-2-0.8-3.2s-0.3-1.8-0.7-2  c-0.3-0.2-1-0.5-1.7-1.5c-0.7-1-0.5-1.2-1.5-2c-1.2-1-2.3-2.5-2.8-3.7c-0.5-1.2-1.7-3.5-2-4c-0.3-0.5-0.8-1.7-1.3-2.8  c-0.5-1.3-2-3.8-2.5-5.3c-0.5-1.5-2.3-3.3-2.8-3.7c-0.7-0.2-2.3,0.5-2.8,1c-0.5,0.7-2.8,1.3-3.7,1.2c-0.8-0.2-2.9-0.7-3.2-1.8  s-1-2.3-1-4.8c0-2.5,0.3-5.7,0.2-6.8c-0.2-1.2-0.3-2-1.5-2.7c-1.3-0.7-1.3-0.5-2.5-1.7c-1.3-1-1.5-1.5-2-2.3c-0.5-0.8-2-2.5-2-2.5  s-0.3,1.2-0.7,1.7c-0.3,0.5-1.8,1.8-2.5,2.3c-0.7,0.5-1.8,0-1.7,1.5c0,0.7-0.2,3.8-0.2,4.2c0,0.5-0.2,1.3-0.5,1.2  c0,0-0.8-0.5-1.3-0.8c-0.5-0.3-1.3-1.5-1.7-2.3c-0.3-0.8-1.2-4.2-1.3-4.8c-0.2-0.7-0.5-2-0.5-2.5c0-0.5-0.2-3.7,0-4.7  c0.2-1,0.5-2.9,0.3-3.8c0-0.7,0.2-3.7,0-4.3c-0.2-0.8-1-3.7-1-4.3c0-0.7-0.3-2.5-0.3-3.5c0-1,0.7-1.5,0.8-2.3  c0.2-0.8,0.5-2.5,0.5-3.3c0-0.7,0-1.3-0.3-2.3s-1-2.5-1.2-3.2C426.7,493.8,426.2,487.1,426.2,487.1z" stroke="#FFFFFF" name="四川省" stroke-miterlimit="10"/>
<path fill="#E3E3E4" stroke-linejoin="round" id="path5" d="M773.2,17.8  c0,0,0.8,0.5,1.3,0.7c0.5,0.2,1.7,0.8,2,1.3c0.3,0.5,1.7,2.3,1.7,2.8s0,1.8-0.3,2.3c-0.5,0.5-1,1-1.5,1.3c-0.5,0.3-1.5,0.7-1.8,1.3  c-0.3,0.5-0.2,1.2-0.5,1.8c-0.3,0.6-1.3,2.3-1.3,2.7c-0.2,0.5,0,1,0.3,1c0.3,0.2,2.3,0.5,2.9,0.7c0.7,0.3,2.2,1,2.7,1.7  c0.7,0.5,1.5,1.3,2.5,1.5c0.8,0.2,1.8,0.3,2.2-0.2c0.4-0.5,1-3.3,1.3-3.8c0.2-0.5,0.7-1,1.2-1.2c0.5-0.2,2.9,0.8,3.5,1  c0.3,0.2,3.2,1.5,4,2c0.8,0.5,2.7,1.5,2.7,1.8c-0.2,0.3-1,2-1,2.8c0,1,0.3,2.3,0.7,2.8c0.3,0.5,0.8,3.3,1.5,4.2c0.7,0.7,4,7,4.8,7.2  c0.8,0.2,3.3,0.7,8.2-1c5-1.7,5.2-1,6-1.2c0.8-0.2,2.7-0.7,3.8-1c1.2-0.3,4-1.5,5-1.8c1.2-0.3,2.3-0.5,2.8-1  c0.5-0.5,1.8-2.3,2.3-2.9c0.5-0.7,2.5-2.7,3.2-2.5c0.5,0.3,4,1.2,4.8,2.2c1.2,0.8,2.8,2.2,3.2,2.5c0.5,0.3,2.7,1.7,3.3,2.7  c1.5,1.3,1,3.2,0.7,3.8c-0.3,0.5-1.5,3.5-1.8,4.2c-0.3,0.7,0,3.2-0.2,3.8c-0.2,0.6-0.8,1.5-1.2,1.8s-0.5,0.8-0.7,1.5  c-0.2,0.7,0.3,2.9-0.2,3.7c-0.5,0.7-1.5,2-1.7,2.5c-0.2,0.5-0.3,2.5,0.2,3.5c0.5,0.9,1.3,4,0.8,4.8s-1.5,1.8-1,2.3  c0.5,0.5,1.7,3.3,2,4.3c0.3,1,0.5,2.8,0.2,3.2c-0.3,0.4-2.2,1-2.8,1.3c-0.6,0.3-2.3,2.5-2.5,3.2c-0.2,0.5-0.8,4.7-1,6.2  c-0.2,1.7-0.2,5.7,0.2,7c0.3,1.3,1.3,3.7,1,4.7c-0.3,1-0.3,2.9-0.8,2.8c-0.5,0-0.8-0.2-1.3-0.8c-0.7-0.7-0.8-0.3-1-1.7  c-0.3-1.7-0.5-2.8-0.8-3.5c-0.3-0.7-1.2-1.5-1.7-1.3c-0.5,0.2-1.8,1.5-2.2,1.8c-0.3,0.3-1.3,1.8-2,2.3c-0.7,0.5-2,2.9-2.7,3.5  c-0.7,0.5-1.8,2.3-2.5,2.9c-0.5,0.5-2.2,2.7-2.7,2.9c-0.5,0.2-2.3,2.9-2.5,3.2c-0.2,0.3-1.7,1.8-2.5,2.7c-0.8,0.8-2.7,2.3-2.8,2.7  c-0.2,0.3-1.2,1-1.5,1.7c-0.3,0.7-0.7,2-0.3,2.8c0.3,0.8,2,2.9,2.7,3.5c0.7,0.5,3.2,1.8,3.7,2.2c0.5,0.3,1.2,1.5,1.3,2.2  c0.2,0.7,1,1.8,1.5,2.2c0.5,0.2,1.7,0.8,2,0.7c0.3-0.2,0.7-0.3,1.3-0.8c0.7-0.5,1.7-1.5,1.7-1.7c0-0.2-0.5-1.3-0.3-2  c0.2-0.7,1-1,1.3-1c0.3,0,1.2,1,1.5,1.5c0.5,0.5,0.5,0.7,1.2,0.7s1.8,0,1.8,0.3c0,0.3-0.7,3.8-1,4.2c-0.3,0.3-2.3,1-3.7,1  s-3.7,0.3-4,0.7c-0.3,0.3-0.5,1.3-0.5,1.8s1.3,2.7,1.8,3.2c0.5,0.5,1.8,1.3,2.3,1.5c0.5,0.2,1.3,0.5,1.2,0.8  c-0.2,0.3-0.2,0.8-0.8,1.5c-0.7,0.7-2.2,1.5-2.7,1.7c-0.5,0.2-1.8,0.5-2,0.8c-0.2,0.2-0.3,1-0.2,1.5c0.2,0.5,0.8,2,0.7,2.7  c-0.2,0.7-0.3,2.7-0.8,2.8c-0.5,0.2-1,0-1.7-0.5c-0.5-0.5-2-1.8-2.7-1.8c-0.7,0-1.3,0.2-1.7,0.5c-0.2,0.3-0.5,1.2-1,1.3  c-0.5,0.2-1.7-0.5-2.7-0.8c-1-0.5-2.5-1-3.2-1.7c-0.7-0.7-1.5-1.5-1.7-1.7c-0.2-0.2-0.7,1.8-0.5,2.3s-0.3,3.2-1,3.3  c-0.7,0.2-1.5,1.2-1.2,1.5c0.3,0.3,2.3,1.3,2.9,1.2c0.7-0.2,1.3-0.3,1.8-0.2c0.5,0.2,2.2,2.7,2.7,2.9c0.5,0.2,3.2,2.9,3.2,3.7  c0,0.7-1,5.5-1.3,5.8c-0.3,0.5-0.2,2.3,0.3,2.8s1,1.8,1,2.3c0.2,0.5,0,2.3,0.3,2.9c0.3,0.7,2,2.8,2.8,2.8c0.8,0.2,1.3-0.2,1.5,0.5  c0.2,0.7,0.2,2.8,0.5,3.2c0.3,0.3,1.3,0.5,2,0s4.7-2,5.2-2.7c0.5-0.7,2.2-2.3,2.7-2.9c0.5-0.7,0.8-1.5,1.3-1.5  c0.5,0.2,3.3,4.5,3.7,4.8c0.5,0.7,2.3,2.3,2.3,2.8s1,2.9,1.5,3.3c0.5,0.5,2.2,2,2.3,2.5c0.2,0.5,0.5,2.5,0,2.8  c-0.5,0.3-1.8,2.2-2,2.5c-0.2,0.3-0.3,2.3,0.7,2.3c1-0.2,2.8,0.2,3.7-0.2c0.9-0.4,1.8-0.7,1.8-0.5s-0.2,5.3-0.3,6  c-0.2,0.7-2.2,2.2-2.9,2.5c-0.8,0.3-1.3,2.2-2,2.8c-0.5,0.7-1.5,2.5-2.2,3.2c-0.7,0.7-2.8,1.3-3.5,1.5c-0.6,0.2-2.9-0.3-3.8-0.5  c-0.8-0.2-2.8-0.5-2.8-0.2c0,0.3,0.2,1.5,0.2,2.2s-0.7,1.3-1,1.3c-0.5,0-2.7-0.5-3.5-0.5c-0.8,0-1.7,1.3-1.8,1.5  c-0.2,0.3-1.2,3.7-2,4.2c-0.8,0.5-2.8,0.8-3.8,1c-1.7-0.2-3.8,1.5-4.3,1.8c-0.5,0.3-2.2,2-2.9,2.3c-0.8,0.5-4.2,2-4.8,2.2  c-0.5,0.2-1.3,0.5-1.8,1s-3.3,3.2-3.8,3.8c-0.5,0.7-2.8,3.5-3.2,4s-1.8,3.7-2.2,4.2c-0.3,0.3-0.8-0.8-1.2-1.7  c-0.3-0.7-2.5-5.8-2.9-6.3c-0.3-0.5-3.5-3.2-4.8-3.8c-1.2-0.7-3.2-1.2-3.8-0.7c-0.7,0.5-1.2,1.8-1,2.7c0.2,0.7,0.8,4.2,1.5,5.2  c0.7,1,0.5,4.3,1,5.3c0.5,1.2,0.5,3.7,0.3,4.3c-0.2,0.7-0.7,3.8-0.8,3.8c-0.1,0-3.5,0.8-4.2,0.8c-0.7,0-3.2,0.3-4.2,0.5  c-1,0-3.2,0.3-4.5,0.2c-1.3-0.2-1.5,0.5-1.7-0.3c-0.3-0.8-1-2.9-1.3-3.3c-0.2-0.2-2.3-2.2-2.5-2.3c-0.2-0.2-1.7-1.5-1.5-1.8  s1.5-0.3,2.3-0.8c0.8-0.5,1.7-1.5,1.5-1.7c-0.2-0.2-3.8-2.9-4.5-3.5c-0.7-0.5-2.7-2.7-2.8-3.5c-0.3-0.8-3.8-6.2-4.3-6.5  c-0.5-0.3-2.3-0.7-3.3,0.2c-1.2,0.8-2.8,2.8-3.3,3.2c-0.5,0.3-3.7,0.2-4.5,0.3c-0.8,0.2-2,1.2-2.2,2.2c-0.3,0.8,0.2,2.2,0,2.7  s-0.7,1.2-0.3,1.8c0.3,0.7,1,3.3,0.5,4c-0.5,0.7-2.9,0.8-3.8,1c-0.8,0.2-5-0.2-5.2,0c-0.2,0.3-1.8,1.2-2.5,2.3  c-0.7,1.2-2.2,1-2.5,0.7c-0.3-0.3-1.3-0.7-2.2-0.7c-0.8,0.2-3.2,0.7-4,1.3c-0.8,0.7-3.2,2.3-4.2,2.9c-1,0.5-4.5,2.3-5,2.5  c-0.5,0.2-2.8,0.2-2.7-1.7c0.2-1.8-0.2-5-0.3-5.7c-0.1-0.7-1.3-3.2-1.7-3.3c-0.3-0.2-3.2,1-3.7,1.5c-0.5,0.5-2.5,2.2-2.7,2.5  c-0.2,0.3-1.3,1.3-1.8,2c-0.5,0.7-0.2,6.3-0.7,7c-0.5,0.7-2.3,0.8-2.9,1.2c-0.7,0.3-0.7,1-0.2,1.7c0.5,0.7,0,2.8-0.5,3.8  c-0.5,1-0.5,2.7-0.3,2.9c0.2,0.5,1.7,2.9,2.7,3.7c0.8,0.7,1.5,2,1.2,2.8c0.2,1.7-0.3,4-1.2,4.5c-0.8,0.7-2.9,2-3.2,2.2  c-0.3,0.2-2.5,2.2-3.5,2.5c-1,0.3-3.2,0.3-4.2,0.3c-1,0-3.7-0.3-4.8,0.5c-0.8,1.2-2.3,2.7-2.9,3.5c-0.7,0.7-1.8,1.2-2.5,1.2  s-4.8-1.5-5.5-1.2s-1.7,2.2-2.2,2.9c-0.5,0.7-1.5,3.5-1.8,4c-0.3,0.7-1.7,3.7-2.2,4c-0.5,0.5-2.7,0.8-3.5,0.5  c-0.8-0.3-3.7-1.3-4-1.5c-0.5,0-1.7,0.8-2.5,1.8s-1.7,2.9-2,3.3c-0.3,0.3-1.3-0.5-2-1s-1.8-1-2.5-0.5c-0.7,0.7-2.5,2.3-2.9,3.2  c-0.5,0.8-1.2,3.2-2,3.2s-2-0.8-2.9-1.3c-1-0.5-1.5-0.2-2.7-0.5c-1.2-0.5-2.8-1.2-3.2-1.5c-0.3-0.2-1.3-1-1.3-1s0.7,1.3,1,2.2  c0.3,0.8,1.2,2.5,0.8,2.8c-0.3,0.3-2.5,1-3.5,1.5c-1,0.3-2.2,1.2-2.5,1.7c-0.3,0.5-0.2,2.2-0.7,2.9c-0.5,0.7-2.3,2.5-3.2,2.9  c-0.9,0.5-2.7,1-2.9,1.3c-0.3,0.3-1.3,1.8-1.5,2.2c-0.3,0.5-2.2,2.9-2.5,3.5c-0.3,0.5-1.8,2.5-2.3,3.2c-0.5,0.7-1,2.3-0.3,2.8  c0.7,0.5,1.7,3.3,1.8,3.8c0.2,0.7-0.8,2.3-1.3,2.2c-0.5-0.1-1.8-1.5-2.3-1.3c-0.5,0.2,0,0.5-0.3,1.5c-0.3,0.8-0.5,2.3-0.8,3.3  c-0.3,0.8-0.2,1.5-0.8,1.5c-0.5,0.5-1.3,0.7-3.7,1c-1.2,0.3-5.3,0.7-6.5,0.8c-1.2,0.2-1.7-0.2-2.2-0.7c-0.2-0.2-0.7-1-1.2-1.8  c-0.5-0.8,0.5-1.8-8.5-3.5l-6.2-4.3c0,0-0.7-0.8-2-1c0,0-11.8,1.2-8.9-5.5c0,0,2-5.2,2.7-5.3c0,0,3.8-2.8,4-3.5c0,0,2.8-2.7-0.2-3.5  c0,0-2.9-0.8-2.8-2.7l-0.8-3.8c0,0,0.5-0.8-3.7,1.7l-7.7,6.2c0,0-1.3,0.8-1.5,2.2L557,338l-0.8,8.9c0,0-1.3,6.5-8.1,4.5  c0,0-0.6-1.1-5.6,2.4c0.8-0.1-8.3,1.9-8.8,1.5l-4.5,1.8c0,0-4.7-2.5-5.5-4.2c0,0-1.3-2.5-6.3-3.7c0,0-5.5-3.3-2.7-6  c0,0,2.7-1.7,1.5-3.8c0,0-2.5-2.9,1-4.7c0,0,4.2-2.2,4.5-2l3.5-4.8c0,0,5.7-2.9,2.7-6.5c0,0-3.2-3.7-0.8-5c0,0,4-2.5-1.2-1.2  c0,0-12,2.3-13,4.2c0,0-3.7,4.7-8.2,1.8c0,0-3.7-1.8-5.3-1.5c0,0-8.7,2.5-9.1,2.2c0,0-1.7-0.2-0.2,1.5c0,0,3.8,6.2-1.2,7  c0,0-8.2,1.5-10.8-4.5c0,0-0.2-2.7-3.5-1.8c0,0-5-0.8-1.7-6c0,0,2.9-5.2-0.7-3.3c0,0-4.3,3.7-10.2-4.8c0,0-5-4.7-8.5-4.8  c0,0-6.3-0.3-2-2.8l7.2-6c0,0,5-6.5,5-10.7c0,0,0.2-4.7-7.3-3.8c0,0-4,0.3-5.8,2.3c0,0-1,1.2-4.5,0.3c0,0-4.2,1.3-5.5,3.5  c0,0-1.3-1.5-1.8-0.3c-0.5,1.3-2,4.5-2,1.8c0,0,0.2-4.5-2.5-0.5c0,0-4.8,3.8-2.9-1.5c0,0,2-2.5,0.2-5.2c0,0-1.8-3.3-2.3-3.7  c0,0-12-7.8-8.9-9.8c0,0,5.8-1.7,3.7-6c0,0-1.8-5-2.8-5.7c0,0-3.3-6.3-4.7-15.1l23.5,5.3c0,0,16.2,2.3,29,0.2c0,0,21.6,1.8,22.7,3.2  c0,0,3.8,11,15.2,9.1c0,0,10.8,5.3,12.8,6.7c0,0,12.5,0.2,13.3-0.2c0,0,2.2-1,1.7,4.5h7.5l5.2-3.3l14.7-6.2c0,0,20-7.3,20.6-8  c0,0,7.2,0.7,8.3,0.3c0,0,9.2-1.7,11.2-1c0,0,12,0.5,14-1.2c0,0,8.7-4,10-3.8c0,0,8.2-4.7,8.7-6.8c0,0,1.8-5.7,14-11.8  c0,0,9.1-4.2,4.2-7.8c0,0-11.7-8-6.3-15.4c0,0,4-12.3,10.3-9.2l18.3,5.3c0,0,1.8,0.3,3.7-0.7c0,0,2.5-0.8,3.5-0.8c0,0,5.2-1.8,8.9-8  c0,0-0.3-7.5,14.2-5c0,0,8.2-2.5,13-9.8c0,0,0.8-13.5,12-12.8c0,0,4.2-0.5,4.7-4.5c0,0,0.2-2.2,4-1.2c0,0,5.7-1.2,6.5-2.9  c0,0,2.2-1.5,5.5-1c0,0,5.8-2,8-1.2c0,0,17.5,5,11-6.8c0,0-2.5-5.3-11.7-11.3c0,0-4.2-2.5-5.5-2.2c0,0-5.2-4-5.2-4.3  c0,0-6.5-2.8-10.7,1.7c0,0-6.7,8.7-8.7,5.7c0,0-5.3-4.2-7.2-2.5c0,0-3.5,2.5-7,1.7c0,0-2.2-0.5-3.3,1.8c0,0-5.3,2.7-6.3-0.7  c0,0-5.3-5.3-2.3-6.2c0,0,3.8-1.8,2-5.7c0,0-0.8-2.7,1.8-4c0,0,2-3.7,1.8-5.5c0,0,1.3-7.3,2.8-8.7c0,0,3.5-12.7,5.7-12  c0,0,6.8,2.8,8.3,1c0,0,1.7-2,8,2.3c0,0,2.3-3.2,4.8-4.2c0,0,8-7.2,11-6.3c0,0,1.8-0.3,3.2-2.3c0,0,2.9-4.3,0.7-4.3  c0,0-5.7-0.7-1.8-4.7c0,0,3.3-3.5,2.3-5.8c0,0-0.8-2.7,1.2-3.7c0,0,2.8-1.3,0.5-3.8c0,0-1.2-1.8,1-1.2c0,0,1.8-0.3,1.2-3.5  c0,0-0.3-2.7,2.8-6.2c0,0,9.1-9.8,6.8-11c0,0-3.8-1.2-2.7-4.2c0,0,0.2-6.5-7.3-3.2c0,0-2.3,2-2.2-1c0,0,0-2.2,2.3-3.3  c0,0,3.2-2.3,6.8-8.9c0,0,1.5-1.2,3.3-1c0,0,5.3-0.8,5.8-2L773.2,17.8z" stroke="#FFFFFF" name="内蒙古自治区" stroke-miterlimit="10"/>
<path fill="#E3E3E4" stroke-linejoin="round" id="path6" d="M416.8,241.1c0,0-5-1-6.5-0.5  c0,0-4.3,0.5-6.5-0.5l-1.2,1.8c0,0-5,1-5.2,3.2c0,0-0.2,2.7,2.5,5.7c0,0,0.7,1.3-0.8,2.2c0,0-1,0.8-0.7,2c0,0,0.2,1.7-3.5,2.5  c0,0-6.5,1.3-6.8,1c0,0-2,0-3.3,3.7c0,0-0.7,2.7-2.7-0.8c0,0-1.3-3.5-5.5,1.2c0,0-1.5,2.3-4.3,1.2c0,0-2-1-9.2,4.8  c0,0-4.8,4.2-5.5,6.3c0,0,0.2,6-7.5,5c0,0-8.5-1.5-8.9,1.2c0,0-1,5.2-3.7,8c0,0-1.7,2.9-1.5,4.7c0,0-1.2,5.3-3.3,7.5  c0,0-4.5,4.8-5,6.2c0,0,0.5,2.5,0.5,2.3c0,0,1-0.7,1.7-0.5c0,0,10.7-1.3,11.3,1.5c0,0,0.3,4.8,6,4.2c0,0,5.7,0.3,3.7,2.5  c0,0-2.3,0.2,2.8,2.2c0,0,5.3,0.5,6.2,0.8c0,0,2.2,0,2,3.2c0,0,0.3,6,5.8,5.2c0,0,2.5-1.5,5.8,0.8c0,0,4.2,4,8.7,1.2  c0,0,2.3-1.5,5.8,2.5c0,0,4.2,3.3,5.7,1.3c0,0,1.7-2,3.7-0.3c0,0,2,1.7,2.5-1.5c0,0,0.2-7,3.5-4.7c0,0,3.5,2.2,3.2-3.2  c0,0-1.7-10.7,1-9.5c0,0,2.9-1,6.8,2c3.9,3,0.2,0,0.2,0s6.8,5.2,7.2,5.7c0,0,3.5,2.2,6.3-1.5c0,0,2.2-2.9,3.7-0.7  c0,0,0.7,1.2,3.5-0.7c0,0,2-1.7,5,1.2c0,0,7.2,6,9.8,10.2c0,0,7.8,6.2,7.7,3.8c0,0-1.7-4.5,2.7-1.8c0,0,10.2,7.8,10.7,8.2l2.9,1.3  c0,0,8.7,5.8,8.9,6.5c0,0,4.7,5.3,5.7,1.5c0,0,2.8-3.3,3.3,0c0,0,0.2,3.8,3.2,5.3c0,0,1.3,0.2,7.3,12.7c0,0,1,1.3,0,3.5  c0,0,0.2,1.7,0.7,2.3c0,0,0.2,3.7,2.5,5c0,0,3.8,2.5-2,8c0,0-1.3,2.3-1,3.7c0,0,0.8,2.5-2.9,3.7c0,0-7,1-6,3.2c0,0,4,4.2-2.5,7.2  c0,0-7.3,2.9-3.5,8.3l4.2,1.7c0,0,2.7,2,1.2,2.9c0,0-4,6-12.5,3.8c0,0-6.3-2.2-7.2-2.9c0,0-10.3-3.8-8,3.3c0,0,1.3,2.9,2.8,3.5  c0,0,4,2.5,4.2,4.3c0,0-0.5,5.7,4.2,3.7c0,0,0.3-2.2,1.3-2c0,0,2.5,0.5,2.9,2c0,0,0.8,2.9,0.8,3.2s0.2,0.3,0.2,0.3s0.8-2,1.8-2.3  c0,0,2.7,0,2.3,2c0,0-5.2,9.2,1.5,5.2c0,0,2-2.2,2.5-1c0,0,0.8,2,2.9-1c0,0,2.3-4.7,2.3-6c0,0-1.2-2.7-1.5-2.9c0,0-1.2-2.3,0.5-2.8  c0,0,1.5-1.3,1.5-2.8c0,0-0.2-1.3,1-1.2c0,0,2-0.2,2.8-2.5c0,0,0.7-1.7,2.7-1.3c0,0,6.5,0,6,2.9l0.5,4.8c0,0,0,2.7,1.8,2.7  c0,0,3.5,0.5,4.5-0.7l1.7,2.3c0,0,0.5,1.7,4.3,0.2c0,0,2.3-2.2,3.7-0.1c1.5,2.2,1.7,3.6,4.3,5c0,0,2.9,1.1,2.2,4.1  c0,0,0.2,2.2-0.4,3.4l-0.4,3.4c0,0,4.4,3.8,5.1,3.8c0,0,7.2,3.2,10.5,1.3c0,0,4.6-1.9,5.6-1.8c0,0-0.8-1.8,0.5-2.3  c0,0,8.2-1.7,6.3-6c0,0-0.3-1.8-1.8-2.5c0,0-2.8-1.3,0-4c0,0,3.3-3.5,6.3-2.3l4.3,0.8c0,0,2.5,1.3,1.7-2.8c0,0-2.8-5.5-0.8-7.3  c0,0,1-1.2,0.7-2.8c0,0,0.3-1.8,2.3-2.2c0,0,3.2-0.7-0.5-2.8l-5-2.8c0,0-1.2-0.5,0.2-1.2l2.9-2.9c0,0,1-0.7,0.3-2.9  c0,0-2-4.3,5.5-3.8c0,0,6.3,3.7,6.7,3.8c0,0,2.8,1,4.8,0.2l4.8-1.3c0,0,1-1.7,0.5-2.3l-3.3-4.5c0,0,3.5,0.7,4.5,1.2  c0,0,2.9-0.7,3.5-0.7s4.8,0,5.3,0.2c0,0,5.8-2,5.3-4.7c0,0-3.2-4.7-2.3-6.5c0,0,5-5.8,1.5-12.5c0,0-2.5-0.7-2.9-0.3  c0,0-2.3-0.5-2.3-2c0,0-1.2-2.3-3.5-1.3c0,0-1,0.5-2.9-1c0,0-5.8-5.2-6.8-4.3c0,0-3.5-0.1-4.5-3c0,0,0.8-4.3-3.6-4.1  c0,0-1.2,1-3.5,0.3c0,0-1.5,0.2-1.6,0.2c-0.1,0-2.1-0.2-2.1,0.5c0,0,0.1,1.1-1.4,1.1c0,0-2.8-0.3-0.4,2.3c0,0,2.9,2.5,0.4,2.9  c0,0-1.7-0.1-1.6,2.9c0,0-0.5,2.4-2.2,2.9c0,0-2,0.7,0.3,2.5l1.5,2.8c0,0,0.7,1.2,2.5,1.3c0,0,3.7,0,4.2,2.3c0,0,1.7,4.3-2.9,7.8  l-4,1.2c0,0-1,0.2-0.7,2.9c0,0,0.3,6.3-2.2,6.8c0,0-1.7,1.2-1.8-0.3c0,0-0.2-2.9-2.5-3.5c0,0-3.3-0.5-6.2-4.3c0,0-0.7-2.3-4-1.5  c0,0-5.5,1.2-1.8-6l2.7-7.2c0,0-3.9-2.5-5.8-3.6c0,0-1.6-2.1,0.1-3.4c0,0,3.5-0.5-2-5.3c0,0-5.2-6-7-5.2c0,0-1.5-0.5-1.5-2.3  c0,0-0.5-2.3-2.9-2.5l-3-1c0,0-5.1-2.8-5.8-4.6c0,0-4.1-3.4-6-3.3c0,0-6-3.5-2.3-6.3c0,0,2.3-1.4,1.1-3.5c0,0-2.3-2.7,0.7-4.6  c0,0,4.7-2,4.8-2.1c0,0,1.8-2.9,2.9-4c0,0,6-4.1,3.6-6.8c0,0-3.2-3.6-1.5-5.1c0,0,4.4-2.5,0-1.7c-4.3,1-11.9,2.6-12.8,3.6  c0,0-2.4,2.4-3.8,2.9c0,0-1.7,1.1-4.6,0l-4.2-1.7c0,0-0.6-0.6-3.8,0.4l-6.7,1.6c0,0-2.7-0.8-0.5,1.7c0,0,4.8,7.9-5.2,6.9  c0,0-4.7,0.2-7-4.6c0,0,0.1-2.5-3.5-1.8c0,0-4.6-0.7-2.1-5.3c0,0,3.8-6-0.3-4c0,0-1.7,2.1-6.2-0.5c0,0-6.6-7.2-8.7-7.7  c0,0-2.2-1.3-5.4-1.5c0,0-3.8-0.5-0.4-2.6c0,0,6.6-5.7,7.2-6c0,0,4.2-5.5,4.9-9.6c0,0,1.6-6.4-8.4-4.7c0,0-3.6,0.7-4.8,2.3  c0,0-1.2,0.9-4.3,0.2c0,0-4.2,1.4-5.5,3.5c0,0-0.9-0.7-1.4-0.7c0,0-0.8,1.4-1.7,2.9c0,0-0.8,1.8-0.9-2.2c0,0-0.2-1.8-2.4,1  c0,0-4.3,3.4-3.3-0.6c0,0,1.9-2.9,1.1-4.6l-2.9-5.1l-7.5-6.3c0,0-3.9-2.8-0.1-4.5c0,0,3.5-1.4,2.3-5.4l-1.8-4.2c0,0-3.2-5.6-3.2-6.8  l-1.8-6.1L416.8,241.1z" stroke="#FFFFFF" name="甘肃省" stroke-miterlimit="10"/>
<path fill="#E3E3E4" stroke-linejoin="round" id="path7" d="M581.3,361.7  c0,0,3.5-0.7,1.8-2.8c0,0-2.9-1.8-1.3-3.3c0,0,1-1.8,1-3.7c0,0,0-2.2,2-2.8c0,0,4.5-2.5,4.8-2.8c0,0-3.2,0.5-10.3-6.3  c0,0-4-0.3-6.3-0.3c0,0-7,0.5-3.2-7c0,0,1.3-4.2,4.5-5.3c0,0,4.5-4,1.5-5.3c0,0-3.5-0.7-3.3-2.3l-0.8-3.8c0,0-0.2-0.7-1,0  c0,0-4.7,2.3-6.7,4.7l-3.7,2.8c0,0-1.5,1-1.7,2.5c0,0-1.3,8.5-1.3,9.5c0,0-0.7,9.5-0.7,9.8c-0.2,0.5-1,7-8.5,5c0,0-3.3,0.5-5.3,2.5  c0,0-6.2,1.8-8.8,1.5l-4.5,1.8l3,1c0,0,2.1,0.1,2.9,2.1c0,0,0.7,2.9,1.7,2.7c0,0,3.4,1,3.9,2.2l5.5,5.8c0.7,1.5,0.6,2.3-0.6,2.6  c0,0-1.6,1.1-0.1,3.3l5.8,3.7l-2,5.4c0,0-5,8.6,1.1,7.8c0,0,2.9-1,4,1.5c0,0,2.6,3.3,6.6,4.4c2.3,1.1,2.1,4.3,2.6,4.1  c0,0,1.6,0.1,2.7-1.6c0,0,0.8-0.6,0.8-6.5c0,0-1.3-2.7,4.8-3.4c0,0,2.9-1.1,3.3-5.6c0,0,0.8-4.8-5.4-4.7c0,0-1.1,0.4-3-3.9  c0,0-0.7-0.4-1.1-1.4c0,0-1-0.5,1.8-1.7c0,0,1.6-1.9,1.3-3c0,0,0-2.1,1.5-2.2c0,0,1.7-0.2,0.5-1.8c0,0-2.9-3.5-1.2-3.5  c0,0,2,0.3,2-1.3l3.5-0.5c0,0,2.5,0.5,3.8-0.3C579.5,361.2,581.3,361,581.3,361.7z" stroke="#FFFFFF" name="宁夏回族自治区" stroke-miterlimit="10"/>
<path fill="#E3E3E4" stroke-linejoin="round" id="path8" d="M620,720.4c0,0-0.3-2,3.5-3.2  c0,0,5.5-4.7,7.5-5.3c0,0,2-1.8,0-1.3c0,0-4.2,1.8-0.7-1.8c0,0,1.8-2,5.7,0.5c0,0,1.2,0.8,1.5-2.2c0,0,1-1.5,3.7,0  c0,0,2-1.5,2.7,0.3c0,0,2.3-2.3,3.7-0.5c0,0,2.3-4.8,5.5-2.9c0,0,1,1.3,2.9-0.5c0,0,2.9,0.2,4.2,3.3c0,0-0.8-3.3,0.5-4.8  c0,0,2.5-0.2,3.3,2.7c0,0,3.3-1.3,4,2.5c0,0,0.3,3.5,1.3,3.8c0,0-1.5,1-2.2,2.5c0,0-2-3.7-2.9-1.2c0,0-0.3,5-2.2,4.3  c0,0,0,4.8-2,5.2c0,0,1,4.2-2,5v1.2h2.2c0,0-2.5,4.2-3.2,3.8c0,0-2.5-1.3-2.5,0.7c0,0-4,1.3-4.2,4.7c0,0-1,1-1.3-0.8l-1.7,1  l-3.5,0.5l-0.7,3.8c0,0-5.3-1.3-7-1.3c0,0-6.3,0.2-6.3-1.5c0,0-2.3-1-2.8-0.2c0,0-2.7-0.2-2.9-2.3c0,0-5.5,0.8-3.8-3.3  c0,0,0.8-2.3-1-3.8c0,0-2.7-3.3,0-5.7c0,0,0.8-0.8-0.7-2C618.3,722,617.2,721,620,720.4z" stroke="#FFFFFF" name="海南省" stroke-miterlimit="10"/>
<path fill="#E3E3E4" stroke-linejoin="round" id="path9" d="M852.3,616.9v2.3  c0,0,1,1,0.5,1.7c0,0-1.2,3.2-0.8,3.3c0,0-0.5,2.8,2,2.7c0,0,2.8,5.7,3.3,6.3c0,0,0.3,4,3.7,3.2c0,0,8.5,2.7,7.7,10.5  c0,0,2-1.2,2.8,0c0,0,1.3,1,1.5-1c0,0-4-13,5.8-21.9c0,0,0.5-5,2-6c0,0,0.7-8.3,0-12.5c0,0-0.2-7.5,3.5-12c0,0-4.7-6.5,0.5-10.5  c0,0-0.2-3.8-5-2c0,0-3.5-0.2-3.8-2.7c0,0-4.2-0.7-3.5,2.9c0,0-5.8-0.3-7.7,6.5c0,0-3.3,5-4.7,8l-0.5,1.8l-2.2,2.7l-0.2,2.9  c0,0-1.5,1.5-2,3.7c0,0-1.3,2.9-1.8,2.9l0.3,1.2C853.9,611.4,851,613.4,852.3,616.9z" stroke="#FFFFFF" name="台湾省" stroke-miterlimit="10"/>
<path fill="#E3E3E4" stroke-linejoin="round" id="path10" d="M773.8,18.7  c0,0,1.5-2,7.2-2.2c0,0,1.3-3.5,14.8-5.1c0,0,4.7,0.3,5.5-1.3c0,0,0.8-0.5,4,0.8l13.4,4.7c0,0,1.8,0.5,3.3-0.8c0,0,2.7-2.2,5-0.7  c0,0,4,0.7,4.7,0.5c0,0,1.7-0.2,1.3,2.3c0,0-0.3,2.8,1.3,1.5c0,0,3.7-1.5,5,1.5c0,0-2.8,2.3-0.3,2.7c0,0,2.3-0.2,4.7,2.7  c0,0,1.7,1.7,1.7,2.8c0,0,0,1.5,2.2,1.5c0,0,2,0,1.5,1.8c0,0,0.2,1.5,2.5,3.8l2.5,3.2c0,0,1.2,2.7,2.3,3.5c0,0,1,0.8,0.3,1.7  c0,0.2-1,1.5,1,1.5c0,0,1.7-0.2,1.2,1.2c0,0,0.2,1.8,2.3,3.2c0,0,5.8,3.9,7.3,10.1c0,0,2.8,3.9,4.3,5.1c0,0,0.7,2.2,0.3,3.8  c0,0-0.2,3.2,3.2,4.6c0,0,6,3.2,8.7,2.3c0,0,1.8-0.2,6.2-2.7c0,0,2.3-1.2,2.3,0.7c0,0,0,1.8,1.8,1.3c0,0,1.7-0.3,2,0.8  c0,0,0.5,1,2.3,0c0,0,2.7-2.9,5-1.5l10.7,6.4c0,0,2,1.2,5-0.2c0,0,4.7-0.8,4,1.3c0,0-2.7,3.2,0.7,5.1c0,0,5,2.5,3.5,6.6  c0,0-1.3,2.5,2.7,5.9c0,0,4.7,4.4,7.2,2.3c0,0,2-1.7,4.7-1c0,0,5,0.5,6.8-1l6.2-3.7c0,0,1.7-0.8,1.8-2c0,0,0.5-2.7,1.8-3.2l4.5-4.7  c0,0,2-1.5,3.3-1.5c0,0,6.8-2.8,10.7-5.9c0,0,3.3-2.9,5-3.2c0,0,2.3-0.7,3.2-1.5l3.3-2.9c0,0,0.2,2.5-1.2,4.4c0,0-3.2,6.9-1.3,8.1  c0,0,4.5,3.5,2.5,7.4c0,0-0.5,2.2-4.7,5.4c0,0-2.2,1.8-0.5,2.9c0,0,1.2,1.7-0.2,5.2c0,0-0.7,2.5,0.2,4.2c0,0,0.3,2.3-0.2,3.9  c0,0,0.5,3.3,1.3,4.4c0,0,0.5,0.7-0.7,3.5c0,0-1.2,2.7-0.3,3.8c0,0,1.3,1.8-0.3,3.2c0,0-1.5,2-1,4.1c0,0,0.5,2.2-1.7,4.2  c0,0-2.3,2-1.3,4.1c0,0,2.9,3.8,0.5,6.2c0,0-6.7,1-8.5,0.3c0,0-7.7-0.8-10.2-2.2c0,0-1.7-0.3-1.7,1.5c0,0,0.7,6.6-3.8,8.8  c0,0-2.2,1.8-3.7,0.8c0,0-2.9-0.3-1.7,2.7c0,0,4.8,6.1,5.5,7.4c0,0,4.3,8.7,4.3,10.4c0,0,1,4.7,2,5.4c0,0,2.2,2.9,1.3,4.6  c0,0-1.5-1.2-4-0.5c0,0-3.7,0.5-4.2,0c0,0-2-2-2.9-1.8c0,0-4.5,0.5-5.5-1.5c0,0-0.5-2.7-0.5-2.9c0,0-1-3.3-1.7-3.7  c0,0-1-0.5-2.9,4.2c0,0-0.5,1.7-2.7,0c0,0-1.7-1.8-3.5,0.8c0,0-0.8,1.5-3.5,2.2c0,0-3.3,0.8-3.2,3.2c0,0,0.8,3.5-2.2,4.1  c0,0-2.2,1-4.8-2.2l-5.2-6.2c0,0-4.5-2-2.9-5.4c0,0,1.2-4.2-2.3-2.2l-3.7,3.9c0,0-0.8,0.7,0.3,2.7c0,0,1.8,2.2,0,3.3  c0,0-2,1.8-4-0.7l-2.2-2.3c0,0-3.5-5.4-4-5.6c0,0-2.8-1.3-4.3-0.8c0,0-4.5,2.2-4.2-0.3c0,0,0.5-4.7-0.7-5.4c0,0-0.5-2-1.3-2.2  c0,0-1.3-1.3-2-1.7l-5.5-1.2c0,0,0.2-0.7-5,2.7c0,0-3.7,1.2-7.2-1c0,0-2.2-2.3-2.8-3.8c0,0-0.2-1.5-2.3-0.3c0,0-1.7,0.5-2.3,2  c0,0-1.3,2.3-5,0.8c0,0-2.3-2.8-4-0.3c0,0-0.2,2.7-6,2.5c0,0,0,0.5-4.7-2.8c0,0-3.5-0.7-2.7-2.5c0,0,1.3-1.2-0.7-2.9  c0,0-1.8-1.5-0.8-3.3c0,0,1.2-1.8-1-2.8c0,0-1.3-1.3-2-1c0,0-3.7,2.8-5.3,2.7c0,0-1.3,0.2-1.7,0.3c0,0-2.9-1.7-4.2-1.5  c0,0-4.5-2.9-2.7-5.1c0,0,0.3-1.5,4.7-1c0,0,3.8,0.3,3.5-3.2c0,0,1.3-2.9-0.3-2.7c0,0-2,0.7-2.2-0.2c0,0-1.8-3.2-2.8-1.3  c0,0-0.2,0.7,0.2,2.2l-0.8,1c0,0-1.8,2.3-3.3,1.5c0,0-2-0.8-2.8-3.2c0,0-1.7-2.3-4.2-3.5c0,0-4.3-2.5-3.2-6.2c0,0-0.2-0.7,5.5-5.4  c0,0,2.2-2.7,2.5-3.2c0.3-0.3,5.8-6.2,5.8-6.2l4.8-6.6c0,0,2.7-2.3,2.9-2.5c0.3,0,1.3,0,1.7,0.8l1.3,4.6c0,0,2,1.7,2,2  c0.2,0.3,1.2-2.5,1-3.9c0,0-1.8-5.6-1.2-8.1c0,0,0.2-8.6,1.5-9.3c0,0,2-2.9,4.2-3.2c0,0,1.8,0,0.7-4.1l-1.8-3.5c0,0-0.5-1,0.3-1.5  c0,0,1-0.7,0.3-2.7c0,0-1.8-6.2-0.5-7.2c0,0,2-2,1.7-3.8c0,0-0.5-2.8,0.3-3.5c0,0,1.7-1.2,1.2-3.8c0,0,0.3-4.4,1.5-5.1  c0,0,2.3-2.9-0.8-5.1l-4.3-3.3c0,0-2.9-2.5-6.3-3.5c0,0-0.7-0.3-4,3.5c0,0-1.5,2.7-4.8,2.9c0,0-6.7,2.5-7.2,2.7c0,0-7.3,1.2-7.7,1.3  c0,0-6.5,2.8-8.2,0.8c0,0-5.5-7.4-5.5-9c0,0-2-4.2-0.8-5.7c0,0,1.7-2-0.5-2.8l-7.7-3.7c0,0-2.5-1-2.8,1c0,0,0,5.7-3.8,3.7  c0,0-4.5-3.5-6.7-3.8c0,0-2.3,0.3-1-1.3c0,0,1.3-1.2,1.3-2.2c0,0,0.5-2.5,1.3-2.8c0,0,4.2-2.2,2.5-5.1c0,0-1.2-2-2.7-2.7l-2-0.8  v-0.1h0.7L773.8,18.7L773.8,18.7z" stroke="#FFFFFF" name="黑龙江省" stroke-miterlimit="10"/>
<path fill="#E3E3E4" stroke-linejoin="round" id="path11" d="M821.8,151.8  c0,0,1-0.3,3.5,1.5c0,0,0.8,0.2,1.3-0.2c0,0,0.5-0.5,1.5-0.3c0,0,2.5-0.7,2.7-1.2c0,0,1.2-1,1.5-1.2s0.8-0.8,1.8,0.2l1.5,1  c0,0,1,0.5,0.5,2c0,0-0.7,2,0.5,3.5c0,0,1.8,1.5,1,2.9c0,0-0.7,1.7,1.5,2.3c0,0,4,2,4.5,2.7c0,0,0.7,1,3.2,0.5c0,0,2.5-0.3,3.2-0.8  c0,0,1.3-2.7,2.7-2.7c0,0,1.5,0,2.2,1.2c0,0,2.8,1.7,4.2,0.2c0,0,1.8-2.8,3.5-2.9c0,0,1.7-1,2.3,0.7c0,0,1.7,4,5.2,4.5  c0,0,3.7,1.5,6.9-1.3c0,0,2-2,4-1.2l4.5,1.2c0,0,2.2,1.7,2.3,2.2c0,0,1.3,2.3,1.5,3.2l-0.2,3.7c0,0-0.2,1.5,2,0.8c0,0,4.2-2,6.4,0.2  c0,0,3.8,5.3,4.2,5.7l3.3,3.2c0,0,1.2,1,2.3,0c0,0,2.2-0.8,1.2-2.7c0,0-1.8-2.3-1-3.5l4.2-4.5c0,0,2-1.2,2.2,0.8  c0,0-0.7,3.2-0.5,3.7c0,0-0.3,1.5,3.2,3.2l4.7,6c0,0,2.9,4.5,6.6,2.2c0,0,1.5-0.8,1-4.7c0,0,0.3-1,2.2-1.8c0,0,4-1.3,4.5-2.8  c0,0,1-2.2,3.2-0.8c0,0,1.7,2.2,2.8,0c0,0,1.7-3.8,2.5-3.8c0,0,0.7-0.7,1.2,0.8c0,0,1.7,4.8,1.7,5.8c0,0,1.5,1.3,2.9,1.2  c0,0,3.2,0,3.8,0.7c0,0,1,0.5,1.2,1c0,0,1,0.7,1.7,0.3c0,0,4.7-0.2,5.3-0.2c0,0,0.8-0.2,1,0.5c0,0,0,5.2,0.3,5.5  c0,0,0.3,2.8-1.7,4.3c0,0-1.5,2.5-5.2,2.7c0,0-1.8,0.3-0.8,2.3l2.7,4.8c0,0,0,0.3-2-0.2c0,0-4.7-0.5-5.3-2.9c0,0-1.5-6.2-4.7-5.8  c0,0-4-0.5-3.8,1.2c0,0-0.2,5.8,0.2,7.3c0,0,0.7,2.8,0.2,3.7c0,0-1.7,2.2-4.7,1.5c0,0-1.5,0.5-2,4c0,0-1.2,4.2-4.8,6.3  c0,0-5.5,2-6.6,1.5c0,0-4.8-1.2-5-0.7c0,0,0.7,2.5,0.7,4.7c0,0,1.3,2.8,2.5,3.8c0,0,2.7,2.7,2.5,3.3c0,0-0.7,2.7-2.2,3.5  c0,0-4.2-0.7-5,0.7c0,0-0.7,0.3-1.5-0.2h-1.7l-3.8-0.5c0,0-3.7,0.8-4.5-0.2c0,0-4-4.7-4.7-3.7c0,0-3.7,1.8-3.7,4.2  c0,0,0.7,1.7-1,3.5c0,0-4,6.5-5.8,11.5c0,0-0.2,0.7-1.2,1l-2,1c0,0-2.8-1.3-2.2-2.5c0,0,2.2-2.8-0.2-4c0,0-3.5-1.5-5-4.2  c0,0-2.5-3.3-3.3-4c0,0-1.7-1.7-1.7-3.5c0,0-1.2-3.2,0-2.2c0,0,2.8,2,0.7-2.3c0,0-1.5-2.2-2.9-2.8c0,0-2-3.2-2.8-4.3l-3.3-3.7  c0,0-2.8-2.7-3.3-5.5c0,0-1.2-4.5-3.2-2.3l-0.7,3.7c0,0-0.2,1.8-2,2c0,0-2.3,0.7-2.5-2.2c0,0,0.5-2.9-3.5-4.3c0,0-5.8-2.9-6.6-3.3  c0,0-1.3-0.5-2.7,0.7c0,0-6.8,2.3-6.6-0.5c0,0,0-2.2,2-3.3c0,0,2-1.3-1.2-4.7c0,0-2.7-1.8-2.8-4.3c0,0-1-1.8-1.8-2.2  c0,0-1.2-0.7-3.7-5c0,0-0.3-1-1.5,1c0,0-3.2,4.2-5.2,4.5c0,0-4,2.5-4.5,1.8c0,0-0.7,0.3-0.7-3.2c0,0,0.3-0.5-2-1.2  c0,0-3.2-1-2.7-4.2c0,0-0.2-2.2-1.3-3.8c0,0-1.2-1.3,0-3.7c0,0,2-5,0.2-6.5l-3.2-2.9c0,0-1.2-2.5-2.2-2.3c0,0-1.3,0.5-2.3,0.2  c0,0-3.3-0.5-1.8-1.8c0,0,1.8-1.2,2-2.7l0.2-3.7l2.5,2.5c0,0,4.3,1.7,4.7,2c0,0,0.7,0.8,1.3-1c0,0,0.5-2.3,3.2-0.5  c0,0,2.8,3.8,3.8,0.5c0,0,0.7-2-0.3-3.5c0,0-1.2-2.2,0.7-2.8c0,0,3.2-0.5,3.5-1.7c0,0,2-1.5,1.2-2  C823.8,153.3,821.6,152.2,821.8,151.8z" stroke="#FFFFFF" name="吉林省" stroke-miterlimit="10"/>
<path fill="#E3E3E4" stroke-linejoin="round" id="path12" d="M888.7,253.1  c0,0-4.3,3.5-4.5,4.2c0,0-2,2.2-4.2,2.2c0,0-3.7,0.2-4.2,5.2c0,0,0,1-2.7,3.3c0,0-2.9,2.3-3.8,4.3c0,0-2.8,2.7-1.5,6.7l0.3,0.5  c0,0-0.8,0-1.7,1c0,0-2.8,0.2-4.5-0.7c0,0-4.2,0-4.7,0.8c0,0-2.2,2.3-4,1.7c0,0-1.7-0.7-1.5,1c0,0,0.3,2-2.3,1.8  c0,0-1.3-0.5-1.5,0.7l-2.9,1.8c0,0-6.5,3.7-6.8,4.5c0,0-2,1.3-2.3,2.8c0,0-0.5,2.2-2.2,2.2c0,0-1.2-0.2,0,1.8c0,0,0.8,2.2-1.3,2.5  c0,0-1.2-0.3-1.3,1c0,0,0,2.2-1.8,0.7c0,0-1-1.3-1.2,0.7l-2.5,3.7c0,0-2.9,1.3-3.3,1.5c0,0-2,1.3-3.2-0.2c0,0-1-2.8-0.5-3.3  c0,0,2.3-1.7,2.5-2c0,0,2.5-0.8,3.2-0.7c0,0,2.3-1.3,2.2-1.8c0,0-2.2-2.3-0.2-3.7c0,0,2.2-1.5,2.7-1.5c0,0,1.7-2.2-0.3-1.5l-3.7,1.3  c0,0-2,0.7-2-2.7c0,0,0.2-2.5-0.7-3.3c0,0-1.8-2.5,0.2-4.2c0,0,2.5-1.5,3.2-1.5c0,0,0.7-0.8,0.8-2.3c0,0,0.3-1.5,1-1.5  c0,0,0.8-2.7,1.3-2.7c0,0,1.8,1.5,1.8-1c0,0-0.5-3.2,1.2-4.5c0,0,1.3-1-0.3-1.8c0,0-2.9-0.7-2.9-2.2c0,0,0-0.7-1.3-0.8  c0,0-2-0.7-2.3-2.7c0,0-1.8-2.3-2.9-1.3l-1.8,1.3l-4,0.8c0,0-2.8-0.8-3.5,0l-1.5,2.3c0,0-2.2,0.2-2.8,1.5l-1.5,3.5  c0,0-1.8,1.7-2.2,2.7l-1.5,1.5c0,0-0.3,0.7,1,1.2c0,0,0.5,0.5-0.5,1.2c0,0-0.7,0.7-0.8,2.2c0,0-0.7,2-4.2,2c0,0-1.5,0.3-2.3,1.8  c0,0-2.2,0.8-2.7,1.8c0,0-0.7-3.2-3.5-4.2c0,0-3.8-1.3-3.5-5.5c0,0-2.9,1-4.7,0.7c0,0-2.8-3.8-4.5-3.5c0,0-5,0.5-3.7-3.5  c0,0,3.7-1.7,3.3-4.3l1.3-4.7l1.2-0.5l0.8-5.7l-1.5-6.8c0,0-3.5-7.8-0.3-8.7c0,0,5,0.2,9.2,6l2.8,6.2l3.5-5.3c0,0,4.5-5.7,6.2-6.5  c0,0,6.7-2.2,9.2-5.3c0,0,1.2-1.7,6.5-2c0,0,2.5,0,2.9-2.9c0,0,0.8-4.3,3.2-3.3c0,0,4,1.2,4-1c0,0-1.5-3.3,2.2-2c0,0,5.3,1.7,8-0.8  c0,0,2.2-2.5,2.3-3.7c0,0,2.3-3.3,3.8-3.7c0,0,1-0.5,1.5-2.5v-4.7c0,0,1.2-1.5,2.7-0.7l8.7,4.7c0,0,1.2,0.7,1.2,3.3c0,0,0,2,2,1.8  c0,0,1.7,0.2,2.2-2c0,0,0-5,2-4.3c0,0,0.5-0.7,3.7,7c0,0,4.8,4.8,5,5.3l2.7,4.2c0,0,3.8,2.2,3.8,5c0,0,0.2,1.3-1.3,0.3  c0,0-0.8-0.7-0.5,0.8l0.7,3.5l2.5,2.9l3.7,4.5l2.9,1.8c0,0,2.5,0.7,0.8,3.3C886.9,249.7,885.4,251.6,888.7,253.1z" stroke="#FFFFFF" name="辽宁省" stroke-miterlimit="10"/>
<path fill="#E3E3E4" stroke-linejoin="round" id="path13" d="M737.1,273.8  c0,0-1.3-2.1-2.7-0.5c0,0-2.9,2.1-1.8,4.4c0,0,2.2,2.1-0.5,2.4c0,0-2.3-0.2-3.3,1.5c0,0-1.5,1.7-3.9,1.7c0,0-2.8,0.8-0.7,2.9  c0,0,1.3,1.9,2.2,2.1c0,0,1.2,0.5-0.2,2.6c0,0-3.6,1.7-3.6,2.6c-0.2,1.5,0.2,5.1-1,5.8c0,0-2.9,2.2-1,3.6c0,0,3.9,3,5.2,2.6  c0,0,2.8-1.7,4.6-1.9c0,0,4.6,0.3,5.6-0.2c0,0,4.7-1.7,5.9-1c0,0-0.2-1,0.7-1.5c0,0,1.8-0.8,2.9-0.2c0,0,4.2,0.2,3.2-4.9  c0,0-2.5-2.7-2.2-5.1c0,0-0.7-6.1,0.8-7.8c0,0,1.3-0.8,2-0.5c0,0,2.2-1.2,2.2-1.7c0,0,0.3-1.7-1.3-1.5c0,0-8.2,0.7-10.2-1.3  L737.1,273.8z" stroke="#FFFFFF" name="北京市" stroke-miterlimit="10"/>
<path fill="#E3E3E4" stroke-linejoin="round" id="path14" d="M758.8,321.1  c0,0-1.8-4.7,0.7-8.5c0,0-0.5-2.7,1.7-4.7c0,0,2.5-3.2,4.2-1.7c0,0-0.2-2.2-2.5-2.4c0,0-1.5-0.5-1.5-2.7c0,0-1.5-1.7-2.8-1.3  c0,0-1.8,1.7-2.5-0.8c0,0-0.2-2.9-1-4.1c0,0-1.3-0.8,0.8-1.9c0,0,3.3-1.9,1.8-3c0,0-4.2-2.7-5.7-2.6c0,0-4.6-1.9-4.1-3.4  c0,0,1-1.2,1.7-1.5c0,0-1.2-0.7-2.5,0.7c0,0-1.2,6.6-0.3,9.9c0,0,2.2,3.4,1.8,4.6c0,0-0.2,3.4-3.6,3c0,0-3.3-0.5-3.3,1.7  c0,0,0.7,3,2.5,3.2c0,0,4.9-0.2,3.6,3.9c0,0-0.3,1.9-0.8,2.9c0,0-2.7,4.2-2.3,5.5c0,0,1,1.6,6.4,3.4c0,0,3.2,1,5.4,0.7  C756.8,321.8,758.3,321.6,758.8,321.1z" stroke="#FFFFFF" name="天津市" stroke-miterlimit="10"/>
<path fill="#E3E3E4" stroke-linejoin="round" id="path15" d="M764.8,263.4  c0,0-1.1,0.6-0.9-1c0,0-1-2.5-2.7-3c0,0-2.3-2.2-1.8-2.5c0,0,4-1,3.5-2.3c0,0-2.3-2.5-4.5-3.4c0,0-2.8-2.9-3.8-5.4  c0,0-2.9-5.1-4-5.1c0,0-2.5-0.5-5.2,2.7c0,0-0.7,2-4.2,1c0,0-1.3-0.8-3.5,2c0,0,0.2,2.9-0.3,3.4c0,0-1.2,0.7,0.2,2.8  c0,0,2.2,3.7-4.2,3.4c0,0-5.8-0.5-6.7,1.7c0,0-1,3.2-3.8,0.8c0,0-1-1.2-4.3,0.8c0,0-8.7,5.7-9.2,5.6c0,0-4,1.5-2.9-2.3  c0,0,0.2-1.3-0.2-3.6c0,0-0.7-5.2-2.8-4.7c0,0-4.2,1.3-5.2,3.4c0,0-0.3,1.3-1.8,1.8c0,0-1.2,0.2-1.3,5.6c0,0,0.7,2.5-1.5,2.8  c0,0-2.2-0.7-1.8,2.3c0,0,1,2.3-0.3,4.4c0,0-1.7,2.7,2.5,5.9c0,0,1.8,1.2,1.2,2.8c0,0,2.5,1.5,2.7,3.7c0,0,1.5,3,2.2,3.2l4.2,1l-6,3  l-3.7,2.8c0,0-1.8,2.3,0.7,2.9c0,0,3.8,0.5,4.5,0.5c0,0,2.7-0.7,2.9,1.8c0,0-0.7,2.2,1.8,4.4c0,0,1,0.7-0.3,5.1c0,0-0.3,4.2-1.8,4.7  c0,0-1.3,1-5.8,0c0,0-1.2-0.7-2.8,2.2c0,0-2,1.8-0.3,3c0,0,1.7,1.5-0.8,3.9c0,0-2.9,2.3-2.3,6.6c0,0-0.2,3,3.2,3c0,0,4,1.8,5.2,4.7  c0,0,0.7,4.1,2.8,4.4c0,0,2.7,2.3,0.3,4.4c0,0-4.8,7.4-4.8,8.8c0,0-0.5,3.4-1,4.1c0,0-3.5,4.2-1.7,6.6c0,0,1.8,2.5,3.5,2.2  c0,0,3.3,0.5,4.3,1.5c0,0,4.7,2.3,6.5,1.8c0,0,6.5,0.7,7.5,0.7c0,0,4.2,0,5-0.8c0,0,0.5-1.7,2.9-0.8l5.3,0.5c0,0-0.3-3.7-2-3.9  c0,0-2.8,0.3-2-2.7c0,0-1.3-4.1,1.2-5.4c0,0,3.3-0.7,4.5-2.9c0,0,1.5-3.4,1.5-4.9c0,0,0.5-1.8,2.5-3.7c0,0,2.2-3,2.7-4.4  c0,0,1.7-1.7,4.2-1.3c0,0,5.2-6.7,8-6.7c0,0,5.3-0.7,7-1.7c0,0,2.9-2,3.3-3.4c0,0,2.7-1.2,3.5-1.2c0,0,0.7-1,1.5-1.3  c0,0,1.3,0,0-1.8c0,0-2.5-2-2.9-2.7c0,0-1.5-2-2.2-2.3l-1.2-2.2c0,0-2.8,2.5-5.5,1c0,0-6-1-8.2-3.2c0,0-0.3-1.8,0.3-2.9  c0.7-1.2,0-0.3,0-0.3s3.2-4.7,2.5-7.2c0,0,0.2-1.3-2-2c0,0-3.2,0.5-3.7-2c0,0-1.5-3-2.9-2.2c0,0-4,2.3-4.7,1.7c0,0-6.3-0.2-7,0.7  c0,0-2.7,2.5-5,0.2c0,0-5-2.3-2-4.2c0,0,2.2-1.2,1.8-3.9c0,0-0.8-3.2,2-4.2c0,0,3.7-2.2,1.8-3.7c0,0-5.3-3.9-1.7-4.7  c0,0,3.5-0.5,4.2-2.3c0,0,2.3-2,3.3-1.3c0,0,2.7-0.3,0.5-2.5c0,0-0.8-2.9,1.8-4.1c0,0,1.5-2.2,3.2,1.5c0,0,2.2,3.9,4,3.9  c0,0,4,1.2,5.8,0.8c1.8-0.3,0.2,0,0.2,0s4.8-0.7,3.7,1.3c0,0-3.5,2.7-3.3,3.4c0,0,1,1.8,2.9,2.7l4.2,1.8c0,0,3.2,1.5,3.2,2.3  c0,0-0.2,0.7-1.8,1.5c0,0-2.3,0.8-1.5,2.7c0.8,1.8,0.2,0.2,0.2,0.2l1.5,4.4c0,0,0.8,1.8,2.3,0.5c0,0,2.8-0.5,2.8,2.8  c0,3.4,0,0.2,0,0.2s0,1.5,1.5,1.3c0,0,2.3,0.5,2.5,2.5c0,0,2.2,1.5,2.2,2c0,0,0.8,1.8,3.3,0.2c0,0,3.8-2.8,5-2.7  c0,0,4.3,0.3,5.5-1.8c0,0,2.5-2.9,2.5-4.4c0,0,0.3-3.7,0.5-4.7c0,0,1.2-2.5,3.3-3.4c0,0,2.9-1.8,3.7-2.5c0,0,2.2-2.3,2-2.5l-1.7-3.7  c0,0-1.7,0.3-4.3-2.5c0,0,0-3.9-2.3-3.9c0,0-4,2.3-4.8-0.5c0,0-0.7-2.3-4.3-2.3c0,0-4.3-0.5-2.5-2.9c0,0,2.1-0.4,2.6-2.1l1.8-7.8  c0,0-7.4,1.6-8.7,1.3L764.8,263.4z" stroke="#FFFFFF" name="河北省" stroke-miterlimit="10"/>
<path fill="#E3E3E4" stroke-linejoin="round" id="path16" d="M849.7,472.1h-0.2  c-0.3-0.2-7.5-4.7-8.2-7.8c-0.2-0.7,0-1.2,0.3-1.7l0.2-0.2c0,0,2.7-1,2.7-2.7v-0.1c0.2-0.3,2-3.5,2.9-4.3c0-0.8-0.2-4.5-2.5-5.7  c-0.2,0-0.2-0.2-0.2-0.3s0.2-0.3,0.3-0.3c0.1,0,2.3-0.5,3.2-0.5c0.2,0,0.3,0,0.5,0.2s2.3,1.8,3.7,2.7c0.5,0,2.3-0.2,3.8-0.2  c1.5,0,1.8,0.2,2,0.3c0.5,0.3,1.7,1.7,1.5,2.7c-0.2,0.3-0.5,0.7-1.2,0.7l0,0l0,0c-1-0.2-5.5-1-6-1c-0.5-0.2-2.9-0.8-4-1.7  c0,0.2,0.2,0.5,0.3,0.8c0.2,0.2,1.8,2.7,5.5,3.5c0,0,0,0,0.2,0s0,0,0,0s0-0.2-0.2-0.7c0-0.2,0-0.3,0-0.3s0.2-0.2,0.3-0.2l0,0  c0.2,0,2.3,0.3,2.9,1.2v0.2c0.2,0.7,0.5,2.2,1.3,2.7c0,0,0,0,0.2,0c0.7,0.8,2.8,3.3,3.2,3.8c0.2,0.2,1,2,0.3,2.9  c-0.2,0.3-0.5,0.7-1.3,0.8c-1.8,0.2-4.7,0.3-5.2,0.7l-6.3,4.7C849.8,472.1,849.8,472.1,849.7,472.1z" stroke="#FFFFFF" name="上海市" stroke-miterlimit="10"/>
<path fill="#E3E3E4" stroke-linejoin="round" id="path17" d="M742.1,342.9  c0,0,4-4.8,6.8-6.2c0,0,7-0.5,9.1-2.5c0,0,2.2-1.8,2.3-2.5c0,0,1.2-1,2.3-1c0,0,1.3-0.3,1.8-1c0,0,1.5-0.5,1.7-1c0,0,2,1,2.2,1.5  c0,0,0.2,2,2.2,1.5c0,0,0.3,0.2,0.7-2.2c0,0,1.5-0.5,1.8-0.3c0.3,0,1.3-0.7,1.8-0.8c0,0,0.5-0.8,1,0.5c0,0,0.5,1.7,2.2,0.5  c0,0,2.9-3.8,4-1.2c0,0,0.3,1.7,1.7,0c0,0,1,0,1.7,1.5c0,0,0.5,1.7,0.5,2.9c0,0,1.3,1.8,1.2,2.3c0,0-1.3,1.5-1.2,2.5l0.5,2.8  l-1.7,1.5c0,0-0.3,0.8,0.3,1l2.8,2.2c0,0,0.5,1.2,1.7,1c0,0,1.2,0.5,1.5,0.8l1.3-0.5c0.2,0,2.7,0.3,3.2-0.2c0,0,2,0.3,2.7,0.8  c0,0,0.3,0.5,1.3-1l2.7-2.5c0,0,0.5-1,0.2-2.2c0,0-0.8-2.3,1.3-2.3c0,0,3.3-0.3,4.3-2.8c0,0,0.8-2.8,0.7-3.5c0,0,0.8-1,2.2-1.2  c0,0,3.7-1.5,4.5-2.5c0,0,1.5-1.8,4.2-0.5l5.5,2.9c0,0,1,0.3,2.2-0.2c0,0,1.5-0.3,1.8,1.2c0,0,1.2,2.9,5.7,1c0,0,0.8-1.5,1.8-0.8  c0,0,0.7,0.7,1.5-0.7c0,0,0.5-1.5,2.3-0.7c0,0,1.5,1.5,2.7,0.7c0,0,3.2-0.7,3.5-0.2c0,0,2.5-0.3,3.2-0.7c0,0,2.2-0.3,0.8,1  c0,0-1.5,1.3,0.3,3.5c0,0,1,1.3-1.2,1.5c0,0-2.8,0-1.2,1.8c0,0,2.9,0.5,1.5,1.8c0,0-1.7,1-2,2.8c0,0-0.2,0.8-2.8,0.7  c0,0,0.2-1.3-0.5-1.7c0,0-1.5-2.8-2.3-1c0,0-0.5,3.3-2,0.7l-0.3-0.7l-1.5,2.9c0,0-2.7,1.7-3.2,2.2c0,0-1.2,2.8-2,1  c0,0-0.8-2.5-1.7-0.2c0,0,0.7,2-1,2.3c0,0-2.9-0.3-3.7,0.8c0,0-0.3,2.3-2.2,1.7c0,0-4-1.3-4.5,0.2c0,0-0.7,1.8,1,1.3  c0,0,3.8-1,3.2,1.8c0,0-1.3,2.8-3.5,0.7c0,0-1,2.2-0.7,3.3c0,0,0.5,1.5,1,1.5c0,0,0.3,0.5-0.5,1.2c0,0-2.8,2.5-4.3,1  c0,0-2.3-2.2-2.5-2.5c0-0.2-0.8-0.3-1,0.3c0,0-0.2,1-1.2,1.2c0,0-0.8,0.5-0.2,1.5c0,0,1.2,0.2,0.7,2.5c0,0,0.3,1.7-1.5,2.2  c0,0-1.2,1.5-0.5,3.2c0,0-2.3,2.2-2.2,2.9c0,0-0.2,0.5-1.8,0.7c0,0-2.7-0.5-3.2,1.8c0,0-0.8,4.5-1.5,5.3c0,0-0.8,3.2-1.3,3.7  c0,0-1.7,1.2-2.5,1.3c0,0-3.3,1.8-4.2,1.7c0,0-1-0.5-1.7,3.8c0,0,0,3.5-2.8,4.2c0,0-2.5,1-2.8,2.9c0,0-1,4.8-4,4  c0,0-1.2,0.2-1.7-2.3c0,0-1-2.8-3.7-2.7c0,0-1.5-1.2-2.7,3.2c0,0-2.2,2.8-5,2.3c0,0-4.5-3.5-6.3-0.8c0,0-1,1.3-2.3-1.2  c0,0-3.8-6.7-7.5-6.2c0,0-4.2-0.3-5,7c0,0-2.3,1-2.8,2c0,0-3.7-0.2-5,0.7c0,0-2.9,1.2-5.3-1c0,0-4.5-2.3-5-3.3c0,0-5-4.3-6.7-4.7  c0,0-2,0-2.9,0.5c0,0-2.9,1.7-1.2-1.5c0,0,2.9-7,5.8-7.7c0,0,2.3-0.7,2.3-2.7c0,0-0.2-1.7,1.7-2.3l3.2-2.8l4.8-3.3c0,0,2-1.7,2.2-2  c0,0,0.5-1.3-0.7-0.8c0,0-2,0.7-3.3,1.7l-4.3,2.3l-3.2,2c0,0-2.3-1.7-1.5-2.5c0,0,2.3-2.7,2.3-4.2h0.7c0,0-0.7-3.2-1.3-3.5  c0,0-4-0.7-2.8-3.2c0,0-0.3-4.3,0.2-4.7c0,0,1.8-1.8,3.5-1.8c0,0,1.3-0.8,1.7-2c0,0,1.8-4.5,1.8-5.5c0,0,0.7-2.7,2-3.2  c0,0,1.2-1.8,1.5-2c0.3-0.2,1.3-3.3,2.5-3.7C738.8,344,741.3,343.2,742.1,342.9z" stroke="#FFFFFF" name="山东省" stroke-miterlimit="10"/>
<path fill="#E3E3E4" stroke-linejoin="round" id="path18" d="M650.5,307.7  c0,0,1.3,2.9,0.2,4.3c0,0-3.2-0.7-3.2,0.7c0,0,0.8,7.2-0.3,7.7c0,0-2.3,0.2-2.3,3.5c0,0-0.7,3.5-0.5,4c0,0-0.2,2.5-0.5,2.9  c0,0-3.3,2.9-4.5,4.7c0,0-3.7,5.3,1.3,9.1c0,0,2.7,1.8,1.2,2.3c0,0-1.5,1.5,0.2,2.8c0,0,0.7,1.3,0,2.9l-0.8,4.5l-3.2,4.2  c0,0-0.8,0.8,0,4.2c0,0,1.5,7.3,1.3,8.2c0,0-1.7,3.7-0.5,5.3c0,0,2.9,7,2.9,9.5c0,0-0.5,3.3-3.5,10.7c0,0-2.8,7.3-1.7,9.2  c0,0,1.8,3.7,4.5,2.9c0,0,5.5-0.5,6.3-1.8c0,0,4.2-4.3,6.2-4.3c0,0,5.5,0.3,6.5-0.8c0,0,5-4.5,8-3.8l-0.2-3.8c0,0-0.2-1.3,1.7-1  c0,0,4.3,1.2,6.3,0.2c0,0,6.8-1.3,8.7-1.3c0,0,2.8,0,7.8-5c0,0,3.2-2,3.2-7c0,0-0.3-10.8,1.5-12c0,0-3.7-0.2-3.8-4.7  c0,0,0.8-2.9,2.2-4.2c0,0,1.7-7.7,3.2-8.9c0,0,4-5.7,3.5-6.7c0,0-1.5-2-2-2.3c0,0-1.7-2-1.8-3.7c0,0-0.3-2.5-4.5-5c0,0-4.5,0-4-4.5  c0,0,0.3-3.8,1.8-5c0,0,2.7-2.8,1.8-4c0,0-2.2-1.2-0.8-2.8l2.5-2.9c0,0,0.8,0,1.7,0.2c0,0,5,1.5,6.2-1.2c0,0,1.3-6.8,1.8-7.5  c0,0,0-0.7-0.7-1.5c0,0-2.2-1.7-1.8-4.3c0,0,0.2-2.3-2.5-2.2c0,0-6.5,0.5-6.3-1.5c0,0-0.3-1.7,1.3-2.5c0,0,2.5-1.8,2.5-2  c0,0,5.3-2.8,6.2-3.2c0,0-2.2-1.2-3.8-1.2c0,0-2.2-2.9-2-4.3c0,0,0-2.5-2.8-2.9c0,0-0.2,3.8-1.2,4.5c0,0-4,2.2-4.7,2.9  c0,0-1.5,2.5-6.2,2c0,0-4-0.5-5.2,0.8c0,0-4,4.5-5.2,4.2l-4-1.3c0,0-2-0.3-2.5,1.2c0,0-1.3,1.3-1.7,3.3c0,0-2,5.5-3.8,7.2  c0,0-1,1-4.5-0.5c0,0-2.2-1.2-3.5-0.7l-2,1.8L650.5,307.7L650.5,307.7z" stroke="#FFFFFF" name="山西省" stroke-miterlimit="10"/>
<path fill="#E3E3E4" stroke-linejoin="round" id="path19" d="M650.5,307.6l-1.7,3.3  l-2.8-1.8c0,0-1.5,0.2-2.3,1c0,0-2.5,2.7-2.9,4c0,0-0.3,2.3-2.7,1.2c0,0-2-1.3-3.5-1.2c0,0-2.5-0.5-2.8-1.2l-2-1.2l1.7,4.2  c0,0,0.8,0.7-1.7,1.3c0,0-3.7,0.8-4.2,2.2l-1.3,3.2c0,0-1.3,2-2.8,2.9c0,0-2.5,0.7-2.9,1.7l-4.3,6c0,0-3.2,3.8-2.7,5.3  c0,0,3.3,3.7,1.5,5.8c0,0-0.5,0-1.3-0.8c0,0-1.7-1.5-2,1.2c0,0,0,4.5-1.5,4.8l-9.8,1.8c0,0-1.2,0.5-2.2-1c0,0-1.8-3.2-2.7-3.5  L590,346c0,0-1.7,1-1.7,1.2l-4.2,2.3c0,0-0.8,0.8-1.2,2.7l-1,3.3c0,0-1.3,1,0.2,2.3c0,0,2.8,2.5,0.5,3.5l-1.2,0.6l0.9,1.3  c0,0-0.5,4.7,4.8,5.2c0,0,1.7,0.3,2.9,1.3c0,0,4.6,4.1,5.9,4.1c0,0,1.2,0,2.3-0.3c0,0,1.1,0,2.1,1.5c0,0,0.6,2,2.3,2  c0,0,2.7,0,2.9,0.3c0,0,2.4,3.6,0.5,8.9c0,0-1.9,3.2-2.1,4c0,0,0,2.8,1.4,4.3c0,0,2.3,3.2-0.1,4.2c0,0-2.5,2.4-4.1,2.3  c0,0-2.9-0.7-4.9-0.2c0,0-4,1.1-5.3,0.3c0,0-3.8-1.7-2.8-0.3c0,0,3,5.5,2.5,6.5c0,0-0.9,0.9-4.2,1c0,0-3.7,1.1-5.5-0.1  c0,0-2.3-0.8-6.7-4c0,0-5.4-0.2-5.4,2.6c0,0,0.4,3.7,0.2,4l-4.2,4.3c0,0-0.5,0.5,2.5,1.7c0,0,7,2.9,4.5,3.9c0,0-3.2,0.9-3.2,2.1  c0,0,0.2,2.6-0.6,3.2c0,0-1.3,1.3-1,2.9c0,0,1.9,5,1.9,5.7c0,0,0,2.5-2.3,1.5c0,0-5.3-1.8-7.1-0.6c0,0-4.5,2.2-4.7,4.7  c0,0,0.2,1,1.8,2c0,0,2.8,3.8,0.9,5.3c0,0-3,2.2-5.1,2.4c0,0-1.5,0-1.3,1.7l0.1,1c0,0,4.9-0.4,5-0.4c0.2,0,2.8-1,3.3-1.5  c0,0,0.8-0.8,2,0.7c0,0,2.2,2.3,4.7,1.9c0,0,4.3-0.7,6-1c0,0,5-1.2,8.3,1c0,0-0.7,4.2,3.3,3.2c0,0,2.8-1.5,3.3-0.7  c0,0,3.5,5.3,6.2,5.8c0,0,1.7,2,6.7-0.3c0,0,2.3-0.8,4-0.3c0,0,1,0.2,1.2,0.5c0,0,2.8,0.3,3.3,1c0,0,7.7,5.2,8.5,4.7  c0,0,3.2,1.5,3.2,2c0,0,2.9,2.8,4.5,2.8c0,0,2.7,0,3.3-0.8c0,0,0.5-4.3,0.5-5.3c0,0-0.8-4-2.2-6c0,0-1.2-4.3,1.5-5.5  c0,0,4.7-0.7,6-0.5c0,0,4.2-0.8,4.3-1.5l-1.2-4l-3.5-0.9c0,0-4,0.5-3.8-3.3c0,0-1.5-1.7-4.2-2c0,0-3.5-0.5-1-1.5  c0,0,4.2-1.8,6.8-0.7c0,0,4.3,2.2,7.8,1c0,0,5.8-1.5,7-0.5c0,0,2,1.5,3.8-0.3c0,0,1.2-1.3,3.2-0.3c0,0,0.2-5-0.2-5.5  c0,0-0.7-4.7-7.7-8.3c0,0-0.7,0.2-0.5-4.8c0,0-0.3-1-2.8-2c0,0-0.5-0.5-0.2-1.3c0,0,2-2.8-4.7-7.2c0,0-2.7-1.7-0.3-7.7l2.7-7.5  l1.8-6.2l-1.5-6.2c0,0-2.2-5.2-2-5.8c0,0,1.5-3.2,0.8-5.7c0,0-1.7-8.3-1.3-9.1c0,0,3.3-4,3.7-6.5l0.8-5c0,0-1.7-2.2-0.8-2.9  c0,0,1.8-1.7,0.5-2c0,0-5.7-3.2-3.3-8.9c0,0,2.7-4.3,4.2-4.8c0,0,1.5-0.2,1.7-3.7c0,0,0.5-2.7,0.5-4c0,0-0.3-3.2,2.2-3.8  c0,0,1.3-0.7,0.8-4.7c0,0-1-3.8,1-4c0,0,2.3,0.8,2.5-0.5C651.4,311.1,651.2,308.3,650.5,307.6z" stroke="#FFFFFF" name="陕西省" stroke-miterlimit="10"/>
<path fill="#E3E3E4" stroke-linejoin="round" id="path20" d="M697.4,370.6  c0,0-0.8,0.8-0.8,2.7c0,0-1,5.8-0.3,8.2c0,0,0.2,4.5-1.5,6.2c0,0-4,4.5-6.3,5.8c0,0-2.7,1.5-5.8,1.5c0,0-6.3,0.8-7.8,1.5  c0,0-2.7,0-3.8-0.3c0,0-2.7-0.8-2.5,0.5v3.8c0,0-4.2,0.3-6.7,2.9c0,0-1.5,2.2-5.2,1.8c0,0-4-0.5-5,1.2l-3.8,3.2c0,0-0.5,1.3-6.3,1.8  l-2,0.3c0,0,4.2,2.3,2.5,6.3c0,0-0.2,0.7,1,1.3c0,0,2.3,0.7,2.2,2c0,0,0.2,4,0.3,4.2c0,0,3.2,2.2,3.5,2.5c0,0,4,3.2,4.2,5.7  c0,0,0.5,5,0.2,5.8c0,0,4,2.7,4.3,3.7c0,0,0.7,2.3,1.2,2.7c0,0,1.2,1,2.7,1.5c0,0,4,1.2,5,2c0,0,5,4.7,7.3,4.7c0,0,5,2,9.2,0.8  c0,0,5.8-0.7,7.8-1.3c0,0,5-0.3,5.8,0c0,0,5-0.2,7.2-2c0,0,1.7-1.5,1,1.8c0,0-0.8,3.5,1.7,7c0,0,2,3.8,4.5,5.2c0,0,1.2,1,2-0.5  c0,0,0.8-1.8,2.9-0.8c0,0,4.2,1.2,5.5,1c0,0,1.3,0,0.7,0.7c0,0-1.5,1.7,1.2,2.7c0,0,1.8,2,4.8,0.7c0,0,2.2,0.2,3.3-1.2  c0,0,1.5-1.5,2.2-0.5c0,0,1.3,1.7,1.3,2.3c0,0,0.5,1,1.8,1.2c0,0,1.2-2.7,1.8-3.8c0,0,2.7-4.5,5.2-4.7c0,0,3.8,0.2,3.2-3.8  c0,0-0.7-3.8,0.5-5.3c0,0,0.2-3.7-1-5.5c0,0-1.2-1.8-0.7-2.8c0,0-0.8-1.5-2.8-0.2c0,0-5.5,3.7-7.2,2c0,0-4.3-0.3-4.3-2  c0,0,0.3-2.5-1.3-3.3c0,0-4.5-1.3-4.5-2.7c0,0-0.8-2.5,0.8-2.2c0,0,2.9,0.7,4.7-0.7c0,0,2.3-2.2,2-5c0,0-0.3-2,1.5-3.2  c0,0,3.3-2.2,2.2-5.2c0,0-2.2-5.2-0.7-5.8c0,0,2.7-3.2,5.7-0.5c0,0,4.2,5.8,6.3,5.2c0,0,3.2-0.8,3.7-1.8c0,0,1-1,2.3-1.3  c0,0,2.8-0.8,1.5-3.5c0,0-2.8-2.9-2.3-4.5c0,0,0-2.5-2.5-1.7c0,0-4.3,1-4-1c0,0,0-4-2.9-2.7c0,0-5.7,1.5-6.5,0.3l-4.3-2.3  c0,0-7.5-5.7-7.7-5.8c-0.2,0-1.8-1.3-4.8,0c0,0-2.2,1.2-1-1.3c0,0,2.9-6.7,5.5-7.5c0,0,2.5-0.7,2.8-2.5c0,0,0-2.5,2-2.8  c0,0,2.8-2.7,3.5-2.9c0,0,5.2-3.2,5.7-4.2s0.2-0.2,0.2-0.2s1.8-2.2,0.2-1.7c0,0-3.3,0.5-7.2,3.8l-3.8,2.3c0,0-2.2-1.3-1.3-2.3  c0.9-1,0-0.2,0-0.2s2-2.8,2-4.2c0,0-6.2-0.8-6.3-0.7c0,0-2,1.5-2.8,1.7c0,0-5.2,0.7-6.8,0c0,0-4.5-0.2-6-0.5c0,0-6.2-1.8-6-2.5  C701,371.6,697.9,370.6,697.4,370.6z" stroke="#FFFFFF" name="河南省" stroke-miterlimit="10"/>
<path fill="#E3E3E4" d="M748.3,403.4" stroke-miterlimit="10" id="path21" stroke-linejoin="round" stroke="#FFFFFF"/>
<path fill="#E3E3E4" stroke-linejoin="round" id="path22" d="M798.8,387c0,0-4,2-5,2  c0,0-1.8,0.3-1.8,2.3c0,0,0,4-1.8,5c0,0-2.3,1-2.7,1.3c0,0-1.5,1-1.8,4.2c0,0-0.7,2.2-2.5,2.2c0,0-2.2,0.5-2.5-2.7  c0,0-0.7-2.2-3.8-2.5c0,0-2.2-0.5-2.3,2.3c0,0-2.2,4.7-6,2.8c0,0-2.8-2-4.8-0.8c0,0-2,2.7-3.5-1c0,0-3.8-6-6.5-5.7  c0,0-2.7-1.3-5.2,3.8c0,0-0.8,2.9-0.8,3.5c0,0,2.9-1.7,4.2-0.2c0,0,0.8,2.2,3.3,1.3c0,0,6,2.9,6.3,4.3c0,0,1,4.3,4.7,3.7  c0,0,6.3-0.5,7.3,0.5c0,0,1.2,1.5,0.8,2.8c0,0-0.2,1.5,2.3,2.3c0,0,1.3,1,3.3-0.2c0,0,4.5-3.7,3.5,0.8c0,0-1.5,3.2-1.8,3.8  c0,0-1.2,1.8,0,3.5c0,0,4.2,3.8,4.5,3.8c0,0,1.7,3.7,2.2,4.8c0,0,0,3.7,1.8,3.2c0,0,5,0.8,6.7-2c0,0,1.3-5,2.9-3.8c0,0,3.7,0,4.8,4  c0,0,2.3,4.8,0.2,5c0,0-2,0-6.3-1.3c0,0-3.5-1-3.7,1c0,0,2.5,2.3,2.3,3.8c0,0,0.2,1.5-2.8,3.7c0,0-1.7,0.8-0.8,4.5  c0,0,0.2,2.2,2.8,3.7c0,0,6,2.8,6.3,4.5c0,0-0.8,1.3-2.7,4.8c0,0-1.5,2.5,3.5,1.2c0,0,6.3-2.3,8-1.7c0,0,3.2,1.2,5.7,2.3  c0,0,2.8-2.2,4-2.2c0,0,5.8,0.3,8.3,1.5c0,0,2.7,1.5,3.2,2.7c0,0,2.5,2.8,4.8,0c0,0,1.8-4.8,4.7-4c0,0-1.8-2.5,0.2-3.3  c0,0,2-0.7,2.3-2.8c0,0,2.3-3.7,3.2-4.3c0,0-0.7-5.5-2.8-6.2c0,0-2.2,2-3.3,1c0,0-1.7-0.5-2.7-0.5c0,0-1.5-0.5-1.8-1.2  c0,0-3.7-2.8-6-1.8c0,0-2.7,1.3-3.2,1.8c0,0-0.5,0.5-1.3,0.3h-1.5l4.8-3.3c0,0,2.7-2.8,6.5,0.5c0,0,4.3,3.3,5.5,2c0,0,4-2.5,7.2-0.8  c0,0,8,2.5,8.3,2c0,0,1.8,0,0.8-2.7c0,0-2.7-4.7-8.9-5.7c0,0-2.2-0.7-3.3-2.9c0,0-4-3.2-7.2-4c0,0-4.2-1.2-2.5-2.5  c0,0-0.3-2.5,0-3.7c0,0,0.3-1.3-4-5.7c0,0-0.5-1.5-1.2-2c0,0-3.5-2.2-3.2-3.8c0,0,0.3-1.8-1-2.5c0,0,0-2.3-1.2-2.9  c0,0-1.5-1.2-1.8-3.5l-3.7-5c0,0-5-4.5-6.5-4.5c0,0-4.2-1-4.7-0.2c0,0-2.8,1.5-2.7,0.2c0,0,0.7-2.5-3.8-2c0,0-4,0.8-4-2.3  C799,393.9,797.7,387.9,798.8,387z" stroke="#FFFFFF" name="江苏省" stroke-miterlimit="10"/>
<path fill="#E3E3E4" stroke-linejoin="round" id="path23" d="M745.4,405.4  c0,0,3.8-3.3,6.2-2.3c0,0,1.8,2.7,4,1.8c0,0,5.5,2.8,6.3,3.7c0,0,0.3,3.8,2.7,4.2c0,0,8.3,0.2,8.9,0.5c0,0,1.5,1.7,1.2,3.5  c0,0,1.3,2.9,5,2.2c0,0,4.5-3.2,4.5-0.8v0.2c0,0-1.2,4-1.7,4.3c0,0-2.3,3.2,0.3,4.5c0,0,3.8,3.8,4,3.8s2.3,5.2,2.3,6.5  c0,0,0.3,1.5,2.5,0.8c0,0,4.5,0.3,5.5-1.7c0,0,1.5-3.7,1.8-3.8c0.3-0.2,2-0.2,2.9,0.7c0,0,2.2,0,3.3,2.9c0,0,2.2,4.5,0.5,5.3  c0,0-2.7,0.3-7.3-1.5c0,0-4,0-2.7,1.5c0,0,4.7,3.5,0.7,6.3c0,0-2.7,1.3-2.3,3.3c0.3,2,0,0.2,0,0.2s0,4.2,2.2,5c0,0,7.3,3.7,7.3,5.2  c0,0-2.7,4.5-3.2,5.3s1.7,0.7,3.7,0.5c0,0,6.5-2.5,9.1-1.5c0,0,4.5,1.8,5.8,1.7c0.7,0.3,0.5,1.8,0.3,2.9c0,0,0.7,4-2.5,6.3  c0,0-4.2,2.3-1.2,4.3c0,0,2.9,2.8,0.5,2.8c0,0-3.2,0.8-4.2-0.8c0,0-1-2.7-2-0.3c0,0-1.7,1-1.8,8.5c0,0-0.2,2.3-1.3,3.7  c0,0-1.7,2.7-2,4.2c0,0,0.3,1.3-1.8,2c0,0-4.5,2.8-5.8,5.7c0,0-1.7-2.5-5.5-2.2c0,0-2.2-0.5-2.3-0.8c0,0-0.3-1.5-2-0.8l-1,0.3  c0,0-2.9-0.2-3.5-0.8c-0.3-1.3,0-1.8-2-2.7l-2.8-2.2c0,0-1.8-0.8-2.3-0.2c-0.5,0.7-1,2.7-1,2.7s-1.5,4.7-2.3,4.8c0,0-6.8,0-4.8-3.3  c0,0,2.8-5.5,1.3-6.3c0,0-1.5-1.3-6.5,2.9l-3.7,2.7l-2.9,0.8c0,0-1.5-6.2-1.3-7.7c0,0-0.7-0.8-1.3-1.3c0,0-3.5-2-2.7-4.2  c0,0-0.2-0.7-1.2-1.7c0,0-3.5-1.3-1.7-3.8c0,0,4.2-5.2,2.9-5.7l-4.8-2.9c0,0-2.9-0.2-3.7,0c0,0-2.9-1.2-4.2-2.3l-1-1  c0,0,2-4.3,3.2-5.2c0,0,2.5-3.8,6-3.8c0,0,1.8,0,1-5.5c0,0,0-1.7,0.5-2.5c0,0,1-2.7-0.5-5.7c0,0-1-1.7-1-2.7c0,0,0.7-1.2-1.5-1.2  l-4.7,2.2c0,0-1.2,1.5-5.8-0.3c0,0-2.8,0-2.3-2.7c0,0,0.5-2-2.5-2.5c0,0-3.8-0.7-3.3-3.2c0,0-0.7-2,1.5-1.2c0,0,4.3,0.8,5.8-3.8  c0,0-0.5-4,1.2-5c0,0,3.7-2.3,2.8-4.8c0,0-2.3-5-0.8-6.2c0,0,2.8-2.9,4.5-1.3c0,0,4.2,3.7,4.3,4.2c0,0,1.7,2.8,5,0.8  c0,0,2.8-2.2,4.3-2.8c0,0,2.3,0,1-2.9c0,0-2.7-2.3-2.3-4c0,0,0.5-3.2-2.7-2c0,0-4.5,1.7-4.2-2.3L745.4,405.4z" stroke="#FFFFFF" name="安徽省" stroke-miterlimit="10"/>
<path fill="#E3E3E4" stroke-linejoin="round" id="path24" d="M818.5,467.2  c0,0,3.4-2.6,6.5-1.6c0,0,4.9,0.2,7.3,2.4c0,0,2.2,3,3.6,3c0,0,1.8,0.5,2.9-2.1c0,0,2.4-4.4,4.2-3.3c0,0,2.4,3,7.3,5.9  c0,0-4.4,2.8-4.9,4.3c0,0-0.8,2.4-2.7,1.9c0,0-1.8-1.2-2.1,0.7c0,0-0.5,2.4,0,3.6c0,0,1,3.6,1.7,2.4c0,0,2.1-1.2,2.6-1  c0,0,4.4-2.4,6.2-3.8c0,0,1.5-1.6,4.4,1.2c0,0,3.9,3.6,6.1,3c0,0,3.4,1.9,3.7,1.9l3.9-0.7c0,0,1.3,0.3-0.2,1.3c0,0-5.2,2.6-3.2,3.9  c0,0,4.6,0.8,1.8,2.9c0,0,1.2,2.1,0.2,2.6c0,0-0.8-0.8,1.5,3c0,0-0.5,1.6,0,2.3c0,0,2.2,2.8-1,2.1l-0.5-1.8c0,0-1-0.3-1.5-1.2  c0,0-0.8-2.1-1.5-0.2c0,0-0.3,2.8-1.7,1c0,0-1.7-2.6-2-1c0,0-0.2,1.9-1,2.6c0,0-1,0.8,1.8,1.3c0,0,3,0.3,2.7,2.8  c0,0-3.9,0.3-1.5,1.3c0,0,1.8,0.7,1,2.4c0,0-2.1,2.1-1.8,3.4c0,0,1.5,2.3,1.7,2.4c0,0-0.3,1.8,1.5,2.3c0,0,1.8,2.6,0.2,2.4  c0,0-3-1.8-3.4-0.5c0,0-0.7,3.3-0.8,3.4c-0.1,0.1-1.5,0.7-1.8-1c0,0-1.5-3.6-2.6-3.3c0,0-2.2,2.1-1.7,3.4c0,0,2,0.7-0.8,3  c0,0,0.2,2.8-2.1,3l-4.4-1c0,0,4.4,2.4,4.2,3.4c0,0,0.3,0.8-0.7,1.6c0,0-4.2,2.8-2,5c0,0,3,2.3,0.8,5.4c0,0-3.4-1.8-2.1-0.3  c0,0,2,1.8,0.2,2.8l-1.5,0.5c0,0-0.7-2.6-1.5-3c0,0-2.9-0.5-4.9,0.7c0,0-5.6,2.8-6.1,2.6c0,0-1.8,0.2-2.7-2.3c0,0-0.8-3.4-0.7-4.1  c0,0-1-1.6-1.7-0.7c0,0-3.4,5.2-5.9,5.7c0,0-1.7,1.2-6.2,0.2c0,0-2-0.2-1.5-3.4c0,0-0.2-2.1-1.8-3.4c0,0-2.7-3.6-2.7-6.2  c0,0-0.3-3.8-2.1-3.6c0,0-5.1,1.8-5.6,1.8c0,0,1.3-3.3,1.2-4.9c0,0-2.4-5.5-2.4-5.7c-0.2-0.2-0.5-1.8-3.6-2.6c0,0-2.1-1.8-2.6-2.1  c-0.5-0.5-2.9-3.4-1.5-4.9c0,0,5.6,0.8,2-2.6c0,0,2.9-4.3,5.1-5.4c0,0,2.6-0.7,2.6-3.4l3.2-6.9c0,0,0.2-7.6,1.3-8.3  c0,0,1.7-3.9,2.4-0.8c0,0,0.7,1.9,3.2,1c0,0,3.2-0.2,1.3-2.1c0,0-3.4-2.1-0.7-4.3c0,0,3.4-2.4,3.7-6.2c0,0,0.2-4.3-0.3-4.3  L818.5,467.2z" stroke="#FFFFFF" name="浙江省" stroke-miterlimit="10"/>
<path fill="#E3E3E4" stroke-linejoin="round" id="path25" d="M628,470.6  c0,0,1.3-5.2,0.3-7.7c0,0-3.3-5.3-1.8-7.2c0,0,0.3-2.7,3.2-2.8c0,0,8.5,0.2,8.9-1.7l-1.5-3.7c0,0-5.3,0.2-6.3-1.5  c0,0-0.8-1.5-0.8-2.2c0,0-0.7-1.5-2.5-1.8c0,0-4.7-0.8-3.3-1.8c0,0,4-1.5,5.5-1.5c0,0,7.2,1.8,7.5,1.8c0,0,5.7-0.8,5.8-0.8  c0,0,3.3-0.5,4.3,0.3c0,0,1.8,0.7,3.8-1c0,0,1-0.8,2.7,0.3c0,0,3.8,2.3,4,3.3c0,0,1,4.2,4,4.5c0,0,4.5,1.2,5.5,2.2  c0,0,3.7,3.5,5.5,3.8c0,0,4,1.7,7.2,1.7c0,0,6.7,0,7.5-0.5c0,0,4.8-1.5,7.3-1c0,0,6.3-0.2,7.8-0.8c0,0,3.7-2.8,2.8-0.3  c0,0-0.7,2.9-0.2,4.8c0,0,1.5,3.3,1.8,4.2c0,0,1.8,2.9,2.9,3.7c0,0,2.2,2,2.9,0.5c0,0,0.8-2.3,2.8-1.3c0,0,2.2,0.7,2.9,0.5  c0,0,3.3,0.5,3.7,0.7c0,0-0.7,1.7,0,2.3c0,0,2.5,2.3,4.7,1.8c0,0,3.8-0.3,5-1.8c0,0,1.5-1.5,2.5,1c0,0,1,2.5,2.5,2.5  c0,0,2.8,3.3,5.2,3.2c0,0,2.7-0.2,3.7,0.5c0,0,4.3,2.2,5.2,2.8c0,0,0,0.7-2,3.3c0,0-2.7,2.8-1.7,4.3c0,0,3.2,2.7,2.8,3.3  c0,0-0.5,1.8,1,2.8c0,0,2.8,1.7,2.9,2.7c0,0,1,7.7,1.5,7.7c0,0-2.3,0.3-5,0c0,0-5.5-0.2-5.7,0.2c0,0-0.3,2.7-2.2,3.3  c0,0-5.2,1.2-6.3,2.5c0,0-3.5,4.2-4.7,4.2c0,0-2.9,0.8-3.5,1.2c0,0-2.3,2-4,1.3c0,0-2.9-1.2-6.8,3.8l-2.3,1.8c0,0-7.2-0.5-6.8-3.8  c0,0,2.3-5.8,0-7.7c0,0-4-2.3-5.7-0.2c0,0-2.9,4.5-5.3,3.8c0,0-2.5,0.3-1.3-2c0,0,1.5-5.5-1.5-3.2c0,0-7,4.5-8.7,4  c0,0-4.7,0.7-7.3-1.3c0,0-4.2-2.8-9.7-4.2c0,0-5.8-0.3-8-1c0,0-6.3-2-8.7-1.8c0,0-5.8,1-5,3.2c0,0,1.5,2.5,2.9,2.8c0,0,1,1-1,2.2  c0,0-4,2.7-5.2,1.5c0,0-1.3-1.7-2.8-2c0,0-3.7-1.5-7,0.3c0,0-3.7,3.8-4.7,4.3c0,0-5.5,3.5-6,4.3l-2,1.8c0,0-0.3-3.3-2.3-2.5  c0,0-3.2,2-2.9-1.2c0,0,0.3-3.8-4-7.2c0,0-1.7-0.5-2.9,0.8c0,0-2.9,0.2-1.8-2.7c0,0,3.2-4.5,2.7-5.5l-1.5-3.2c0,0-2-2.5-1-3.3l5-2  c0,0,2.8,1,3.2,0.8c0,0,1.7-1.7,1.8-1.8c0,0,1-1.2,2.8,0.2c0,0,1.2,0.3,2.5-0.2c0,0,1.2-0.3,2.2,1c0,0,1.5,1.8,3.5-0.5  c0,0,3.7-5.3,5-5.7c0,0,5.5-1.2,6.2-2c0,0,0.3-5.2,0.8-5.7c0,0,0.8-2.9-3.5-5.3c0,0-0.7-1-5-1.3c0,0-1-0.5-0.5-1.8  c0,0,1-2.9-1.7-2.3L628,470.6z" stroke="#FFFFFF" name="湖北省" stroke-miterlimit="10"/>
<path fill="#E3E3E4" stroke-linejoin="round" id="path26" d="M606.5,461.8  c0,0,3.5,0.7,6,2.7c0,0,4.2,2.9,5,2.8c0,0,1.5-0.3,4.7,2.8c0,0,3.3,2.6,7.2,0.1c0,0,2.7-1.7,3.2,0.5c0,0-0.7,2.9,0.5,3.2  c0,0,4.6-0.8,7.5,4.2c0,0-0.5,4-0.8,4.5c0,0,1.5,3.9-0.3,4.3c0,0-6.7,0.5-8,3.2c0,0-3.3,7.2-5.7,4.5c0,0-0.5-1.5-2.9-0.7  c0,0-1.2,0.7-2.3-0.7c0,0-1.8-0.5-2.7,1c0,0-1.5,2-3.7,0.3c0,0-1.7-0.2-2.3,0.7c0,0-2.3,1-2.7,1c-0.2,0-1.7,0.3-0.5,1.8  c0,0,2,4,2.2,4.3c0.2,0.3,0.1,1.1-1.9,3.6c0,0-3.2,4.2-1,4.7c0,0,1,0.3,2.3-0.7c0,0,2.8-0.9,3.6,0.3c0,0,2,2.6,2.7,5.3  c0,0-0.2,4.5,1.7,3.5c0,0,2.3-1.8,2.9,0.2l4.6,6.2c0,0,1.2,2.3,0.2,4.2c0,0-1.3,3.5,0.5,7l-1.3,2.9c0,0,0.3,3.2-1.3,3.8  c0,0-1.7,1.3-3.7,0.2c0,0-1.5-0.2-2-0.7c0,0-1.3-2-1.2-2.7c0,0-0.3-0.5-1.3,0.3c0,0-1.8,1-1.7-1c0,0,0.7-5-1.3-4.2  c0,0-4.8,1.8-4-2.2c0,0,0.7-4,0.2-5c0,0-1-2.9-1.5-3.3c0,0-5.3,2.2-7.3,2.7c0,0-4.2,1-4-1.2c0,0,1-2.3-1.7-1.8c0,0-4.8-0.3-5.5,0.5  c0,0-0.8,0.3-0.3,2.9c0,0,1.5,1.2,0.5,2.9c0,0-1.7,2.3-4.2,0c0,0-2-2.2-3.7-0.2c0,0-2.8,1.7-2.7,2.8c0,0,1.7,2.5,0.3,2.7  c0,0-2.8,1.2-3.3,2c0,0-2.3,1-2-1.2c0,0,0-2.9-0.7-3.8c0,0-2.5-2.2-2.5-0.7c0,0,2,3.3,0.5,4.3l-1.4,0.9c0,0,0.2,0-0.3-1.2  c0,0-2.8-5.8-3.5-6.5c0,0-2.2,0.2-2.9-0.8c0,0-2.9,1-3.2-0.2l-4.2-7.2c0,0-0.2-0.7-1.3,0.3c-1.2,1-2,0.8-2.5-0.5  c-0.5-1.3-2.7-5-3.2-5.2c0,0,0.5-1,1.8-1.3c0,0,2-1.3,2.8-1.3c0,0,2-2.5,2.8-2.9c0,0,1.3-1.8,0.5-3.5l-3.2-2c0,0-1.2-0.7,0.3-1.5  c0,0,1.7-0.7,2-1.8c0,0,2-3.7,5.5-2.3c0,0,5.2,3.7,6.8,2.9c0,0,4.5-2.2,5.3,0.2c0,0,2.8,5.8,5.3,4.5c0,0,3.2-0.8,5.7-2.9  c0,0,2.2-3.2,2.5-4.3c0,0,0.3-2.5,1.8-3.5c0,0,1.8-2,1.2-2.9c0,0-0.8-1.5,0.3-2.8c0,0,1.3-1,2.9-0.8c0,0,4.5,1.3,5.5-0.8l2-4.7  c0,0,0.7-3.5,1.3-4.5c0,0,2.8-4.2,3.3-4.5c0,0,2.3-2,3.3-2.5c0,0,1.2,0,0.2-1.7c0,0-4.3-2.8-4.7-3.8c0,0-0.5-1.3,1-1.8  c0,0,2,0,1.7-3.3L606.5,461.8z" stroke="#FFFFFF" name="重庆市" stroke-miterlimit="10"/>
<path fill="#E3E3E4" stroke-linejoin="round" id="path27" d="M548.8,557.4l0.3-2.5  c0,0,2.3,0.7,2.9,0.8c0,0,1.5,0.5,3.8,0.3c0,0,3.8-1.7,5.6-1.7c0,0,4.3-0.5,5.8-1.7c0,0,1-0.7,0-1.8c0,0-2.9-4.8-3.3-5.1  c-0.3-0.3-2.5-1-3.2-0.7c0,0-1-1-1.5-1.3c0,0-5.6-3.8-4.9-4.6c0,0,0.3-2.3,2.9-2.5c0,0,2.5-0.7,2.8-1.5c0,0,0.8-0.5,2.2,0.3  c0,0,1.8,1,2.5,1.7c0,0,2.3,1.8,4.6,0.5c0,0,1.5-0.2,2-0.3c0.5-0.2,1-1.5,0-3.2c0,0-1.3-2.2,0.2-1.8c0,0,2.5,1.3,2.3,2.3  c0,0-0.3,4.3,0.5,4.3c0,0,1.5,0.2,3.5-1.5c0,0,2-0.7,1.5-1.7c0,0-1.8-1.5-0.3-2.5c0,0,2.3-1.8,2.7-2c0,0,1.3-1.7,3.5,0.5  c0,0,2.7,2.5,3.8-0.2c0,0,1.2-1.8-0.7-3.2c0,0-0.2-2.2,0.2-2.3c0,0,1.3-1.2,3.2-1c0,0,2.9,0.2,3.7-0.3c0,0,1.2,0.2,0.7,1.3  c0,0-0.2,1.8,1.2,2c0,0,2.9,0.3,6.6-1.7c0,0,2.7-1.7,2.9-1c0,0,1.2,2.9,1.5,3.6c0,0,0.3,2-0.2,3.6c0,0-0.5,3.3,0.3,3.3  c0,0,1,0.3,2,0.3c0,0,2.3-0.8,2.8,0.2c0,0,0.3,4.9,0.8,4.9c0,0,1.2-0.5,2-0.5c0,0,1.3,2.8,1.5,3.2c0,0,2.7,0.7,3.3,0.8  c0,0,2,0.2,3.2-1.5l0.2-2.8l1.2-2.9l2.8,5.3c0,0,0.2,1.5-0.8,4.1c0,0-0.5,2.9,1.2,5.6c0,0,3.3,4.1,0,5.4c0,0-3.3,3.2-3.3,3.9  c0,0-1.3,2.8-2.8,3.6c0,0-3.5,2.7-3.3,3.2c0,0,0.7,0.8,3.2-0.3c0,0,5.8-2,7.3-1.5c0,0,2.3-0.3,3.2,2c0,0,1.7,2.8,0.2,4.4  c0,0-2.9,2-2.5,4.9c0,0,0.7,2.3-0.5,2.9c0,0-2.2,1.5,0.3,2.2c0,0,2,0,2.7,3.8c0,0,1.3,2.2-0.3,2.8c0,0-1.5,2-2,2.8  c-0.5,0.8-2,1.3-3.7,0.8c0,0-4.2-0.8-3.8,1c0,0-0.7,1.3,2.2,1.8c0,0,2,0.3,0.3,2.2c0,0-0.5,1.7-2.3,1.5c0,0-2.9,0.3-3.2-0.8  c0,0-1.2-2.3-1.8-2.3c0,0-1.5,1.5-1.5,2.8c0,0-0.2,0.8-0.5,2c0,0,0.2,1.8-1.2,1c0,0-3.3-2-5.1-1.8c0,0-1-0.5-2.5,2.3  c0,0-1.8,3.9-5.4,4.3c0,0-3.8-0.3-5.9-2c0,0-3.5,0-4.2-1.2c0,0-3.5-3.9-4.9-4.6c0,0-2.3-1.2-4.8,0.5c0,0-2,0.8-1.3,5.9  c0,0-0.3-0.8-6.1,2.3l-6.8,2.7c0,0-1.8,0.7-2.7,3.8c0,0-0.5,3.8-2.9,2.7c0,0-8.6-2-9-2.7c0,0-5.8-2.5-8.3-2.3l-7.2,4  c0,0-6-0.2-4.4-1c0,0,2.8-2.3,2.3-3.3c0,0-1.5-2.2,0-3.2c0,0,3.5-0.9,1.3-2.9c0,0-1.1-0.5-2.7-2.7c0,0-2.7-1.7-3.3-1.7  c0,0-1-2.3-2-2.8c0,0-2.6-0.9-1.1-2.9c0,0,3-4.3,2.8-6.3c0,0,0.1-1.2,1.3-1.8c0,0,2.3-2.6,0.8-6.5c0,0-1.1-1.9-1.9-1.9  c0,0-0.9-4.4-2-2.9c0,0-0.5,1.7-2.8,1.8c0,0-2.5,0.5-3.8,1.7c0,0-3.8,2.2-4.5,0.4c0,0-0.5-0.5-1.3-2.6c0,0-2-2-1.3-2.7  c0,0,2.5-2.8,0.3-3.6c0,0-1.9-1.3,0-3.4c0,0,3.8-5.3,5.6-5.1c0,0,1.8,3.9,4.2,2.3c0,0,2.7-2.7,3.5-2.7c0,0,1.3,0.2,4.2,2.9  c0,0,4-0.2,5.9-1.2c0,0,2.7-1.7,4.9-0.7c0,0,2.2,1.7,2.7-0.8L548.8,557.4z" stroke="#FFFFFF" name="贵州省" stroke-miterlimit="10"/>
<path fill="#E3E3E4" stroke-linejoin="round" id="path28" d="M621.4,521.2l3.5-2.9l5-3.4  l4-4.1c0,0,2.9-2,7.2-0.3c0,0,1.8,0.3,2.2,1.3c0,0,1,1.5,2.8,0.8c0,0,4.7-2.3,4-3.6c0,0-5.8-3.6-1.8-5.1c0,0,4-1.8,6-1.2l7.7,2.2  c0,0,8,0.5,9.2,1.3c0,0,2,0.5,9.2,4.8c0,0,4.8,1.2,8.7-0.8c0,0,5-3.4,6-3.4c0,0,1.3-0.3,1,1.5l-0.5,3.6c0,0-0.2,0.8,2,0.5  c0,0,2.3-0.2,4.8-4.3c0,0,1.5-1.7,4-0.5c0,0,2.7,0.5,2.7,3.3c0,0,0.3,2.9-0.3,3.9c0,0-1.3,2.7,0.2,4.1c0,0,2.8,1.5,5,1.2  c0,0,1.7-0.7,1.7,1c0,0,1,2.5,2.5,3.3c0,0,2.3,1.2,1.7,3.6c0,0-0.7,2.3,1.3,4.1c0,0,2.9,2.2,1,3.8c0,0-4.5,4.1-5.3,5.8  c0,0-5.3,5.9-5.3,9.5c0,0-0.8,5.4,1.7,5.3c0,0,4.3-3,3.5-0.3c0,0-2.3,4.4,0,6.6c0,0,1.3,1.3,0.8,4.3c0,0-0.8,2,3.7,3.9  c0,0,3.5,0.5,2.3,2c0,0-2.7,4.6-2.5,5.4c0,0,0.5,1.8,2.8,1.7c0,0,2.5-1.2,1.3,0.8c0,0-4.2,6.3-4,7.8c0,0,0.3,5.3,1.7,5.6l-2,1.5  c0,0-4.5,2-7.3,0.5c0,0-5.3-2.3-7-1c0,0-2.3,3-3.7,3.4c0,0-3.5,0.5-1,1.7c0,0,3.5,0.5,2.7,4.4c0,0-0.2,5.6-4.5,1.8  c0,0-5.5-4.9-11-3.8c0,0-3.2,1.5-1,7.1c0,0-1.7,1.5-4.2,1.7c0,0,0.8-0.7-0.3-0.7c0,0-3.8-0.3-4.8,0.8c0,0-4,2.3-4.5-0.5  c0,0-0.5-4.8-2.3-6.1c0,0-2.9-0.8-4.2,0.3c0,0-2.3,3-3.3,3c0,0-3.5,0.8-1.2-2.5c0,0,2-2.5,2.5-2.9c0,0,2.5-2.2,2.9-3.9l2.5-9.7  l-1.5,0.2c0,0-2.9,1.2-2.5-3.4c0,0,2.2-3.8,0.3-4.8c0,0-3.3-3-5.7-1c0,0-3.3,2.3-6.7,1.2c0,0-1.5-0.7-2.2,1.3c0,0-1.8,4.6-5.7,4.3  c0,0-6-3.9-7-1.8c0,0-1.4,5.8-2.7,4.3c0,0-1.6-1.7-3.6-1.5l-0.2-0.8l-1.3-4.6c0,0-4.5-1-2.3-2.5l1-2c0,0-0.5-3.3-0.2-3.9  c0,0,1.8-2.1,2.8-2.6c0,0,0.9-2.4-0.6-4.8c0,0-0.3-2.2-5.1-1.2c0,0-5.9,1.2-6.7,1.9c0,0-3,0.2-0.9-1.3c0,0,5-4.5,5.7-6.6  c0,0,2.3-3.8,4-4.3c0,0,1.5-1.2-0.2-3.8c0,0-2.7-4.6-1.5-7.3c0,0,1.5-2.7,0.2-4.9c0,0-4-5.9-3.2-8.1c0,0,1.7-5.8,0.3-7.4  L621.4,521.2z" stroke="#FFFFFF" name="湖南省" stroke-miterlimit="10"/>
<path fill="#E3E3E4" stroke-linejoin="round" id="path29" d="M716.9,520.1  c0,0,2-1.7,2.2-1.8c0.2-0.1,3.2-4.4,5.9-3.9c0,0,2.7,0.8,3.7-1c0,0,2-0.7,2.9-0.7c0,0,3-1.2,6.2-5.3c0,0,0.8-1.2,3.2-1.2  c0,0,4.4-0.2,4.6-4.1c0,0-0.5-0.8,6.6-0.3c0,0,5.4,0.8,8.9-2.5c0,0,5.6-4.8,7.2-4.4c0,0,2-0.2,1.5,2c0,0-1.7,5.1-2,5.6  c0,0-0.7,1.7,2.7,2c0,0,2,0.7,2.9-0.7c0,0,1.7-2.9,1.5-3.5c0,0,0.3-3.5,1.8-3.3l4.6,2.7c0,0,1.7,1.7,2.2,2.8l3.2,0.8  c0,0,2.3-1,2.5,0.2c0,0,1.3,1.5,4.2,1.3c0,0,2.5,0.7,3.9,2.7c0,0,2.3,1.8-0.7,2c0,0-3-0.3-2.7,1.3c0,0,0.7,2.5,2.8,3.9  c0,0,1.8,1.7,2.5,1.8c0.7,0.2,2.7,1,2.8,2.5c0,0,2.7,4.6,2.3,5.8c0,0-0.2,3.5-1.3,5.4c0,0-2.2,4.1-6.9,5.3c0,0-1.3,0.5-2.2,1.8  c0,0-3,3.3-3.7,1.8c0,0-0.3-3.3-3.6-1.8c0,0-3.4,1.8-5.4,4.9c0,0-3.2,2.2-2.5,3.9c0,0,3.6,3.3,2.7,6.1c0,0-0.7,3.5-6.7,6.6  c0,0-3.9,1.5-3.2,6.1c0,0,1.5,4.4,1.7,5.3c0,0-0.8,2.5-2.2,2.7c0,0-2.2,2-0.3,3.9c0,0,0.3,2.8-2.2,4.1c0,0-3.4,1-2.5,2.8  c0,0,0,1.3-1,2.7c0,0-1.8,1.7-1,5.9c0,0,0,2-1.3,3.2c0,0-1,2.2,0,4.8c0,0,1,1.3-0.5,2.3c0,0-2,1-1.8,3.5c0,0-1,4.4-2.2,2.9  c0,0-3.4-4.1-6.6-2.3c0,0-7.6,2.2-8.5,3.2c0,0-4.6,3.8-7.9,3.3c0,0-6.2-0.8-5.1-4.6c0,0,1.5-0.2,3-4.9c0,0,2-2.2,2.7-2.7  c0,0,3.7-3.2,1.2-5.9c0,0-2.2-1.5-3,0.2c0,0-1.8,1.3-4.9,1.3c0,0-2-0.2-2.7,1.2c0,0-2,2-2-1c0,0,0-2.3-1.8-2.9c0,0-2.2-4.1-1-6.3  l4.2-7.8c0,0-6.1,0.5-4.2-2.9l2.7-5.1l-1.7-0.7c0,0-5.4-1.5-4.6-4.4c0,0,1-3.3-1.3-4.8c0,0-1.2-2.5-0.2-4.1c0,0,2.2-4.6-1.3-2.8  c0,0-3.2,3.9-3.4-2.7c0,0,0.7-6.1,6.6-12l4.9-5.4c0,0-0.2-1.3-1.7-2.7c0,0-2-1.3-1-4.4c0,0,0.2-2.5-2.2-3.2c0,0-2.9-2.3-2.5-3.8  L716.9,520.1z" stroke="#FFFFFF" name="江西省" stroke-miterlimit="10"/>
<path fill="#E3E3E4" stroke-linejoin="round" id="path30" d="M803.7,530  c0,0,1.7,0.3,3.3-0.3c0,0,2.7-1.5,3.7,0.5c0,0,1.3,3.4,1.3,5.1c0,0,0.8,2.2,3.8,5.3c0,0-0.2,3.4,0.2,3.4c0.3,0.2,5.8,2.2,8.7,0  c0,0,3.3-2.6,3.8-3.7c0,0,1.5-2.2,2.7-0.5c0,0,0.3,5.8,2.3,5.8c0,0,1,0.7,6.5-1.9c0,0,5.2-2.2,6.2-0.5l1.2,2.4c0,0-2.3-0.7-4.5-0.8  c0,0-1.8,0.3,0.2,1c0,0,4,0,3.5,1.7c0,0-0.3,1.5-2.8,1.9c0,0-1,0.5,0.2,1.5c0,0,1.7,1.3-1,1.3c0,0-4.5,1-1.7,1.9  c0,0,3.7,1.2,1.5,2.9c0,0-3.3,2.9-3.8,2.4c0,0-1.5,0.5,0-1.7c0,0,1.8-3.2-0.5-2.1c0,0-1.5,2.7-1.8,0.2c0,0-0.3-2.1-1.3-0.2  c0,0-0.5,1.2-1.2,0.3c0,0-0.7-0.8-1.2,0.2c0,0,0,1-1,0.3c0,0-1-0.7-0.7,0.7c0,0,0.2,2.4,2,2.2c0,0,2.8-1.2,3.5,1.8  c0,0-0.2,1.9-2.7,1.2c0,0-3.3-0.2-1,1c0,0,2.2,1.3,2.7,0.8c0,0,2.3-1.9,3.2,0.2c0,0,0.5,1.8-1.7,1.7c0,0-2.7,0.2-2.8,1  c0,0-1.7,5.1-5.7,3.9l-1.8-0.3l0.3,0.7c0,0,2.5,1.8,4.2,1.5c0,0,1.3-2.6,3.5-2.2c0,0,2.2,0,1.8,1.5c0,0-1.2,0.3-1.2,1.3  c0,0,0,1.7-0.3,2.2c0,0-0.8,1.7-1.8,2.2c0,0-1.3,1.3,0.2,1.9c0,0,2.2,0.8,2.5,1.7c0,0,1.5,1.5,0.5,2.9c0,0-1-1.7-2.3-1  c0,0-1.8-0.7-2.5-1.7c0,0-1-2.2-1.5-1.5l-3.3,3.6c0,0-0.7,0.2,1.5,1.9c0,0,0,0.8,1.8,0.5l1.5,0.7c0,0-1.5,2.9-4.2,1  c0,0-0.5,0-0.3,0.7c0,0,0.3,2.2-1.5,1.2l-1.3-2.4c0,0-0.8-0.8-1.5,0.2c0,0-1,0.7,0.5,1.7c0,0,1.8,1.7,0.2,1.7c0,0-3.3-0.2-1.7,1.3  c0,0,1,0.7,2.3,0c0,0,1.8-0.7,2,0.2c0,0,0.5,0.8-0.5,1.3c0,0-1.7,0.7-1.3,1.8c0,0,0.7,0.5-1.7,0.5c0,0-5-0.3-3.3,0.8  c0,0,2.9,2.1,1.7,2.4c0,0-0.7,0.3-0.7,1.3c0,0,0.2,1.8-1.3,2.4c0,0-1.7,0.8-1.7-0.5c0,0-0.5-0.8-1.3-0.8c0,0-2.8-1.5-2.7-3  c0,0,0.2,3.4-0.8,3.7c0,0-4.2-0.2-3.5,0.8c0,0,0.7,1.5,3.3,0.5c0,0,2.3-1,2.9,0.3c0,0,1,2.6-0.5,1.7c0,0-0.7-0.8-1.8,0.8  c0,0-1.2,0.7-3.8-1.2c0,0-2.5-2.9-2.9-2.1c0,0-0.7,0.7,0.5,1.7c0,0,0.8,0.7-2.9,0.7l-2.7-0.5l0.7,1.5c0,0,1.2,0.8,2.3,1  c0,0,1.3,0.2,1.8-1l3.3,1.3c0,0,1,1.9-0.5,1.9c0,0-1.2-0.3-1.3,0.2c0,0-0.5,1.2-1.3,0.2c0,0-0.8-1-0.8,1.3c0,0-0.7,4.4-2.8,5.3  c0,0-1.3-3.9-1.7-3.4v2.7l-0.2,3.6c0,0-1,0.5-1.2-0.8c0,0,0-1.8-3.3-2.1c0,0-1.2-0.2,0,1c0,0,2.5,1.5,0.3,1.7c0,0-2.7,0-3.5,2.6  c0,0,1,2.1-2.3,2.1h-0.8l-1.7-2.4l-2-8c0,0-0.3-5.1-5.3-7.8c0,0-2.8-1.5-4.8-1.5c0,0-2.2-1.3-2.5-2.4c0,0-0.5-0.7-2.7-0.2l-2.9,0.2  l-5.7-0.8c0,0,0.5-0.5,0-2.2c0,0-1.5-2.9,0-4.4c0,0,2-1.7,1-3.6c0,0-0.8-3,1.2-5.3c0,0,1.2-1.3,0.8-2.6c0,0-0.2-1.2,2.2-1.9  c0,0,2.8-1.5,2.3-4.6c0,0-1.3-1.7,0.5-3.2c0,0,2.9-1.7,2.2-4.1c0,0-2.9-4.9-1-7.3c0,0-0.7-0.8,8-5.5c0,0,2.9-3.6,1.5-5.8  c0,0-3.7-3.2-2.7-4.7l4.5-4.6c0,0,2.2-2.6,5.8-2.9c0,0,1.8,2.6,2.8,1.9c0,0,2.7-2.7,4.2-3c0,0,5-1.7,6-4.2L803.7,530z" stroke="#FFFFFF" name="福建省" stroke-miterlimit="10"/>
<path fill="#E3E3E4" stroke-linejoin="round" id="path31" d="M568.8,632  c0,0,0.8,2.2-0.3,8.7c0,0-0.5,2.2-2.2,1c0,0-3.4-1.2-4.1,0.1l-2.4,1.7l-4,1l-1.5,0.8l1.8,2.2l4.8,3.5c0,0,9.7,0.3,11,0.7  c0,0,5.4,0.5,7.5,2c0,0,2.7,0.8,1.7,2.7c0,0-4.7,5.2-3.2,7.3c0,0,2.4,2.5,1.9,4c0,0-1.2,3.2,2.7,3.7c0,0,2.7-0.2,6.8,4.3  c0,0,2.4,2.5,8.6,2.2l3.4,1c0,0,0.2-4.5,1.5-2.3c0,0,1.3,2,2.7,1.7c0,0,1,1,1.9,0.5c0,0,1.5,0,1.9-0.7c0,0,2.1-3.2,1.8-0.8  c0,0,0,3.2,1,1c0,0-0.2-4,1.3-2.5c0,0,1.7,0.7,1.2,2.7c0,0,0.7,0.3,1.9-0.5c0,0,2.2-1.3,0.7-2c0,0-1.7-0.7-1-1.7c0,0,0.2-0.7-0.5-1  c0,0-1.5-2.3,0.2-1.7c0,0,2.1,1.3,2.6,2.9c0,0,2.2,2.8,3.4,2.9c0,0,1.8,0.5,1.3-1.5c0,0-1.8-5.5,1.2-1.7c0,0,1.5,1.8,1.5,2.7  c0,0,0.2,0.8,1.7,0.5c0,0,1.9,0.8,3.2,2c0,0,1.8,1.7,3.7,0.5c0,0,3-0.7,3-2.8c0,0-0.3-4.2,1-1.5c0,0,0.5,1.5,1.9,1.2  c0,0,0.5,1.3,6.5-3.8c0,0,0.8-2.2,3.9-1.8c0,0,3.9-0.8,4.2-2.7l-0.2-2.7c0,0-0.7-1.8,0.8-1.2c0,0,2.4,1.2,5.5-1.2  c0,0,1.5-0.2,1.2-2.5c0,0-1-2.8,1.3-4c0,0,8.3-4.2,9.7-6.3c0,0,1.7-1.5,1.5-5.8c0,0,0-4-0.3-5.3c0,0-0.7-2.3,2.1-4.8  c0,0,2.6-2.9,4.1-3.3c0,0,1.8-0.8,2.1-2.8c0,0,1-5,0.7-5.7c0,0,0.8-1.2,1.9-1.5c0,0,2.4-1,0.2-5c0,0-2.2-4-1.5-5.2  c0,0-2.2-0.8-4.4,0.2c0,0-4.1,2.7-4.7,1.2c0,0-0.8-0.5-0.7-1.5c0,0-0.8-5.5-3.2-5.7c0,0-2.9-0.7-3.6,1c0,0-3.2,4.8-4.7,1.7  c0,0-0.2-1.3,3.4-4.8c0,0,2.4-1.7,2.7-4.3l2.4-10.1c0,0-3.6,1.8-3.9-1.7c0,0,0-2.8,1.2-4.3c0,0,0.2-1.2-1.3-1.8c0,0-3.4-2.2-4.1-1.7  c0,0-3.4,2.5-4.9,2c0,0-1.5,0.3-2.9-0.2c0,0-1.5-0.2-2.1,1.8c0,0-1,2.4-4,2.9c0,0-0.7,1.8-5.3-1.2c0,0-2.4-1-3.4,0.8l-1.3,2.7  c0,0-0.6,3-2.2,0.4c0,0,0-1-3.6-0.7c0,0-1.9,1.5-2.1,2.3c0,0-0.5,2.7-3.2,2l-3.2,0.2c0,0-2.9,1-1,2.5c0.7,0.5,2.9,0.7,2.6,1.8  c0,0-1.2,2.9-3.4,2.5c0,0-2.6,0-2.9-1.8c0,0-1.7-2.7-2.6,0c0,0-1,2-0.8,3.2c0,0,0,2.5-1.7,1c0,0-4.9-3.2-6.1-0.7c0,0-3.5,6-8.2,5.7  c0,0-1.9,0-3.9-1.3c0,0-2.4-1.3-3-1c0,0-0.5,1.2-4.1-3.3c0,0-2.9-2.7-4.9-2.7c0,0-4.7,0.3-3.7,7.2c0,0-0.2-1-3.4,1.2l-8.9,3.7  c0,0-1.9,0.3-2.6,3.3c0,0-0.5,4.3-3.7,2.5l-4.4-0.8c0,0-7.8-2.7-7.8-3c0,0-3.5-2.7-8.8,1.5c0,0-1,2.4-6.3,1.3l-1.2-0.3  c0,0-0.7-0.4-1,0.9c0,0,0.2,5,3.2,7.7c0,0,1,1.2,1.9-1.7c0,0,0.2-1.2,4.9,0.2c0,0,6,1.7,6,3.3c0,0-0.8,4.8,2.2,4.7  c0,0,2.7-0.3,3.4,0c0,0,3,0.5,3.9,0c0,0,5.1,0.2,6.5,0.3c0,0,1.9-0.2,2.9,0.3L568.8,632z" stroke="#FFFFFF" name="广西壮族自治区" stroke-miterlimit="10"/>
<path fill="#E3E3E4" stroke-linejoin="round" id="path32" d="M790.3,625.2  c0,0-2.5-2.9-2.9-6.7c0,0-1.2-4-0.7-4.7c0,0-2.2-7.3-6.9-8c0,0-4.7-0.8-5.4-3.2c0,0,0.2-0.5-2.7-0.3l-2.9,0.2l-5.7-1  c0,0-1.5,0.8-2,2c0,0-0.8,2.7-0.8,3.3c0,0-0.5,2.9-2.3,1.5c0,0-3.7-4-5.6-2.5c0,0-7.4,2-9,3.7c0,0-4.9,3.8-7.6,3.5  c0,0-5.9-1-5.6-4.3c0,0,1-0.3,1.5-1.3c0,0,2-4.3,3.8-5.7c0,0,4-3.3,2.9-5.5c0,0-2-3.7-4.3-1c0,0-2.3,1.3-4.9,1.2c0,0-1.7,0-2.9,1.5  c0,0-1.3,1.3-1.7-1.7c0,0-0.2-2.2-1.5-2.5l-1.3,1.3c0,0-4.6,1.5-5.4,1.3c0,0-4.9-1-6.9-2c0,0-2.7-0.3-3.7,2c0,0-1,1.7-2.7,2  c0,0-3.2,0.5-0.7,1.5c0,0,3.2,0.3,2.7,3.3c0,0,0.2,5.5-3.3,3.7c0,0-5.4-4.5-8.1-4.7c0,0-4.6-1.2-5.2,1c0,0-1,2.5,0,5.8  c0,0-2.3,1.8-3.8,1.5c0,0-0.8,0.7,0.7,3.5c0,0,2.5,4.3,1.7,5.5c0,0-0.7,1.2-2.3,1.7c0,0-1,0.5-0.7,2.8c0,0-0.2,4.7-1.5,5.7  c0,0-5.4,3.8-5.7,4.7c0,0-2.8,2-1.8,4.7c0,0,1.2,7.7-0.2,9.2c0,0-0.2,1.3-4.3,4.5c0,0-6.2,3.2-7.1,4c0,0-2,1.7-0.5,3.7  c0,0,0.3,1.5-0.5,2c0,0-3.8,2.8-6.6,1.5c0,0-1.2-0.7-0.5,1.2c0,0,1.2,3.8-1,4.3c0,0-4,1.5-4.7,1.2c0,0-1.2-0.2-2.7,1.8  c0,0-4.9,4-6.2,3.7c0,0-0.2,2.5,0.2,2.5c0,0,0.8-0.5,1.3-1.2c0,0,0.3-1.3,1,0c0,0,0.2,1.2,1.7,0.7c0,0,1.5,0.8,0.5,2.3  c0,0-3.7,1-3.2,4.5c0,0-0.2,2.2-1.3,3.5c0,0-1,2.5,0.5,2.7c0,0,1.5,0,1.5,0.8c0,0-0.2,1.5,1.3,1.3c0,0,1.7,0.3,0.2,1  c0,0-2.7,1.3,1.2,3.2l2.9,1.5c0,0,1.7,0.8-0.8,1c0,0-3.5-0.5-1.3,1.2c0,0,1.7,1.3,3.2,0.7c0,0,5.2,0.2,5.7,0.2c0,0,3.7-1.2,4.9-3.3  c0,0,1.8-3.3-0.5-2.9c0,0-2.3,0.3-3.3-1c0,0-2.8-2.2-1.2-2.5c0,0,2.3,0.5,1-0.8c0,0-1.5-2.3-2.9-0.7c0,0-2.5,1.3-1.8-1  c0,0,0.5-2.9-0.2-4c0,0-1.3-2.3,0.7-1.2c0,0,2.8,0.7,2.8,1.7c0,0-0.7,1.8,0.7,1.7c0,0,3.8,1,4.2,0c0,0,0.3-1.5-1.8-1.8  c0,0-2.3-2.3,0-2c0,0,2.8,1.5,3.2,0.8c0,0,1.5-1.2-1.3-1.3c0,0-2.7,0.2-2.9-1.8c0,0-1.2-5,0.2-2c0,0,0.7,3.8,4,2.5  c0,0,2.5-3.2,3.7-3.2c0,0,4.7,0.3,4.9-0.2c0,0-1.7-2.9,0.7-2.5c0,0,1.5,0.5,1.7,0.8c0,0,0.2,1.3,1,0c0,0,1.3-2.3,1.8-0.5  c0,0,0.7,1,1.3,0.5c0,0,1.8-1.7,2.2-2.3c0,0,1.7,0.8,2.3,0.5c0,0,1.8-1.2,2.8-1c0,0,2.7,0,1.3-2.2c0,0-2.3-3.5,0.5-2.5  c0,0,1.8,1.3,2.7,3.5c0,0,1.3,2,1.8-0.8c0,0-2.3-3.8,1.5-3.7c0,0,0.8,0.7,1.7-0.3c0,0,1.3-1.2,1.7,0.3c0,0,0.8,3.8,2.5,1.3  c0,0,0.7-1.7-0.2-5c0,0,0-1.5,0.7-0.3c0,0,0.7,1.3,2.3,0.3c0,0-1.2,1.8-1,2.3c0,0,1.3,2,2.8,1.8c0,0,3.2-2.9,4.2-3.7  c0,0,0.8-0.5,1.8,0.2c0,0,3.2,1.7,3.3-0.7c0,0-1-4,1.8-4.8c0,0,0.3,1.5,0.7,2.3c0,0,0.7,2,1.8,1c0,0,1.5-2.7,2.3-2.7  c0,0,3.3-4.7,3.5-6.3c0,0,0.5-4.8-1.7-5.8c0,0-3.7-1.8-2.7-2.8c0,0,3.7-0.7,1.8-2.3c0,0-1.5-1.2-3.3-1.2c0,0-2.5-0.5-2.2-2.3  c0,0,2.9,1.3,3.8,1.3c0,0,2.2-0.8,2.9,0.8c0,0,2.3,4,2.3,4.5c0,0,1.3,1,2.2,1.2l2.2,3.7c0,0,4.3,2,6.9,0.5c0,0,3.8-2.2,6.4-0.8  c0,0,1,1.8,2.7,1c0,0,1.7-0.7,0.2-1.3c0,0-2-1-0.2-1.2c0,0,0.7-1,0-1.8c0,0-2-1.2,0.3-1.7l3.8-0.8l-0.3,2.5l1,1.8  c0,0,2.8-0.7,2.8-2.3c0,0-2.3-2.5,0.2-1.8c0,0,3.3-0.3,4.3-1.2c0,0,1.3-1.2,1.7-1.8c0,0,1.7-1,1.3,0c0,0-2,1.7-0.7,2.2  c0,0,3.8,1.7,5.1,1.3c0,0,1.8,0.3,1-1.8c0,0-0.7-1.3-1-1.3c0,0-1.7-1.2,0.2-1.7c0,0,0.8,0.3,2.8-1.2c0,0,0.8-0.3,1,1.7  c0,0,0.8,2,1.7,2c0,0,2.3-1.3,2.8-1.3c0,0,1.3,0,1.7-1c0,0-0.2-2.8,1.5-1.7c0,0,1.7,1.2,2.7,0c0,0,0.3-1.2,2-0.5c0,0,4,0.5,4.7-3.2  c0,0,0.3-1.7-1.5-3.2c0,0-0.2-0.3,1.3-0.3c0,0,2,0.5,0.7-0.7c0,0-2.7-2.8-0.3-1.8c0,0,1.3,0.3,3.2-1.5c0,0,2.7-4.5,3.5-3.7  L790.3,625.2z" stroke="#FFFFFF" name="广东省" stroke-miterlimit="10"/>
<path name="香港特别行政区" fill="#E3E3E4" d="M728.5,650.1l7.5-0.7c0.7,0,1.5,0.5,1.5,1.5v4.9  c0,0.7-0.5,1.5-1.5,1.5h-8.2c-0.9,0-1.5-0.7-1.3-1.6l0.7-4C727.4,650.6,727.9,650.1,728.5,650.1z" stroke-miterlimit="10" id="path33" stroke="#FFFFFF"/>
<circle fill="#E3E3E4" r="4.3" cx="719.3" id="circle0" cy="661.6" stroke="#FFFFFF" name="澳门特别行政区" stroke-miterlimit="10"/>
</svg>